<svg xmlns="http://www.w3.org/2000/svg" xmlns:xlink="http://www.w3.org/1999/xlink" width="1000" zoomAndPan="magnify" viewBox="0 0 750 749.999995" height="1000" preserveAspectRatio="xMidYMid meet" version="1.0"><defs><clipPath id="4f7162e4ce"><path d="M 0 53.28125 L 750 53.28125 L 750 696.78125 L 0 696.78125 Z M 0 53.28125 " clip-rule="nonzero"/></clipPath></defs><g clip-path="url(#4f7162e4ce)"><path fill="#99d9d5" d="M 692.722656 428.433594 C 693.058594 400.542969 670.941406 377.832031 643.03125 377.410156 C 613.101562 376.960938 590.949219 398.679688 590.660156 428.757812 C 590.378906 457.792969 611.578125 478.960938 641.378906 479.394531 C 670.925781 479.832031 692.359375 458.554688 692.722656 428.433594 Z M 604.695312 319.6875 C 617.914062 319.675781 618.09375 319.242188 615.605469 306.730469 C 609.199219 274.554688 602.898438 242.359375 596.476562 210.183594 C 592.214844 188.851562 588.558594 167.359375 583.269531 146.285156 C 578.203125 126.097656 557.738281 111.644531 537.078125 111.636719 C 504.589844 111.625 472.097656 111.542969 439.613281 111.535156 C 365.589844 111.527344 291.574219 111.425781 217.554688 111.726562 C 209.386719 111.757812 200.300781 112.265625 193.25 115.78125 C 175.773438 124.488281 165.929688 139.308594 162.808594 159.09375 C 159.523438 179.914062 154.738281 200.492188 150.609375 221.175781 C 144.847656 250.054688 139.171875 278.957031 133.269531 307.804688 C 131.628906 315.800781 133.527344 319.550781 142.558594 319.398438 C 162.300781 319.0625 182.050781 319.578125 201.796875 319.59375 C 259.402344 319.640625 317.007812 319.609375 374.609375 319.609375 C 374.609375 319.644531 374.609375 319.679688 374.609375 319.714844 C 451.308594 319.714844 528 319.742188 604.695312 319.6875 Z M 466.925781 451.835938 C 466.925781 436.703125 454.542969 424.320312 439.410156 424.320312 L 310.511719 424.320312 C 295.378906 424.320312 283 436.703125 283 451.835938 L 283 465.402344 C 283 480.535156 295.378906 492.917969 310.511719 492.917969 L 439.410156 492.917969 C 454.542969 492.917969 466.925781 480.535156 466.925781 465.402344 Z M 158.808594 428.191406 C 158.839844 399.390625 137 377.671875 107.824219 377.503906 C 79.015625 377.335938 56.632812 399.414062 56.585938 428.050781 C 56.539062 457.898438 77.828125 479.441406 107.59375 479.65625 C 136.945312 479.867188 158.777344 457.929688 158.808594 428.191406 Z M 748.648438 511.53125 C 748.136719 540.84375 733.238281 562.421875 708.988281 577.273438 C 700.105469 582.71875 696.582031 588.542969 696.722656 598.769531 C 697.066406 623.207031 696.421875 647.664062 696.046875 672.109375 C 695.839844 685.710938 686.292969 695.289062 672.898438 695.355469 C 652.800781 695.457031 632.703125 695.464844 612.605469 695.359375 C 597.050781 695.273438 589.308594 689.316406 588.382812 673.550781 C 587.007812 650.183594 586.886719 626.710938 587.210938 603.296875 C 587.351562 593.382812 584.796875 590.085938 574.339844 590.164062 C 507.6875 590.640625 441.027344 590.40625 374.367188 590.40625 C 374.367188 590.390625 374.367188 590.378906 374.367188 590.363281 C 308.042969 590.363281 241.71875 590.605469 175.398438 590.117188 C 164.867188 590.039062 162.378906 593.421875 162.707031 603.277344 C 163.394531 623.691406 163.023438 644.140625 162.867188 664.578125 C 162.695312 686.632812 154.578125 695.523438 132.9375 696.148438 C 115.226562 696.660156 97.464844 696.472656 79.753906 695.820312 C 61.601562 695.152344 54.609375 688.929688 53.769531 670.71875 C 52.578125 644.972656 52.789062 619.15625 52.707031 593.371094 C 52.691406 587.507812 51.566406 583.539062 45.769531 580.480469 C 15.675781 564.613281 1.175781 538.695312 0.726562 505.324219 C 0.238281 469.210938 0.03125 433.035156 1.699219 396.976562 C 3.339844 361.53125 23.398438 338.136719 56.035156 325.726562 C 63.457031 322.902344 67.265625 319.277344 69.160156 311.523438 C 82.667969 256.238281 95.808594 200.84375 110.6875 145.925781 C 122.382812 102.730469 149.734375 71.910156 192.847656 58.308594 C 207.710938 53.617188 224.582031 54.515625 240.554688 54.28125 L 492.703125 54.183594 C 508.757812 54.09375 524.972656 53.332031 540.851562 55.171875 C 587.152344 60.53125 618.535156 87.902344 632.800781 130.175781 C 648.816406 177.621094 658.960938 227.046875 671.582031 275.636719 C 674.78125 287.945312 677.050781 300.535156 681.023438 312.574219 C 682.542969 317.1875 686.855469 322.53125 691.210938 324.285156 C 726.527344 338.523438 748.140625 363.140625 749.117188 402.066406 C 750.035156 438.53125 749.285156 475.046875 748.648438 511.53125 Z M 546.664062 298.335938 C 543.316406 298.335938 539.957031 298.121094 536.632812 298.382812 C 530.109375 298.886719 526.878906 296.230469 523.914062 289.996094 C 513.828125 268.800781 497.378906 255.425781 472.929688 255.839844 C 449.175781 256.242188 431.246094 267.09375 421.730469 289.492188 C 418.945312 296.046875 415.144531 298.945312 408.121094 298.523438 C 401.453125 298.125 394.75 298.339844 388.0625 298.261719 C 379.949219 298.164062 377.769531 294.332031 379.636719 286.519531 C 389.996094 243.128906 436.402344 211.261719 481.222656 215.394531 C 521.566406 219.117188 555.347656 250.117188 565.882812 286.523438 C 568.664062 296.140625 567.105469 298.257812 556.695312 298.449219 C 553.355469 298.507812 550.007812 298.460938 546.664062 298.460938 C 546.664062 298.417969 546.664062 298.375 546.664062 298.335938 " fill-opacity="1" fill-rule="nonzero"/></g></svg>