<svg xmlns="http://www.w3.org/2000/svg" xmlns:xlink="http://www.w3.org/1999/xlink" width="1000" zoomAndPan="magnify" viewBox="0 0 750 749.999995" height="1000" preserveAspectRatio="xMidYMid meet" version="1.0"><defs><clipPath id="493d0def9c"><path d="M 14 450 L 726 450 L 726 675 L 14 675 Z M 14 450 " clip-rule="nonzero"/></clipPath><clipPath id="1c4c7034ac"><path d="M 0 67.5 L 741 67.5 L 741 416 L 0 416 Z M 0 67.5 " clip-rule="nonzero"/></clipPath></defs><path fill="#00384d" d="M 406.757812 440.019531 L 406.757812 423.566406 C 406.757812 403.496094 390.492188 387.234375 370.4375 387.234375 C 350.371094 387.234375 334.105469 403.496094 334.105469 423.566406 L 334.105469 440.019531 C 334.105469 460.089844 350.371094 476.351562 370.4375 476.351562 C 390.476562 476.351562 406.757812 460.089844 406.757812 440.019531 Z M 406.757812 440.019531 " fill-opacity="1" fill-rule="nonzero"/><g clip-path="url(#493d0def9c)"><path fill="#00384d" d="M 431.675781 460.117188 C 423.625 486.46875 399.367188 505.8125 370.4375 505.8125 C 341.492188 505.8125 317.238281 486.46875 309.1875 460.117188 L 58.976562 460.117188 C 43.183594 460.117188 28.261719 456.449219 14.875 450.078125 L 14.875 616.210938 C 14.875 648.652344 41.414062 675.191406 73.855469 675.191406 L 666.992188 675.191406 C 699.433594 675.191406 725.972656 648.652344 725.972656 616.210938 L 725.972656 450.09375 C 712.570312 456.460938 697.664062 460.132812 681.871094 460.132812 L 431.675781 460.132812 Z M 431.675781 460.117188 " fill-opacity="1" fill-rule="nonzero"/></g><g clip-path="url(#1c4c7034ac)"><path fill="#00384d" d="M 679.410156 161.796875 L 537.839844 161.796875 C 529.289062 108.328125 482.972656 67.308594 427.132812 67.308594 L 313.699219 67.308594 C 257.859375 67.308594 211.558594 108.328125 202.992188 161.796875 L 61.4375 161.796875 C 27.644531 161.796875 -0.00390625 188.335938 -0.00390625 220.777344 L -0.00390625 356.917969 C -0.00390625 389.488281 26.40625 415.898438 58.976562 415.898438 L 306.402344 415.898438 C 307.242188 398.925781 314.523438 383.679688 326.039062 372.652344 C 326.394531 372.3125 326.808594 372.046875 327.175781 371.722656 C 329.726562 369.378906 332.382812 367.164062 335.285156 365.25 C 336.320312 364.554688 337.496094 364.082031 338.574219 363.464844 C 340.964844 362.09375 343.324219 360.664062 345.902344 359.601562 C 347.921875 358.761719 350.105469 358.273438 352.226562 357.640625 C 354.058594 357.09375 355.796875 356.371094 357.699219 355.988281 C 361.8125 355.148438 366.074219 354.707031 370.425781 354.707031 C 374.789062 354.707031 379.035156 355.164062 383.148438 355.988281 C 385.035156 356.371094 386.777344 357.09375 388.605469 357.640625 C 390.726562 358.273438 392.910156 358.761719 394.929688 359.617188 C 397.496094 360.679688 399.839844 362.09375 402.230469 363.464844 C 403.320312 364.097656 404.5 364.570312 405.546875 365.261719 C 408.453125 367.164062 411.089844 369.378906 413.640625 371.722656 C 414.011719 372.0625 414.4375 372.328125 414.792969 372.679688 C 426.324219 383.710938 433.59375 398.957031 434.433594 415.929688 L 681.855469 415.929688 C 714.429688 415.929688 740.835938 389.519531 740.835938 356.945312 L 740.835938 220.804688 C 740.851562 188.335938 713.203125 161.796875 679.410156 161.796875 Z M 259.777344 161.796875 C 267.296875 139.074219 288.484375 122.515625 313.699219 122.515625 L 427.132812 122.515625 C 452.347656 122.515625 473.535156 139.074219 481.058594 161.796875 Z M 259.777344 161.796875 " fill-opacity="1" fill-rule="nonzero"/></g></svg>