<svg xmlns="http://www.w3.org/2000/svg" xmlns:xlink="http://www.w3.org/1999/xlink" width="1000" zoomAndPan="magnify" viewBox="0 0 750 749.999995" height="1000" preserveAspectRatio="xMidYMid meet" version="1.0"><defs><clipPath id="5330533a03"><path d="M 92 178 L 621 178 L 621 722.695312 L 92 722.695312 Z M 92 178 " clip-rule="nonzero"/></clipPath><clipPath id="1ca8b647e6"><path d="M 28 27.445312 L 685 27.445312 L 685 405 L 28 405 Z M 28 27.445312 " clip-rule="nonzero"/></clipPath></defs><g clip-path="url(#5330533a03)"><path fill="#00384d" d="M 92.453125 441.789062 L 92.453125 710.285156 C 92.453125 717.027344 97.925781 722.511719 104.679688 722.511719 L 392.84375 722.511719 L 392.84375 479.390625 L 528.207031 479.390625 L 528.207031 722.511719 L 608.730469 722.511719 C 615.503906 722.511719 620.960938 717.027344 620.960938 710.285156 L 620.960938 441.789062 L 356.859375 178.820312 Z M 307.351562 592.660156 L 185.203125 592.660156 L 185.203125 479.40625 L 307.351562 479.40625 Z M 307.351562 592.660156 " fill-opacity="1" fill-rule="nonzero"/></g><g clip-path="url(#1ca8b647e6)"><path fill="#00384d" d="M 674.488281 345.242188 L 356.71875 27.488281 L 206.8125 177.382812 L 206.8125 111.417969 C 206.8125 96.007812 194.304688 83.5 178.894531 83.5 C 163.484375 83.5 150.980469 96.007812 150.980469 111.417969 L 150.980469 233.214844 L 38.9375 345.242188 C 25.300781 358.878906 25.300781 380.972656 38.9375 394.597656 C 45.75 401.40625 54.683594 404.8125 63.617188 404.8125 C 72.550781 404.8125 81.46875 401.40625 88.292969 394.609375 L 356.734375 126.199219 L 625.148438 394.597656 C 638.785156 408.234375 660.867188 408.234375 674.488281 394.597656 C 688.113281 380.960938 688.113281 358.863281 674.488281 345.242188 Z M 674.488281 345.242188 " fill-opacity="1" fill-rule="nonzero"/></g></svg>