<svg xmlns="http://www.w3.org/2000/svg" xmlns:xlink="http://www.w3.org/1999/xlink" width="296" zoomAndPan="magnify" viewBox="0 0 222 189.000001" height="252" preserveAspectRatio="xMidYMid meet" version="1.0"><defs><g/><clipPath id="e1f242a3dc"><path d="M 0.585938 0 L 221.414062 0 L 221.414062 188.003906 L 0.585938 188.003906 Z M 0.585938 0 " clip-rule="nonzero"/></clipPath><clipPath id="19ac3dedf3"><path d="M 44.140625 141.171875 L 183.339844 141.171875 L 183.339844 168.457031 L 44.140625 168.457031 Z M 44.140625 141.171875 " clip-rule="nonzero"/></clipPath><clipPath id="3de3a7df96"><path d="M 45.738281 141.277344 L 181.78125 141.277344 C 182.179688 141.277344 182.558594 141.433594 182.835938 141.714844 C 183.117188 141.992188 183.273438 142.371094 183.273438 142.769531 L 183.273438 166.964844 C 183.273438 167.363281 183.117188 167.742188 182.835938 168.023438 C 182.558594 168.300781 182.179688 168.457031 181.78125 168.457031 L 45.738281 168.457031 C 45.34375 168.457031 44.960938 168.300781 44.683594 168.023438 C 44.402344 167.742188 44.246094 167.363281 44.246094 166.964844 L 44.246094 142.769531 C 44.246094 142.371094 44.402344 141.992188 44.683594 141.714844 C 44.960938 141.433594 45.34375 141.277344 45.738281 141.277344 Z M 45.738281 141.277344 " clip-rule="nonzero"/></clipPath><clipPath id="c43728ccd3"><path d="M 119.929688 18.800781 L 209.300781 18.800781 L 209.300781 42.683594 L 119.929688 42.683594 Z M 119.929688 18.800781 " clip-rule="nonzero"/></clipPath><clipPath id="dc42b9c8f4"><path d="M 121.421875 18.800781 L 207.773438 18.800781 C 208.167969 18.800781 208.546875 18.957031 208.828125 19.238281 C 209.109375 19.515625 209.265625 19.898438 209.265625 20.292969 L 209.265625 41.191406 C 209.265625 41.585938 209.109375 41.964844 208.828125 42.246094 C 208.546875 42.523438 208.167969 42.683594 207.773438 42.683594 L 121.421875 42.683594 C 121.027344 42.683594 120.644531 42.523438 120.367188 42.246094 C 120.085938 41.964844 119.929688 41.585938 119.929688 41.191406 L 119.929688 20.292969 C 119.929688 19.898438 120.085938 19.515625 120.367188 19.238281 C 120.644531 18.957031 121.027344 18.800781 121.421875 18.800781 Z M 121.421875 18.800781 " clip-rule="nonzero"/></clipPath><linearGradient x1="-2.000003" gradientTransform="matrix(1, 0, 0, 1, 0.00000296138, -0.00000098168)" y1="2" x2="150.163901" gradientUnits="userSpaceOnUse" y2="2" id="a516649ffc"><stop stop-opacity="1" stop-color="rgb(100%, 19.198608%, 19.198608%)" offset="0"/><stop stop-opacity="1" stop-color="rgb(100%, 19.245911%, 19.212341%)" offset="0.015625"/><stop stop-opacity="1" stop-color="rgb(100%, 19.445801%, 19.271851%)" offset="0.0234375"/><stop stop-opacity="1" stop-color="rgb(100%, 19.749451%, 19.358826%)" offset="0.03125"/><stop stop-opacity="1" stop-color="rgb(100%, 20.051575%, 19.447327%)" offset="0.0390625"/><stop stop-opacity="1" stop-color="rgb(100%, 20.353699%, 19.535828%)" offset="0.046875"/><stop stop-opacity="1" stop-color="rgb(100%, 20.655823%, 19.624329%)" offset="0.0546875"/><stop stop-opacity="1" stop-color="rgb(100%, 20.959473%, 19.71283%)" offset="0.0625"/><stop stop-opacity="1" stop-color="rgb(100%, 21.261597%, 19.801331%)" offset="0.0703125"/><stop stop-opacity="1" stop-color="rgb(100%, 21.563721%, 19.889832%)" offset="0.078125"/><stop stop-opacity="1" stop-color="rgb(100%, 21.865845%, 19.976807%)" offset="0.0859375"/><stop stop-opacity="1" stop-color="rgb(100%, 22.167969%, 20.065308%)" offset="0.09375"/><stop stop-opacity="1" stop-color="rgb(100%, 22.471619%, 20.153809%)" offset="0.101562"/><stop stop-opacity="1" stop-color="rgb(100%, 22.773743%, 20.24231%)" offset="0.109375"/><stop stop-opacity="1" stop-color="rgb(100%, 23.075867%, 20.330811%)" offset="0.117188"/><stop stop-opacity="1" stop-color="rgb(100%, 23.377991%, 20.419312%)" offset="0.125"/><stop stop-opacity="1" stop-color="rgb(100%, 23.681641%, 20.506287%)" offset="0.132812"/><stop stop-opacity="1" stop-color="rgb(100%, 23.983765%, 20.594788%)" offset="0.140625"/><stop stop-opacity="1" stop-color="rgb(100%, 24.285889%, 20.683289%)" offset="0.148438"/><stop stop-opacity="1" stop-color="rgb(100%, 24.588013%, 20.77179%)" offset="0.15625"/><stop stop-opacity="1" stop-color="rgb(100%, 24.891663%, 20.860291%)" offset="0.164063"/><stop stop-opacity="1" stop-color="rgb(100%, 25.193787%, 20.948792%)" offset="0.171875"/><stop stop-opacity="1" stop-color="rgb(100%, 25.495911%, 21.035767%)" offset="0.179688"/><stop stop-opacity="1" stop-color="rgb(100%, 25.798035%, 21.124268%)" offset="0.1875"/><stop stop-opacity="1" stop-color="rgb(100%, 26.101685%, 21.212769%)" offset="0.195313"/><stop stop-opacity="1" stop-color="rgb(100%, 26.403809%, 21.30127%)" offset="0.203125"/><stop stop-opacity="1" stop-color="rgb(100%, 26.705933%, 21.389771%)" offset="0.210938"/><stop stop-opacity="1" stop-color="rgb(100%, 27.008057%, 21.478271%)" offset="0.21875"/><stop stop-opacity="1" stop-color="rgb(100%, 27.310181%, 21.565247%)" offset="0.226563"/><stop stop-opacity="1" stop-color="rgb(100%, 27.613831%, 21.653748%)" offset="0.234375"/><stop stop-opacity="1" stop-color="rgb(100%, 27.915955%, 21.742249%)" offset="0.242188"/><stop stop-opacity="1" stop-color="rgb(100%, 28.218079%, 21.83075%)" offset="0.25"/><stop stop-opacity="1" stop-color="rgb(100%, 28.520203%, 21.91925%)" offset="0.257812"/><stop stop-opacity="1" stop-color="rgb(100%, 28.823853%, 22.007751%)" offset="0.265625"/><stop stop-opacity="1" stop-color="rgb(100%, 29.125977%, 22.096252%)" offset="0.273438"/><stop stop-opacity="1" stop-color="rgb(100%, 29.428101%, 22.183228%)" offset="0.28125"/><stop stop-opacity="1" stop-color="rgb(100%, 29.730225%, 22.271729%)" offset="0.289063"/><stop stop-opacity="1" stop-color="rgb(100%, 30.033875%, 22.360229%)" offset="0.296875"/><stop stop-opacity="1" stop-color="rgb(100%, 30.335999%, 22.44873%)" offset="0.304688"/><stop stop-opacity="1" stop-color="rgb(100%, 30.638123%, 22.537231%)" offset="0.3125"/><stop stop-opacity="1" stop-color="rgb(100%, 30.940247%, 22.625732%)" offset="0.320313"/><stop stop-opacity="1" stop-color="rgb(100%, 31.243896%, 22.712708%)" offset="0.328125"/><stop stop-opacity="1" stop-color="rgb(100%, 31.546021%, 22.801208%)" offset="0.335938"/><stop stop-opacity="1" stop-color="rgb(100%, 31.848145%, 22.889709%)" offset="0.34375"/><stop stop-opacity="1" stop-color="rgb(100%, 32.150269%, 22.97821%)" offset="0.351563"/><stop stop-opacity="1" stop-color="rgb(100%, 32.452393%, 23.066711%)" offset="0.359375"/><stop stop-opacity="1" stop-color="rgb(100%, 32.756042%, 23.155212%)" offset="0.367188"/><stop stop-opacity="1" stop-color="rgb(100%, 33.058167%, 23.242188%)" offset="0.375"/><stop stop-opacity="1" stop-color="rgb(100%, 33.360291%, 23.330688%)" offset="0.382813"/><stop stop-opacity="1" stop-color="rgb(100%, 33.662415%, 23.419189%)" offset="0.390625"/><stop stop-opacity="1" stop-color="rgb(100%, 33.966064%, 23.50769%)" offset="0.398438"/><stop stop-opacity="1" stop-color="rgb(100%, 34.268188%, 23.596191%)" offset="0.40625"/><stop stop-opacity="1" stop-color="rgb(100%, 34.570312%, 23.684692%)" offset="0.414063"/><stop stop-opacity="1" stop-color="rgb(100%, 34.872437%, 23.771667%)" offset="0.421875"/><stop stop-opacity="1" stop-color="rgb(100%, 35.176086%, 23.860168%)" offset="0.429688"/><stop stop-opacity="1" stop-color="rgb(100%, 35.47821%, 23.948669%)" offset="0.4375"/><stop stop-opacity="1" stop-color="rgb(100%, 35.780334%, 24.03717%)" offset="0.445312"/><stop stop-opacity="1" stop-color="rgb(100%, 36.082458%, 24.125671%)" offset="0.453125"/><stop stop-opacity="1" stop-color="rgb(100%, 36.386108%, 24.214172%)" offset="0.460938"/><stop stop-opacity="1" stop-color="rgb(100%, 36.688232%, 24.302673%)" offset="0.46875"/><stop stop-opacity="1" stop-color="rgb(100%, 36.990356%, 24.389648%)" offset="0.476563"/><stop stop-opacity="1" stop-color="rgb(100%, 37.29248%, 24.478149%)" offset="0.484375"/><stop stop-opacity="1" stop-color="rgb(100%, 37.594604%, 24.56665%)" offset="0.492188"/><stop stop-opacity="1" stop-color="rgb(100%, 37.898254%, 24.655151%)" offset="0.5"/><stop stop-opacity="1" stop-color="rgb(100%, 38.200378%, 24.743652%)" offset="0.507813"/><stop stop-opacity="1" stop-color="rgb(100%, 38.502502%, 24.832153%)" offset="0.515625"/><stop stop-opacity="1" stop-color="rgb(100%, 38.804626%, 24.919128%)" offset="0.523438"/><stop stop-opacity="1" stop-color="rgb(100%, 39.108276%, 25.007629%)" offset="0.53125"/><stop stop-opacity="1" stop-color="rgb(100%, 39.4104%, 25.09613%)" offset="0.539063"/><stop stop-opacity="1" stop-color="rgb(100%, 39.712524%, 25.184631%)" offset="0.546875"/><stop stop-opacity="1" stop-color="rgb(100%, 40.014648%, 25.273132%)" offset="0.554688"/><stop stop-opacity="1" stop-color="rgb(100%, 40.318298%, 25.361633%)" offset="0.5625"/><stop stop-opacity="1" stop-color="rgb(100%, 40.620422%, 25.448608%)" offset="0.570313"/><stop stop-opacity="1" stop-color="rgb(100%, 40.922546%, 25.537109%)" offset="0.578125"/><stop stop-opacity="1" stop-color="rgb(100%, 41.22467%, 25.62561%)" offset="0.585938"/><stop stop-opacity="1" stop-color="rgb(100%, 41.52832%, 25.714111%)" offset="0.59375"/><stop stop-opacity="1" stop-color="rgb(100%, 41.830444%, 25.802612%)" offset="0.601563"/><stop stop-opacity="1" stop-color="rgb(100%, 42.132568%, 25.891113%)" offset="0.609375"/><stop stop-opacity="1" stop-color="rgb(100%, 42.434692%, 25.978088%)" offset="0.617188"/><stop stop-opacity="1" stop-color="rgb(100%, 42.736816%, 26.066589%)" offset="0.625"/><stop stop-opacity="1" stop-color="rgb(100%, 43.040466%, 26.15509%)" offset="0.632812"/><stop stop-opacity="1" stop-color="rgb(100%, 43.34259%, 26.243591%)" offset="0.640625"/><stop stop-opacity="1" stop-color="rgb(100%, 43.644714%, 26.332092%)" offset="0.648438"/><stop stop-opacity="1" stop-color="rgb(100%, 43.946838%, 26.420593%)" offset="0.65625"/><stop stop-opacity="1" stop-color="rgb(100%, 44.250488%, 26.509094%)" offset="0.664063"/><stop stop-opacity="1" stop-color="rgb(100%, 44.552612%, 26.596069%)" offset="0.671875"/><stop stop-opacity="1" stop-color="rgb(100%, 44.854736%, 26.68457%)" offset="0.679688"/><stop stop-opacity="1" stop-color="rgb(100%, 45.15686%, 26.773071%)" offset="0.6875"/><stop stop-opacity="1" stop-color="rgb(100%, 45.46051%, 26.861572%)" offset="0.695313"/><stop stop-opacity="1" stop-color="rgb(100%, 45.762634%, 26.950073%)" offset="0.703125"/><stop stop-opacity="1" stop-color="rgb(100%, 46.064758%, 27.038574%)" offset="0.710938"/><stop stop-opacity="1" stop-color="rgb(100%, 46.366882%, 27.125549%)" offset="0.71875"/><stop stop-opacity="1" stop-color="rgb(100%, 46.670532%, 27.21405%)" offset="0.726563"/><stop stop-opacity="1" stop-color="rgb(100%, 46.972656%, 27.302551%)" offset="0.734375"/><stop stop-opacity="1" stop-color="rgb(100%, 47.27478%, 27.391052%)" offset="0.742188"/><stop stop-opacity="1" stop-color="rgb(100%, 47.576904%, 27.479553%)" offset="0.75"/><stop stop-opacity="1" stop-color="rgb(100%, 47.879028%, 27.568054%)" offset="0.757812"/><stop stop-opacity="1" stop-color="rgb(100%, 48.182678%, 27.655029%)" offset="0.765625"/><stop stop-opacity="1" stop-color="rgb(100%, 48.484802%, 27.74353%)" offset="0.773438"/><stop stop-opacity="1" stop-color="rgb(100%, 48.786926%, 27.832031%)" offset="0.78125"/><stop stop-opacity="1" stop-color="rgb(100%, 49.08905%, 27.920532%)" offset="0.789063"/><stop stop-opacity="1" stop-color="rgb(100%, 49.3927%, 28.009033%)" offset="0.796875"/><stop stop-opacity="1" stop-color="rgb(100%, 49.694824%, 28.097534%)" offset="0.804688"/><stop stop-opacity="1" stop-color="rgb(100%, 49.996948%, 28.186035%)" offset="0.8125"/><stop stop-opacity="1" stop-color="rgb(100%, 50.299072%, 28.27301%)" offset="0.820313"/><stop stop-opacity="1" stop-color="rgb(100%, 50.602722%, 28.361511%)" offset="0.828125"/><stop stop-opacity="1" stop-color="rgb(100%, 50.904846%, 28.450012%)" offset="0.835938"/><stop stop-opacity="1" stop-color="rgb(100%, 51.20697%, 28.538513%)" offset="0.84375"/><stop stop-opacity="1" stop-color="rgb(100%, 51.509094%, 28.627014%)" offset="0.851563"/><stop stop-opacity="1" stop-color="rgb(100%, 51.812744%, 28.715515%)" offset="0.859375"/><stop stop-opacity="1" stop-color="rgb(100%, 52.114868%, 28.80249%)" offset="0.867188"/><stop stop-opacity="1" stop-color="rgb(100%, 52.416992%, 28.890991%)" offset="0.875"/><stop stop-opacity="1" stop-color="rgb(100%, 52.719116%, 28.979492%)" offset="0.882813"/><stop stop-opacity="1" stop-color="rgb(100%, 53.02124%, 29.067993%)" offset="0.890625"/><stop stop-opacity="1" stop-color="rgb(100%, 53.32489%, 29.156494%)" offset="0.898438"/><stop stop-opacity="1" stop-color="rgb(100%, 53.627014%, 29.244995%)" offset="0.90625"/><stop stop-opacity="1" stop-color="rgb(100%, 53.929138%, 29.33197%)" offset="0.914063"/><stop stop-opacity="1" stop-color="rgb(100%, 54.231262%, 29.420471%)" offset="0.921875"/><stop stop-opacity="1" stop-color="rgb(100%, 54.534912%, 29.508972%)" offset="0.929688"/><stop stop-opacity="1" stop-color="rgb(100%, 54.837036%, 29.597473%)" offset="0.9375"/><stop stop-opacity="1" stop-color="rgb(100%, 55.13916%, 29.685974%)" offset="0.945313"/><stop stop-opacity="1" stop-color="rgb(100%, 55.441284%, 29.774475%)" offset="0.953125"/><stop stop-opacity="1" stop-color="rgb(100%, 55.744934%, 29.86145%)" offset="0.960938"/><stop stop-opacity="1" stop-color="rgb(100%, 56.047058%, 29.949951%)" offset="0.96875"/><stop stop-opacity="1" stop-color="rgb(100%, 56.349182%, 30.038452%)" offset="0.976562"/><stop stop-opacity="1" stop-color="rgb(100%, 56.651306%, 30.126953%)" offset="0.984375"/><stop stop-opacity="1" stop-color="rgb(100%, 56.851196%, 30.184937%)" offset="1"/></linearGradient></defs><g clip-path="url(#e1f242a3dc)"><path fill="#ffffff" d="M 0.585938 0 L 221.414062 0 L 221.414062 188.003906 L 0.585938 188.003906 Z M 0.585938 0 " fill-opacity="1" fill-rule="nonzero"/><path fill="#ffffff" d="M 0.585938 0 L 221.414062 0 L 221.414062 188.003906 L 0.585938 188.003906 Z M 0.585938 0 " fill-opacity="1" fill-rule="nonzero"/></g><g clip-path="url(#19ac3dedf3)"><g clip-path="url(#3de3a7df96)"><path fill="#99d9d5" d="M 44.246094 141.277344 L 183.234375 141.277344 L 183.234375 168.457031 L 44.246094 168.457031 Z M 44.246094 141.277344 " fill-opacity="1" fill-rule="nonzero"/></g></g><g fill="#00384d" fill-opacity="1"><g transform="translate(55.331731, 159.070684)"><g><path d="M 1.9375 0 L 0.34375 0 L 3.9375 -9.984375 L 5.671875 -9.984375 L 9.265625 0 L 7.65625 0 L 4.84375 -8.171875 L 4.765625 -8.171875 Z M 2.203125 -3.90625 L 7.390625 -3.90625 L 7.390625 -2.640625 L 2.203125 -2.640625 Z M 2.203125 -3.90625 "/></g></g></g><g fill="#00384d" fill-opacity="1"><g transform="translate(64.925227, 159.070684)"><g><path d="M 0.984375 2.8125 L 0.984375 -7.484375 L 2.40625 -7.484375 L 2.40625 -6.265625 L 2.53125 -6.265625 C 2.613281 -6.421875 2.734375 -6.601562 2.890625 -6.8125 C 3.046875 -7.019531 3.265625 -7.195312 3.546875 -7.34375 C 3.828125 -7.5 4.203125 -7.578125 4.671875 -7.578125 C 5.273438 -7.578125 5.8125 -7.425781 6.28125 -7.125 C 6.757812 -6.820312 7.132812 -6.378906 7.40625 -5.796875 C 7.675781 -5.222656 7.8125 -4.535156 7.8125 -3.734375 C 7.8125 -2.921875 7.675781 -2.222656 7.40625 -1.640625 C 7.132812 -1.066406 6.765625 -0.625 6.296875 -0.3125 C 5.828125 -0.0078125 5.289062 0.140625 4.6875 0.140625 C 4.226562 0.140625 3.851562 0.0664062 3.5625 -0.078125 C 3.28125 -0.234375 3.054688 -0.410156 2.890625 -0.609375 C 2.734375 -0.816406 2.613281 -1.003906 2.53125 -1.171875 L 2.4375 -1.171875 L 2.4375 2.8125 Z M 2.40625 -3.734375 C 2.40625 -3.210938 2.476562 -2.753906 2.625 -2.359375 C 2.78125 -1.960938 3.003906 -1.648438 3.296875 -1.421875 C 3.585938 -1.203125 3.941406 -1.09375 4.359375 -1.09375 C 4.796875 -1.09375 5.160156 -1.207031 5.453125 -1.4375 C 5.742188 -1.675781 5.960938 -1.992188 6.109375 -2.390625 C 6.265625 -2.785156 6.34375 -3.234375 6.34375 -3.734375 C 6.34375 -4.234375 6.269531 -4.675781 6.125 -5.0625 C 5.976562 -5.457031 5.753906 -5.769531 5.453125 -6 C 5.160156 -6.226562 4.796875 -6.34375 4.359375 -6.34375 C 3.941406 -6.34375 3.585938 -6.234375 3.296875 -6.015625 C 3.003906 -5.796875 2.78125 -5.488281 2.625 -5.09375 C 2.476562 -4.707031 2.40625 -4.253906 2.40625 -3.734375 Z M 2.40625 -3.734375 "/></g></g></g><g fill="#00384d" fill-opacity="1"><g transform="translate(73.384635, 159.070684)"><g><path d="M 0.984375 2.8125 L 0.984375 -7.484375 L 2.40625 -7.484375 L 2.40625 -6.265625 L 2.53125 -6.265625 C 2.613281 -6.421875 2.734375 -6.601562 2.890625 -6.8125 C 3.046875 -7.019531 3.265625 -7.195312 3.546875 -7.34375 C 3.828125 -7.5 4.203125 -7.578125 4.671875 -7.578125 C 5.273438 -7.578125 5.8125 -7.425781 6.28125 -7.125 C 6.757812 -6.820312 7.132812 -6.378906 7.40625 -5.796875 C 7.675781 -5.222656 7.8125 -4.535156 7.8125 -3.734375 C 7.8125 -2.921875 7.675781 -2.222656 7.40625 -1.640625 C 7.132812 -1.066406 6.765625 -0.625 6.296875 -0.3125 C 5.828125 -0.0078125 5.289062 0.140625 4.6875 0.140625 C 4.226562 0.140625 3.851562 0.0664062 3.5625 -0.078125 C 3.28125 -0.234375 3.054688 -0.410156 2.890625 -0.609375 C 2.734375 -0.816406 2.613281 -1.003906 2.53125 -1.171875 L 2.4375 -1.171875 L 2.4375 2.8125 Z M 2.40625 -3.734375 C 2.40625 -3.210938 2.476562 -2.753906 2.625 -2.359375 C 2.78125 -1.960938 3.003906 -1.648438 3.296875 -1.421875 C 3.585938 -1.203125 3.941406 -1.09375 4.359375 -1.09375 C 4.796875 -1.09375 5.160156 -1.207031 5.453125 -1.4375 C 5.742188 -1.675781 5.960938 -1.992188 6.109375 -2.390625 C 6.265625 -2.785156 6.34375 -3.234375 6.34375 -3.734375 C 6.34375 -4.234375 6.269531 -4.675781 6.125 -5.0625 C 5.976562 -5.457031 5.753906 -5.769531 5.453125 -6 C 5.160156 -6.226562 4.796875 -6.34375 4.359375 -6.34375 C 3.941406 -6.34375 3.585938 -6.234375 3.296875 -6.015625 C 3.003906 -5.796875 2.78125 -5.488281 2.625 -5.09375 C 2.476562 -4.707031 2.40625 -4.253906 2.40625 -3.734375 Z M 2.40625 -3.734375 "/></g></g></g><g fill="#00384d" fill-opacity="1"><g transform="translate(81.844043, 159.070684)"><g><path d="M 2.4375 -9.984375 L 2.4375 0 L 0.984375 0 L 0.984375 -9.984375 Z M 2.4375 -9.984375 "/></g></g></g><g fill="#00384d" fill-opacity="1"><g transform="translate(85.25604, 159.070684)"><g><path d="M 1.90625 2.8125 C 1.6875 2.8125 1.484375 2.789062 1.296875 2.75 C 1.117188 2.71875 0.988281 2.679688 0.90625 2.640625 L 1.25 1.453125 C 1.519531 1.523438 1.757812 1.554688 1.96875 1.546875 C 2.175781 1.535156 2.359375 1.457031 2.515625 1.3125 C 2.679688 1.164062 2.828125 0.925781 2.953125 0.59375 L 3.125 0.09375 L 0.390625 -7.484375 L 1.953125 -7.484375 L 3.84375 -1.671875 L 3.921875 -1.671875 L 5.8125 -7.484375 L 7.375 -7.484375 L 4.296875 1 C 4.148438 1.382812 3.96875 1.710938 3.75 1.984375 C 3.53125 2.253906 3.265625 2.457031 2.953125 2.59375 C 2.648438 2.738281 2.300781 2.8125 1.90625 2.8125 Z M 1.90625 2.8125 "/></g></g></g><g fill="#00384d" fill-opacity="1"><g transform="translate(93.019425, 159.070684)"><g/></g></g><g fill="#00384d" fill-opacity="1"><g transform="translate(96.650449, 159.070684)"><g><path d="M 1.09375 0 L 1.09375 -9.984375 L 7.28125 -9.984375 L 7.28125 -8.6875 L 2.59375 -8.6875 L 2.59375 -5.640625 L 6.84375 -5.640625 L 6.84375 -4.34375 L 2.59375 -4.34375 L 2.59375 0 Z M 1.09375 0 "/></g></g></g><g fill="#00384d" fill-opacity="1"><g transform="translate(104.681535, 159.070684)"><g><path d="M 4.125 0.15625 C 3.425781 0.15625 2.816406 -0.00390625 2.296875 -0.328125 C 1.773438 -0.648438 1.367188 -1.097656 1.078125 -1.671875 C 0.785156 -2.253906 0.640625 -2.929688 0.640625 -3.703125 C 0.640625 -4.484375 0.785156 -5.160156 1.078125 -5.734375 C 1.367188 -6.316406 1.773438 -6.769531 2.296875 -7.09375 C 2.816406 -7.414062 3.425781 -7.578125 4.125 -7.578125 C 4.832031 -7.578125 5.445312 -7.414062 5.96875 -7.09375 C 6.488281 -6.769531 6.894531 -6.316406 7.1875 -5.734375 C 7.476562 -5.160156 7.625 -4.484375 7.625 -3.703125 C 7.625 -2.929688 7.476562 -2.253906 7.1875 -1.671875 C 6.894531 -1.097656 6.488281 -0.648438 5.96875 -0.328125 C 5.445312 -0.00390625 4.832031 0.15625 4.125 0.15625 Z M 4.140625 -1.078125 C 4.585938 -1.078125 4.960938 -1.195312 5.265625 -1.4375 C 5.566406 -1.675781 5.785156 -1.992188 5.921875 -2.390625 C 6.066406 -2.785156 6.140625 -3.226562 6.140625 -3.71875 C 6.140625 -4.1875 6.066406 -4.617188 5.921875 -5.015625 C 5.785156 -5.421875 5.566406 -5.742188 5.265625 -5.984375 C 4.960938 -6.234375 4.585938 -6.359375 4.140625 -6.359375 C 3.679688 -6.359375 3.300781 -6.234375 3 -5.984375 C 2.695312 -5.742188 2.472656 -5.421875 2.328125 -5.015625 C 2.179688 -4.617188 2.109375 -4.1875 2.109375 -3.71875 C 2.109375 -3.226562 2.179688 -2.785156 2.328125 -2.390625 C 2.472656 -1.992188 2.695312 -1.675781 3 -1.4375 C 3.300781 -1.195312 3.679688 -1.078125 4.140625 -1.078125 Z M 4.140625 -1.078125 "/></g></g></g><g fill="#00384d" fill-opacity="1"><g transform="translate(112.936516, 159.070684)"><g><path d="M 0.984375 0 L 0.984375 -7.484375 L 2.390625 -7.484375 L 2.390625 -6.296875 L 2.46875 -6.296875 C 2.601562 -6.691406 2.84375 -7.003906 3.1875 -7.234375 C 3.53125 -7.472656 3.921875 -7.59375 4.359375 -7.59375 C 4.453125 -7.59375 4.5625 -7.585938 4.6875 -7.578125 C 4.8125 -7.578125 4.910156 -7.570312 4.984375 -7.5625 L 4.984375 -6.171875 C 4.921875 -6.179688 4.816406 -6.195312 4.671875 -6.21875 C 4.523438 -6.238281 4.375 -6.25 4.21875 -6.25 C 3.875 -6.25 3.566406 -6.175781 3.296875 -6.03125 C 3.035156 -5.894531 2.828125 -5.695312 2.671875 -5.4375 C 2.515625 -5.1875 2.4375 -4.894531 2.4375 -4.5625 L 2.4375 0 Z M 0.984375 0 "/></g></g></g><g fill="#00384d" fill-opacity="1"><g transform="translate(118.202954, 159.070684)"><g/></g></g><g fill="#00384d" fill-opacity="1"><g transform="translate(121.833978, 159.070684)"><g><path d="M 1.09375 0 L 1.09375 -9.984375 L 2.59375 -9.984375 L 2.59375 -1.296875 L 7.125 -1.296875 L 7.125 0 Z M 1.09375 0 "/></g></g></g><g fill="#00384d" fill-opacity="1"><g transform="translate(129.568155, 159.070684)"><g><path d="M 4.125 0.15625 C 3.425781 0.15625 2.816406 -0.00390625 2.296875 -0.328125 C 1.773438 -0.648438 1.367188 -1.097656 1.078125 -1.671875 C 0.785156 -2.253906 0.640625 -2.929688 0.640625 -3.703125 C 0.640625 -4.484375 0.785156 -5.160156 1.078125 -5.734375 C 1.367188 -6.316406 1.773438 -6.769531 2.296875 -7.09375 C 2.816406 -7.414062 3.425781 -7.578125 4.125 -7.578125 C 4.832031 -7.578125 5.445312 -7.414062 5.96875 -7.09375 C 6.488281 -6.769531 6.894531 -6.316406 7.1875 -5.734375 C 7.476562 -5.160156 7.625 -4.484375 7.625 -3.703125 C 7.625 -2.929688 7.476562 -2.253906 7.1875 -1.671875 C 6.894531 -1.097656 6.488281 -0.648438 5.96875 -0.328125 C 5.445312 -0.00390625 4.832031 0.15625 4.125 0.15625 Z M 4.140625 -1.078125 C 4.585938 -1.078125 4.960938 -1.195312 5.265625 -1.4375 C 5.566406 -1.675781 5.785156 -1.992188 5.921875 -2.390625 C 6.066406 -2.785156 6.140625 -3.226562 6.140625 -3.71875 C 6.140625 -4.1875 6.066406 -4.617188 5.921875 -5.015625 C 5.785156 -5.421875 5.566406 -5.742188 5.265625 -5.984375 C 4.960938 -6.234375 4.585938 -6.359375 4.140625 -6.359375 C 3.679688 -6.359375 3.300781 -6.234375 3 -5.984375 C 2.695312 -5.742188 2.472656 -5.421875 2.328125 -5.015625 C 2.179688 -4.617188 2.109375 -4.1875 2.109375 -3.71875 C 2.109375 -3.226562 2.179688 -2.785156 2.328125 -2.390625 C 2.472656 -1.992188 2.695312 -1.675781 3 -1.4375 C 3.300781 -1.195312 3.679688 -1.078125 4.140625 -1.078125 Z M 4.140625 -1.078125 "/></g></g></g><g fill="#00384d" fill-opacity="1"><g transform="translate(137.823135, 159.070684)"><g><path d="M 3.15625 0.171875 C 2.6875 0.171875 2.257812 0.0820312 1.875 -0.09375 C 1.488281 -0.269531 1.179688 -0.523438 0.953125 -0.859375 C 0.734375 -1.203125 0.625 -1.617188 0.625 -2.109375 C 0.625 -2.535156 0.703125 -2.882812 0.859375 -3.15625 C 1.023438 -3.425781 1.242188 -3.640625 1.515625 -3.796875 C 1.796875 -3.960938 2.109375 -4.082031 2.453125 -4.15625 C 2.796875 -4.238281 3.144531 -4.300781 3.5 -4.34375 C 3.945312 -4.394531 4.3125 -4.4375 4.59375 -4.46875 C 4.875 -4.507812 5.078125 -4.566406 5.203125 -4.640625 C 5.328125 -4.722656 5.390625 -4.851562 5.390625 -5.03125 L 5.390625 -5.0625 C 5.390625 -5.488281 5.269531 -5.816406 5.03125 -6.046875 C 4.789062 -6.285156 4.4375 -6.40625 3.96875 -6.40625 C 3.476562 -6.40625 3.09375 -6.296875 2.8125 -6.078125 C 2.53125 -5.859375 2.332031 -5.617188 2.21875 -5.359375 L 0.859375 -5.671875 C 1.015625 -6.128906 1.25 -6.5 1.5625 -6.78125 C 1.882812 -7.0625 2.25 -7.265625 2.65625 -7.390625 C 3.0625 -7.515625 3.492188 -7.578125 3.953125 -7.578125 C 4.242188 -7.578125 4.554688 -7.539062 4.890625 -7.46875 C 5.234375 -7.40625 5.550781 -7.28125 5.84375 -7.09375 C 6.132812 -6.90625 6.375 -6.640625 6.5625 -6.296875 C 6.75 -5.953125 6.84375 -5.507812 6.84375 -4.96875 L 6.84375 0 L 5.421875 0 L 5.421875 -1.015625 L 5.375 -1.015625 C 5.28125 -0.828125 5.132812 -0.640625 4.9375 -0.453125 C 4.75 -0.273438 4.507812 -0.125 4.21875 0 C 3.925781 0.113281 3.570312 0.171875 3.15625 0.171875 Z M 3.46875 -1 C 3.875 -1 4.21875 -1.078125 4.5 -1.234375 C 4.789062 -1.398438 5.007812 -1.609375 5.15625 -1.859375 C 5.3125 -2.117188 5.390625 -2.398438 5.390625 -2.703125 L 5.390625 -3.65625 C 5.335938 -3.601562 5.238281 -3.554688 5.09375 -3.515625 C 4.945312 -3.472656 4.78125 -3.4375 4.59375 -3.40625 C 4.40625 -3.375 4.21875 -3.34375 4.03125 -3.3125 C 3.851562 -3.289062 3.707031 -3.273438 3.59375 -3.265625 C 3.3125 -3.222656 3.050781 -3.160156 2.8125 -3.078125 C 2.582031 -2.992188 2.398438 -2.875 2.265625 -2.71875 C 2.128906 -2.5625 2.0625 -2.351562 2.0625 -2.09375 C 2.0625 -1.726562 2.191406 -1.453125 2.453125 -1.265625 C 2.722656 -1.085938 3.0625 -1 3.46875 -1 Z M 3.46875 -1 "/></g></g></g><g fill="#00384d" fill-opacity="1"><g transform="translate(145.625451, 159.070684)"><g><path d="M 2.4375 -4.4375 L 2.4375 0 L 0.984375 0 L 0.984375 -7.484375 L 2.375 -7.484375 L 2.375 -6.265625 L 2.46875 -6.265625 C 2.644531 -6.660156 2.914062 -6.976562 3.28125 -7.21875 C 3.644531 -7.457031 4.109375 -7.578125 4.671875 -7.578125 C 5.179688 -7.578125 5.628906 -7.46875 6.015625 -7.25 C 6.398438 -7.039062 6.695312 -6.726562 6.90625 -6.3125 C 7.113281 -5.894531 7.21875 -5.378906 7.21875 -4.765625 L 7.21875 0 L 5.765625 0 L 5.765625 -4.578125 C 5.765625 -5.117188 5.625 -5.539062 5.34375 -5.84375 C 5.0625 -6.15625 4.675781 -6.3125 4.1875 -6.3125 C 3.84375 -6.3125 3.539062 -6.238281 3.28125 -6.09375 C 3.019531 -5.945312 2.8125 -5.734375 2.65625 -5.453125 C 2.507812 -5.171875 2.4375 -4.832031 2.4375 -4.4375 Z M 2.4375 -4.4375 "/></g></g></g><g fill="#00384d" fill-opacity="1"><g transform="translate(153.812292, 159.070684)"><g><path d="M 6.59375 -5.65625 L 5.265625 -5.421875 C 5.210938 -5.585938 5.125 -5.75 5 -5.90625 C 4.882812 -6.0625 4.722656 -6.1875 4.515625 -6.28125 C 4.316406 -6.375 4.066406 -6.421875 3.765625 -6.421875 C 3.359375 -6.421875 3.015625 -6.328125 2.734375 -6.140625 C 2.460938 -5.960938 2.328125 -5.726562 2.328125 -5.4375 C 2.328125 -5.1875 2.414062 -4.984375 2.59375 -4.828125 C 2.78125 -4.679688 3.082031 -4.5625 3.5 -4.46875 L 4.6875 -4.1875 C 5.375 -4.03125 5.882812 -3.785156 6.21875 -3.453125 C 6.5625 -3.117188 6.734375 -2.6875 6.734375 -2.15625 C 6.734375 -1.707031 6.601562 -1.304688 6.34375 -0.953125 C 6.082031 -0.609375 5.722656 -0.335938 5.265625 -0.140625 C 4.804688 0.0546875 4.273438 0.15625 3.671875 0.15625 C 2.835938 0.15625 2.15625 -0.0195312 1.625 -0.375 C 1.09375 -0.738281 0.765625 -1.253906 0.640625 -1.921875 L 2.0625 -2.140625 C 2.144531 -1.765625 2.320312 -1.484375 2.59375 -1.296875 C 2.863281 -1.109375 3.21875 -1.015625 3.65625 -1.015625 C 4.132812 -1.015625 4.515625 -1.113281 4.796875 -1.3125 C 5.085938 -1.519531 5.234375 -1.769531 5.234375 -2.0625 C 5.234375 -2.289062 5.144531 -2.484375 4.96875 -2.640625 C 4.800781 -2.804688 4.539062 -2.925781 4.1875 -3 L 2.90625 -3.28125 C 2.207031 -3.4375 1.691406 -3.6875 1.359375 -4.03125 C 1.023438 -4.382812 0.859375 -4.828125 0.859375 -5.359375 C 0.859375 -5.804688 0.984375 -6.191406 1.234375 -6.515625 C 1.484375 -6.847656 1.820312 -7.109375 2.25 -7.296875 C 2.6875 -7.484375 3.1875 -7.578125 3.75 -7.578125 C 4.5625 -7.578125 5.195312 -7.398438 5.65625 -7.046875 C 6.125 -6.703125 6.4375 -6.238281 6.59375 -5.65625 Z M 6.59375 -5.65625 "/></g></g></g><path stroke-linecap="butt" transform="matrix(0.746053, 0, 0, 0.746053, 161.944082, 154.494593)" fill="none" stroke-linejoin="miter" d="M 0.00164974 0.499421 L 13.258925 0.499421 " stroke="#00384d" stroke-width="1" stroke-opacity="1" stroke-miterlimit="4"/><path stroke-linecap="round" transform="matrix(0.746053, 0, 0, 0.746053, 161.944082, 154.494593)" fill="none" stroke-linejoin="round" d="M 11.258815 -0.998044 L 13.258925 0.499421 L 11.258815 2.002121 " stroke="#00384d" stroke-width="1" stroke-opacity="1" stroke-miterlimit="4"/><g clip-path="url(#c43728ccd3)"><g clip-path="url(#dc42b9c8f4)"><path fill="#00384d" d="M 119.929688 18.800781 L 209.300781 18.800781 L 209.300781 42.683594 L 119.929688 42.683594 Z M 119.929688 18.800781 " fill-opacity="1" fill-rule="nonzero"/></g></g><g fill="#ffffff" fill-opacity="1"><g transform="translate(139.324423, 35.118271)"><g><path d="M 1.390625 0 L 0.296875 0 L 3.46875 -8.609375 L 4.53125 -8.609375 L 7.6875 0 L 6.609375 0 L 5.734375 -2.4375 L 2.265625 -2.4375 Z M 2.59375 -3.359375 L 5.40625 -3.359375 L 4.03125 -7.234375 L 3.96875 -7.234375 Z M 2.59375 -3.359375 "/></g></g></g><g fill="#ffffff" fill-opacity="1"><g transform="translate(147.316689, 35.118271)"><g><path d="M 6.1875 -6.453125 L 3.796875 0 L 2.78125 0 L 0.40625 -6.453125 L 1.484375 -6.453125 L 3.265625 -1.3125 L 3.328125 -1.3125 L 5.109375 -6.453125 Z M 6.1875 -6.453125 "/></g></g></g><g fill="#ffffff" fill-opacity="1"><g transform="translate(153.898563, 35.118271)"><g><path d="M 2.8125 0.15625 C 2.394531 0.15625 2.019531 0.078125 1.6875 -0.078125 C 1.351562 -0.234375 1.085938 -0.457031 0.890625 -0.75 C 0.703125 -1.050781 0.609375 -1.410156 0.609375 -1.828125 C 0.609375 -2.203125 0.679688 -2.503906 0.828125 -2.734375 C 0.972656 -2.960938 1.164062 -3.140625 1.40625 -3.265625 C 1.644531 -3.398438 1.910156 -3.5 2.203125 -3.5625 C 2.503906 -3.632812 2.804688 -3.691406 3.109375 -3.734375 C 3.503906 -3.785156 3.820312 -3.820312 4.0625 -3.84375 C 4.3125 -3.875 4.488281 -3.921875 4.59375 -3.984375 C 4.707031 -4.046875 4.765625 -4.15625 4.765625 -4.3125 L 4.765625 -4.34375 C 4.765625 -4.757812 4.648438 -5.082031 4.421875 -5.3125 C 4.203125 -5.539062 3.863281 -5.65625 3.40625 -5.65625 C 2.9375 -5.65625 2.566406 -5.550781 2.296875 -5.34375 C 2.023438 -5.144531 1.835938 -4.925781 1.734375 -4.6875 L 0.796875 -5.03125 C 0.960938 -5.414062 1.1875 -5.71875 1.46875 -5.9375 C 1.75 -6.15625 2.054688 -6.304688 2.390625 -6.390625 C 2.722656 -6.484375 3.050781 -6.53125 3.375 -6.53125 C 3.582031 -6.53125 3.820312 -6.503906 4.09375 -6.453125 C 4.363281 -6.410156 4.625 -6.3125 4.875 -6.15625 C 5.132812 -6.007812 5.347656 -5.78125 5.515625 -5.46875 C 5.679688 -5.164062 5.765625 -4.757812 5.765625 -4.25 L 5.765625 0 L 4.765625 0 L 4.765625 -0.875 L 4.71875 -0.875 C 4.65625 -0.726562 4.546875 -0.578125 4.390625 -0.421875 C 4.234375 -0.265625 4.023438 -0.128906 3.765625 -0.015625 C 3.503906 0.0976562 3.1875 0.15625 2.8125 0.15625 Z M 2.953125 -0.734375 C 3.347656 -0.734375 3.679688 -0.8125 3.953125 -0.96875 C 4.222656 -1.125 4.425781 -1.320312 4.5625 -1.5625 C 4.695312 -1.8125 4.765625 -2.066406 4.765625 -2.328125 L 4.765625 -3.25 C 4.722656 -3.195312 4.628906 -3.148438 4.484375 -3.109375 C 4.347656 -3.066406 4.1875 -3.03125 4 -3 C 3.820312 -2.96875 3.644531 -2.941406 3.46875 -2.921875 C 3.300781 -2.898438 3.164062 -2.882812 3.0625 -2.875 C 2.800781 -2.84375 2.554688 -2.785156 2.328125 -2.703125 C 2.109375 -2.628906 1.929688 -2.519531 1.796875 -2.375 C 1.660156 -2.226562 1.59375 -2.03125 1.59375 -1.78125 C 1.59375 -1.4375 1.71875 -1.175781 1.96875 -1 C 2.226562 -0.820312 2.554688 -0.734375 2.953125 -0.734375 Z M 2.953125 -0.734375 "/></g></g></g><g fill="#ffffff" fill-opacity="1"><g transform="translate(160.564382, 35.118271)"><g><path d="M 0.90625 0 L 0.90625 -6.453125 L 1.90625 -6.453125 L 1.90625 0 Z M 1.40625 -7.53125 C 1.21875 -7.53125 1.050781 -7.59375 0.90625 -7.71875 C 0.769531 -7.851562 0.703125 -8.015625 0.703125 -8.203125 C 0.703125 -8.378906 0.769531 -8.535156 0.90625 -8.671875 C 1.050781 -8.804688 1.21875 -8.875 1.40625 -8.875 C 1.601562 -8.875 1.769531 -8.804688 1.90625 -8.671875 C 2.039062 -8.535156 2.109375 -8.378906 2.109375 -8.203125 C 2.109375 -8.015625 2.039062 -7.851562 1.90625 -7.71875 C 1.769531 -7.59375 1.601562 -7.53125 1.40625 -7.53125 Z M 1.40625 -7.53125 "/></g></g></g><g fill="#ffffff" fill-opacity="1"><g transform="translate(163.368397, 35.118271)"><g><path d="M 1.90625 -8.609375 L 1.90625 0 L 0.90625 0 L 0.90625 -8.609375 Z M 1.90625 -8.609375 "/></g></g></g><g fill="#ffffff" fill-opacity="1"><g transform="translate(166.172413, 35.118271)"><g><path d="M 2.8125 0.15625 C 2.394531 0.15625 2.019531 0.078125 1.6875 -0.078125 C 1.351562 -0.234375 1.085938 -0.457031 0.890625 -0.75 C 0.703125 -1.050781 0.609375 -1.410156 0.609375 -1.828125 C 0.609375 -2.203125 0.679688 -2.503906 0.828125 -2.734375 C 0.972656 -2.960938 1.164062 -3.140625 1.40625 -3.265625 C 1.644531 -3.398438 1.910156 -3.5 2.203125 -3.5625 C 2.503906 -3.632812 2.804688 -3.691406 3.109375 -3.734375 C 3.503906 -3.785156 3.820312 -3.820312 4.0625 -3.84375 C 4.3125 -3.875 4.488281 -3.921875 4.59375 -3.984375 C 4.707031 -4.046875 4.765625 -4.15625 4.765625 -4.3125 L 4.765625 -4.34375 C 4.765625 -4.757812 4.648438 -5.082031 4.421875 -5.3125 C 4.203125 -5.539062 3.863281 -5.65625 3.40625 -5.65625 C 2.9375 -5.65625 2.566406 -5.550781 2.296875 -5.34375 C 2.023438 -5.144531 1.835938 -4.925781 1.734375 -4.6875 L 0.796875 -5.03125 C 0.960938 -5.414062 1.1875 -5.71875 1.46875 -5.9375 C 1.75 -6.15625 2.054688 -6.304688 2.390625 -6.390625 C 2.722656 -6.484375 3.050781 -6.53125 3.375 -6.53125 C 3.582031 -6.53125 3.820312 -6.503906 4.09375 -6.453125 C 4.363281 -6.410156 4.625 -6.3125 4.875 -6.15625 C 5.132812 -6.007812 5.347656 -5.78125 5.515625 -5.46875 C 5.679688 -5.164062 5.765625 -4.757812 5.765625 -4.25 L 5.765625 0 L 4.765625 0 L 4.765625 -0.875 L 4.71875 -0.875 C 4.65625 -0.726562 4.546875 -0.578125 4.390625 -0.421875 C 4.234375 -0.265625 4.023438 -0.128906 3.765625 -0.015625 C 3.503906 0.0976562 3.1875 0.15625 2.8125 0.15625 Z M 2.953125 -0.734375 C 3.347656 -0.734375 3.679688 -0.8125 3.953125 -0.96875 C 4.222656 -1.125 4.425781 -1.320312 4.5625 -1.5625 C 4.695312 -1.8125 4.765625 -2.066406 4.765625 -2.328125 L 4.765625 -3.25 C 4.722656 -3.195312 4.628906 -3.148438 4.484375 -3.109375 C 4.347656 -3.066406 4.1875 -3.03125 4 -3 C 3.820312 -2.96875 3.644531 -2.941406 3.46875 -2.921875 C 3.300781 -2.898438 3.164062 -2.882812 3.0625 -2.875 C 2.800781 -2.84375 2.554688 -2.785156 2.328125 -2.703125 C 2.109375 -2.628906 1.929688 -2.519531 1.796875 -2.375 C 1.660156 -2.226562 1.59375 -2.03125 1.59375 -1.78125 C 1.59375 -1.4375 1.71875 -1.175781 1.96875 -1 C 2.226562 -0.820312 2.554688 -0.734375 2.953125 -0.734375 Z M 2.953125 -0.734375 "/></g></g></g><g fill="#ffffff" fill-opacity="1"><g transform="translate(172.838231, 35.118271)"><g><path d="M 1.046875 0 L 1.046875 -8.609375 L 2.03125 -8.609375 L 2.03125 -5.421875 L 2.109375 -5.421875 C 2.179688 -5.535156 2.28125 -5.679688 2.40625 -5.859375 C 2.539062 -6.035156 2.734375 -6.191406 2.984375 -6.328125 C 3.234375 -6.460938 3.566406 -6.53125 3.984375 -6.53125 C 4.523438 -6.53125 5.003906 -6.394531 5.421875 -6.125 C 5.835938 -5.851562 6.160156 -5.46875 6.390625 -4.96875 C 6.617188 -4.46875 6.734375 -3.878906 6.734375 -3.203125 C 6.734375 -2.523438 6.617188 -1.9375 6.390625 -1.4375 C 6.160156 -0.9375 5.835938 -0.546875 5.421875 -0.265625 C 5.015625 0.00390625 4.539062 0.140625 4 0.140625 C 3.582031 0.140625 3.25 0.0703125 3 -0.0625 C 2.75 -0.207031 2.554688 -0.367188 2.421875 -0.546875 C 2.285156 -0.722656 2.179688 -0.867188 2.109375 -0.984375 L 2 -0.984375 L 2 0 Z M 2.015625 -3.21875 C 2.015625 -2.488281 2.171875 -1.894531 2.484375 -1.4375 C 2.804688 -0.976562 3.265625 -0.75 3.859375 -0.75 C 4.273438 -0.75 4.625 -0.859375 4.90625 -1.078125 C 5.1875 -1.304688 5.394531 -1.601562 5.53125 -1.96875 C 5.675781 -2.34375 5.75 -2.757812 5.75 -3.21875 C 5.75 -3.675781 5.675781 -4.085938 5.53125 -4.453125 C 5.394531 -4.816406 5.1875 -5.101562 4.90625 -5.3125 C 4.632812 -5.53125 4.285156 -5.640625 3.859375 -5.640625 C 3.253906 -5.640625 2.796875 -5.414062 2.484375 -4.96875 C 2.171875 -4.53125 2.015625 -3.945312 2.015625 -3.21875 Z M 2.015625 -3.21875 "/></g></g></g><g fill="#ffffff" fill-opacity="1"><g transform="translate(180.175675, 35.118271)"><g><path d="M 1.90625 -8.609375 L 1.90625 0 L 0.90625 0 L 0.90625 -8.609375 Z M 1.90625 -8.609375 "/></g></g></g><g fill="#ffffff" fill-opacity="1"><g transform="translate(182.97969, 35.118271)"><g><path d="M 3.609375 0.140625 C 2.992188 0.140625 2.457031 0.00390625 2 -0.265625 C 1.550781 -0.546875 1.207031 -0.9375 0.96875 -1.4375 C 0.726562 -1.9375 0.609375 -2.515625 0.609375 -3.171875 C 0.609375 -3.835938 0.726562 -4.421875 0.96875 -4.921875 C 1.207031 -5.429688 1.546875 -5.828125 1.984375 -6.109375 C 2.421875 -6.390625 2.929688 -6.53125 3.515625 -6.53125 C 3.847656 -6.53125 4.175781 -6.472656 4.5 -6.359375 C 4.832031 -6.253906 5.132812 -6.078125 5.40625 -5.828125 C 5.675781 -5.578125 5.890625 -5.242188 6.046875 -4.828125 C 6.203125 -4.421875 6.28125 -3.914062 6.28125 -3.3125 L 6.28125 -2.890625 L 1.59375 -2.890625 C 1.625 -2.203125 1.820312 -1.671875 2.1875 -1.296875 C 2.550781 -0.929688 3.023438 -0.75 3.609375 -0.75 C 4.003906 -0.75 4.335938 -0.832031 4.609375 -1 C 4.890625 -1.175781 5.09375 -1.429688 5.21875 -1.765625 L 6.1875 -1.5 C 6.03125 -1.007812 5.722656 -0.613281 5.265625 -0.3125 C 4.816406 -0.0078125 4.265625 0.140625 3.609375 0.140625 Z M 1.59375 -3.75 L 5.28125 -3.75 C 5.28125 -4.289062 5.117188 -4.738281 4.796875 -5.09375 C 4.472656 -5.457031 4.046875 -5.640625 3.515625 -5.640625 C 3.128906 -5.640625 2.796875 -5.550781 2.515625 -5.375 C 2.242188 -5.195312 2.03125 -4.960938 1.875 -4.671875 C 1.71875 -4.390625 1.625 -4.082031 1.59375 -3.75 Z M 1.59375 -3.75 "/></g></g></g><g fill="#00384d" fill-opacity="1"><g transform="translate(13.183833, 35.169073)"><g><path d="M 1.015625 0 L 1.015625 -11.421875 L 5.015625 -11.421875 C 6.398438 -11.421875 7.453125 -11.15625 8.171875 -10.625 C 8.890625 -10.09375 9.25 -9.316406 9.25 -8.296875 C 9.25 -7.734375 9.101562 -7.238281 8.8125 -6.8125 C 8.53125 -6.382812 8.128906 -6.070312 7.609375 -5.875 C 8.203125 -5.726562 8.664062 -5.429688 9 -4.984375 C 9.332031 -4.546875 9.5 -4.003906 9.5 -3.359375 C 9.5 -2.253906 9.148438 -1.421875 8.453125 -0.859375 C 7.753906 -0.296875 6.753906 -0.0078125 5.453125 0 Z M 3.375 -4.96875 L 3.375 -1.890625 L 5.390625 -1.890625 C 5.941406 -1.890625 6.375 -2.019531 6.6875 -2.28125 C 7 -2.550781 7.15625 -2.914062 7.15625 -3.375 C 7.15625 -4.425781 6.613281 -4.957031 5.53125 -4.96875 Z M 3.375 -6.640625 L 5.109375 -6.640625 C 6.296875 -6.660156 6.890625 -7.132812 6.890625 -8.0625 C 6.890625 -8.570312 6.738281 -8.941406 6.4375 -9.171875 C 6.132812 -9.398438 5.660156 -9.515625 5.015625 -9.515625 L 3.375 -9.515625 Z M 3.375 -6.640625 "/></g></g></g><g fill="#00384d" fill-opacity="1"><g transform="translate(23.426817, 35.169073)"><g><path d="M 5.78125 0 C 5.675781 -0.207031 5.601562 -0.460938 5.5625 -0.765625 C 5.007812 -0.148438 4.296875 0.15625 3.421875 0.15625 C 2.585938 0.15625 1.894531 -0.0820312 1.34375 -0.5625 C 0.800781 -1.039062 0.53125 -1.648438 0.53125 -2.390625 C 0.53125 -3.285156 0.863281 -3.972656 1.53125 -4.453125 C 2.195312 -4.929688 3.160156 -5.175781 4.421875 -5.1875 L 5.46875 -5.1875 L 5.46875 -5.671875 C 5.46875 -6.066406 5.363281 -6.378906 5.15625 -6.609375 C 4.957031 -6.847656 4.644531 -6.96875 4.21875 -6.96875 C 3.832031 -6.96875 3.53125 -6.875 3.3125 -6.6875 C 3.09375 -6.507812 2.984375 -6.257812 2.984375 -5.9375 L 0.71875 -5.9375 C 0.71875 -6.425781 0.867188 -6.878906 1.171875 -7.296875 C 1.472656 -7.710938 1.898438 -8.039062 2.453125 -8.28125 C 3.015625 -8.519531 3.640625 -8.640625 4.328125 -8.640625 C 5.367188 -8.640625 6.195312 -8.375 6.8125 -7.84375 C 7.425781 -7.320312 7.734375 -6.585938 7.734375 -5.640625 L 7.734375 -1.953125 C 7.742188 -1.148438 7.859375 -0.546875 8.078125 -0.140625 L 8.078125 0 Z M 3.90625 -1.578125 C 4.25 -1.578125 4.5625 -1.648438 4.84375 -1.796875 C 5.125 -1.953125 5.332031 -2.15625 5.46875 -2.40625 L 5.46875 -3.859375 L 4.625 -3.859375 C 3.488281 -3.859375 2.882812 -3.46875 2.8125 -2.6875 L 2.796875 -2.546875 C 2.796875 -2.265625 2.894531 -2.03125 3.09375 -1.84375 C 3.289062 -1.664062 3.5625 -1.578125 3.90625 -1.578125 Z M 3.90625 -1.578125 "/></g></g></g><g fill="#00384d" fill-opacity="1"><g transform="translate(32.031863, 35.169073)"><g><path d="M 3.265625 0 L 0.984375 0 L 0.984375 -12.046875 L 3.265625 -12.046875 Z M 3.265625 0 "/></g></g></g><g fill="#00384d" fill-opacity="1"><g transform="translate(36.287365, 35.169073)"><g><path d="M 5.78125 0 C 5.675781 -0.207031 5.601562 -0.460938 5.5625 -0.765625 C 5.007812 -0.148438 4.296875 0.15625 3.421875 0.15625 C 2.585938 0.15625 1.894531 -0.0820312 1.34375 -0.5625 C 0.800781 -1.039062 0.53125 -1.648438 0.53125 -2.390625 C 0.53125 -3.285156 0.863281 -3.972656 1.53125 -4.453125 C 2.195312 -4.929688 3.160156 -5.175781 4.421875 -5.1875 L 5.46875 -5.1875 L 5.46875 -5.671875 C 5.46875 -6.066406 5.363281 -6.378906 5.15625 -6.609375 C 4.957031 -6.847656 4.644531 -6.96875 4.21875 -6.96875 C 3.832031 -6.96875 3.53125 -6.875 3.3125 -6.6875 C 3.09375 -6.507812 2.984375 -6.257812 2.984375 -5.9375 L 0.71875 -5.9375 C 0.71875 -6.425781 0.867188 -6.878906 1.171875 -7.296875 C 1.472656 -7.710938 1.898438 -8.039062 2.453125 -8.28125 C 3.015625 -8.519531 3.640625 -8.640625 4.328125 -8.640625 C 5.367188 -8.640625 6.195312 -8.375 6.8125 -7.84375 C 7.425781 -7.320312 7.734375 -6.585938 7.734375 -5.640625 L 7.734375 -1.953125 C 7.742188 -1.148438 7.859375 -0.546875 8.078125 -0.140625 L 8.078125 0 Z M 3.90625 -1.578125 C 4.25 -1.578125 4.5625 -1.648438 4.84375 -1.796875 C 5.125 -1.953125 5.332031 -2.15625 5.46875 -2.40625 L 5.46875 -3.859375 L 4.625 -3.859375 C 3.488281 -3.859375 2.882812 -3.46875 2.8125 -2.6875 L 2.796875 -2.546875 C 2.796875 -2.265625 2.894531 -2.03125 3.09375 -1.84375 C 3.289062 -1.664062 3.5625 -1.578125 3.90625 -1.578125 Z M 3.90625 -1.578125 "/></g></g></g><g fill="#00384d" fill-opacity="1"><g transform="translate(44.892412, 35.169073)"><g><path d="M 2.953125 -8.484375 L 3.03125 -7.5 C 3.632812 -8.257812 4.445312 -8.640625 5.46875 -8.640625 C 6.363281 -8.640625 7.03125 -8.375 7.46875 -7.84375 C 7.914062 -7.320312 8.144531 -6.535156 8.15625 -5.484375 L 8.15625 0 L 5.875 0 L 5.875 -5.421875 C 5.875 -5.910156 5.769531 -6.257812 5.5625 -6.46875 C 5.351562 -6.6875 5.007812 -6.796875 4.53125 -6.796875 C 3.882812 -6.796875 3.40625 -6.523438 3.09375 -5.984375 L 3.09375 0 L 0.828125 0 L 0.828125 -8.484375 Z M 2.953125 -8.484375 "/></g></g></g><g fill="#00384d" fill-opacity="1"><g transform="translate(53.881472, 35.169073)"><g><path d="M 4.40625 -1.671875 C 4.820312 -1.671875 5.160156 -1.785156 5.421875 -2.015625 C 5.679688 -2.242188 5.816406 -2.550781 5.828125 -2.9375 L 7.953125 -2.9375 C 7.941406 -2.363281 7.78125 -1.835938 7.46875 -1.359375 C 7.164062 -0.878906 6.742188 -0.503906 6.203125 -0.234375 C 5.671875 0.0234375 5.082031 0.15625 4.4375 0.15625 C 3.226562 0.15625 2.269531 -0.226562 1.5625 -1 C 0.863281 -1.769531 0.515625 -2.835938 0.515625 -4.203125 L 0.515625 -4.34375 C 0.515625 -5.65625 0.863281 -6.695312 1.5625 -7.46875 C 2.257812 -8.25 3.210938 -8.640625 4.421875 -8.640625 C 5.484375 -8.640625 6.332031 -8.335938 6.96875 -7.734375 C 7.613281 -7.128906 7.941406 -6.328125 7.953125 -5.328125 L 5.828125 -5.328125 C 5.816406 -5.765625 5.679688 -6.117188 5.421875 -6.390625 C 5.160156 -6.671875 4.816406 -6.8125 4.390625 -6.8125 C 3.859375 -6.8125 3.457031 -6.617188 3.1875 -6.234375 C 2.914062 -5.847656 2.78125 -5.222656 2.78125 -4.359375 L 2.78125 -4.125 C 2.78125 -3.25 2.910156 -2.617188 3.171875 -2.234375 C 3.441406 -1.859375 3.851562 -1.671875 4.40625 -1.671875 Z M 4.40625 -1.671875 "/></g></g></g><g fill="#00384d" fill-opacity="1"><g transform="translate(62.251409, 35.169073)"><g><path d="M 4.78125 0.15625 C 3.53125 0.15625 2.515625 -0.222656 1.734375 -0.984375 C 0.953125 -1.753906 0.5625 -2.773438 0.5625 -4.046875 L 0.5625 -4.265625 C 0.5625 -5.109375 0.722656 -5.863281 1.046875 -6.53125 C 1.378906 -7.207031 1.847656 -7.726562 2.453125 -8.09375 C 3.054688 -8.457031 3.75 -8.640625 4.53125 -8.640625 C 5.6875 -8.640625 6.597656 -8.273438 7.265625 -7.546875 C 7.929688 -6.816406 8.265625 -5.78125 8.265625 -4.4375 L 8.265625 -3.5 L 2.859375 -3.5 C 2.929688 -2.945312 3.148438 -2.503906 3.515625 -2.171875 C 3.890625 -1.835938 4.359375 -1.671875 4.921875 -1.671875 C 5.796875 -1.671875 6.476562 -1.988281 6.96875 -2.625 L 8.09375 -1.375 C 7.75 -0.894531 7.285156 -0.519531 6.703125 -0.25 C 6.117188 0.0195312 5.476562 0.15625 4.78125 0.15625 Z M 4.515625 -6.8125 C 4.066406 -6.8125 3.703125 -6.65625 3.421875 -6.34375 C 3.140625 -6.039062 2.960938 -5.609375 2.890625 -5.046875 L 6.046875 -5.046875 L 6.046875 -5.234375 C 6.035156 -5.734375 5.894531 -6.117188 5.625 -6.390625 C 5.363281 -6.671875 4.992188 -6.8125 4.515625 -6.8125 Z M 4.515625 -6.8125 "/></g></g></g><path stroke-linecap="butt" transform="matrix(0.746053, 0, 0, 0.746053, 12.950853, 63.524064)" fill="none" stroke-linejoin="miter" d="M -0.002191 0.501806 L 262.850001 0.501806 " stroke="#00384d" stroke-width="1" stroke-opacity="1" stroke-miterlimit="4"/><g fill="#00384d" fill-opacity="1"><g transform="translate(58.411229, 105.923851)"><g><path d="M 10.015625 -4.859375 C 10.015625 -5.554688 9.820312 -6.109375 9.4375 -6.515625 C 9.0625 -6.921875 8.410156 -7.296875 7.484375 -7.640625 C 6.566406 -7.992188 5.769531 -8.34375 5.09375 -8.6875 C 4.425781 -9.03125 3.851562 -9.421875 3.375 -9.859375 C 2.90625 -10.304688 2.535156 -10.828125 2.265625 -11.421875 C 1.992188 -12.023438 1.859375 -12.742188 1.859375 -13.578125 C 1.859375 -15.003906 2.316406 -16.171875 3.234375 -17.078125 C 4.148438 -17.992188 5.363281 -18.53125 6.875 -18.6875 L 6.875 -21.40625 L 8.90625 -21.40625 L 8.90625 -18.65625 C 10.40625 -18.4375 11.578125 -17.804688 12.421875 -16.765625 C 13.265625 -15.734375 13.6875 -14.394531 13.6875 -12.75 L 10.015625 -12.75 C 10.015625 -13.769531 9.804688 -14.53125 9.390625 -15.03125 C 8.972656 -15.53125 8.414062 -15.78125 7.71875 -15.78125 C 7.019531 -15.78125 6.476562 -15.582031 6.09375 -15.1875 C 5.71875 -14.800781 5.53125 -14.257812 5.53125 -13.5625 C 5.53125 -12.914062 5.710938 -12.398438 6.078125 -12.015625 C 6.453125 -11.628906 7.144531 -11.234375 8.15625 -10.828125 C 9.175781 -10.421875 10.007812 -10.035156 10.65625 -9.671875 C 11.3125 -9.316406 11.863281 -8.910156 12.3125 -8.453125 C 12.757812 -8.003906 13.097656 -7.488281 13.328125 -6.90625 C 13.566406 -6.332031 13.6875 -5.660156 13.6875 -4.890625 C 13.6875 -3.453125 13.238281 -2.28125 12.34375 -1.375 C 11.445312 -0.476562 10.210938 0.046875 8.640625 0.203125 L 8.640625 2.734375 L 6.625 2.734375 L 6.625 0.21875 C 4.882812 0.03125 3.539062 -0.582031 2.59375 -1.625 C 1.644531 -2.675781 1.171875 -4.066406 1.171875 -5.796875 L 4.828125 -5.796875 C 4.828125 -4.785156 5.066406 -4.007812 5.546875 -3.46875 C 6.023438 -2.9375 6.710938 -2.671875 7.609375 -2.671875 C 8.359375 -2.671875 8.945312 -2.867188 9.375 -3.265625 C 9.800781 -3.660156 10.015625 -4.191406 10.015625 -4.859375 Z M 10.015625 -4.859375 "/></g></g></g><g fill="#00384d" fill-opacity="1"><g transform="translate(73.313358, 105.923851)"><g><path d="M 10.15625 0 L 6.5 0 L 6.5 -14.140625 L 2.125 -12.78125 L 2.125 -15.765625 L 9.765625 -18.5 L 10.15625 -18.5 Z M 10.15625 0 "/></g></g></g><g fill="#00384d" fill-opacity="1"><g transform="translate(88.215486, 105.923851)"><g><path d="M 13.921875 0 L 1.25 0 L 1.25 -2.515625 L 7.234375 -8.875 C 8.054688 -9.769531 8.660156 -10.550781 9.046875 -11.21875 C 9.441406 -11.894531 9.640625 -12.53125 9.640625 -13.125 C 9.640625 -13.945312 9.429688 -14.59375 9.015625 -15.0625 C 8.609375 -15.53125 8.019531 -15.765625 7.25 -15.765625 C 6.414062 -15.765625 5.757812 -15.476562 5.28125 -14.90625 C 4.800781 -14.34375 4.5625 -13.59375 4.5625 -12.65625 L 0.890625 -12.65625 C 0.890625 -13.78125 1.15625 -14.804688 1.6875 -15.734375 C 2.226562 -16.671875 2.988281 -17.40625 3.96875 -17.9375 C 4.945312 -18.46875 6.0625 -18.734375 7.3125 -18.734375 C 9.207031 -18.734375 10.679688 -18.273438 11.734375 -17.359375 C 12.796875 -16.441406 13.328125 -15.148438 13.328125 -13.484375 C 13.328125 -12.566406 13.085938 -11.632812 12.609375 -10.6875 C 12.140625 -9.75 11.328125 -8.648438 10.171875 -7.390625 L 5.96875 -2.953125 L 13.921875 -2.953125 Z M 13.921875 0 "/></g></g></g><g fill="#00384d" fill-opacity="1"><g transform="translate(103.117615, 105.923851)"><g><path d="M 13.6875 -7.640625 C 13.6875 -5.085938 13.15625 -3.132812 12.09375 -1.78125 C 11.039062 -0.425781 9.492188 0.25 7.453125 0.25 C 5.441406 0.25 3.90625 -0.410156 2.84375 -1.734375 C 1.78125 -3.066406 1.234375 -4.972656 1.203125 -7.453125 L 1.203125 -10.84375 C 1.203125 -13.425781 1.738281 -15.382812 2.8125 -16.71875 C 3.882812 -18.0625 5.425781 -18.734375 7.4375 -18.734375 C 9.445312 -18.734375 10.984375 -18.066406 12.046875 -16.734375 C 13.117188 -15.410156 13.664062 -13.507812 13.6875 -11.03125 Z M 10.015625 -11.375 C 10.015625 -12.90625 9.804688 -14.019531 9.390625 -14.71875 C 8.972656 -15.414062 8.320312 -15.765625 7.4375 -15.765625 C 6.570312 -15.765625 5.929688 -15.429688 5.515625 -14.765625 C 5.109375 -14.097656 4.894531 -13.054688 4.875 -11.640625 L 4.875 -7.15625 C 4.875 -5.644531 5.078125 -4.523438 5.484375 -3.796875 C 5.898438 -3.066406 6.554688 -2.703125 7.453125 -2.703125 C 8.359375 -2.703125 9.007812 -3.050781 9.40625 -3.75 C 9.800781 -4.457031 10.003906 -5.535156 10.015625 -6.984375 Z M 10.015625 -11.375 "/></g></g></g><g fill="#00384d" fill-opacity="1"><g transform="translate(118.019744, 105.923851)"><g><path d="M 2.359375 4.625 L 0.4375 3.625 L 0.90625 2.796875 C 1.46875 1.765625 1.757812 0.738281 1.78125 -0.28125 L 1.78125 -3.125 L 4.875 -3.125 L 4.859375 -0.578125 C 4.847656 0.359375 4.609375 1.300781 4.140625 2.25 C 3.679688 3.207031 3.085938 4 2.359375 4.625 Z M 2.359375 4.625 "/></g></g></g><g fill="#00384d" fill-opacity="1"><g transform="translate(124.361075, 105.923851)"><g><path d="M 13.6875 -7.640625 C 13.6875 -5.085938 13.15625 -3.132812 12.09375 -1.78125 C 11.039062 -0.425781 9.492188 0.25 7.453125 0.25 C 5.441406 0.25 3.90625 -0.410156 2.84375 -1.734375 C 1.78125 -3.066406 1.234375 -4.972656 1.203125 -7.453125 L 1.203125 -10.84375 C 1.203125 -13.425781 1.738281 -15.382812 2.8125 -16.71875 C 3.882812 -18.0625 5.425781 -18.734375 7.4375 -18.734375 C 9.445312 -18.734375 10.984375 -18.066406 12.046875 -16.734375 C 13.117188 -15.410156 13.664062 -13.507812 13.6875 -11.03125 Z M 10.015625 -11.375 C 10.015625 -12.90625 9.804688 -14.019531 9.390625 -14.71875 C 8.972656 -15.414062 8.320312 -15.765625 7.4375 -15.765625 C 6.570312 -15.765625 5.929688 -15.429688 5.515625 -14.765625 C 5.109375 -14.097656 4.894531 -13.054688 4.875 -11.640625 L 4.875 -7.15625 C 4.875 -5.644531 5.078125 -4.523438 5.484375 -3.796875 C 5.898438 -3.066406 6.554688 -2.703125 7.453125 -2.703125 C 8.359375 -2.703125 9.007812 -3.050781 9.40625 -3.75 C 9.800781 -4.457031 10.003906 -5.535156 10.015625 -6.984375 Z M 10.015625 -11.375 "/></g></g></g><g fill="#00384d" fill-opacity="1"><g transform="translate(139.263203, 105.923851)"><g><path d="M 13.6875 -7.640625 C 13.6875 -5.085938 13.15625 -3.132812 12.09375 -1.78125 C 11.039062 -0.425781 9.492188 0.25 7.453125 0.25 C 5.441406 0.25 3.90625 -0.410156 2.84375 -1.734375 C 1.78125 -3.066406 1.234375 -4.972656 1.203125 -7.453125 L 1.203125 -10.84375 C 1.203125 -13.425781 1.738281 -15.382812 2.8125 -16.71875 C 3.882812 -18.0625 5.425781 -18.734375 7.4375 -18.734375 C 9.445312 -18.734375 10.984375 -18.066406 12.046875 -16.734375 C 13.117188 -15.410156 13.664062 -13.507812 13.6875 -11.03125 Z M 10.015625 -11.375 C 10.015625 -12.90625 9.804688 -14.019531 9.390625 -14.71875 C 8.972656 -15.414062 8.320312 -15.765625 7.4375 -15.765625 C 6.570312 -15.765625 5.929688 -15.429688 5.515625 -14.765625 C 5.109375 -14.097656 4.894531 -13.054688 4.875 -11.640625 L 4.875 -7.15625 C 4.875 -5.644531 5.078125 -4.523438 5.484375 -3.796875 C 5.898438 -3.066406 6.554688 -2.703125 7.453125 -2.703125 C 8.359375 -2.703125 9.007812 -3.050781 9.40625 -3.75 C 9.800781 -4.457031 10.003906 -5.535156 10.015625 -6.984375 Z M 10.015625 -11.375 "/></g></g></g><g fill="#00384d" fill-opacity="1"><g transform="translate(154.165332, 105.923851)"><g><path d="M 13.6875 -7.640625 C 13.6875 -5.085938 13.15625 -3.132812 12.09375 -1.78125 C 11.039062 -0.425781 9.492188 0.25 7.453125 0.25 C 5.441406 0.25 3.90625 -0.410156 2.84375 -1.734375 C 1.78125 -3.066406 1.234375 -4.972656 1.203125 -7.453125 L 1.203125 -10.84375 C 1.203125 -13.425781 1.738281 -15.382812 2.8125 -16.71875 C 3.882812 -18.0625 5.425781 -18.734375 7.4375 -18.734375 C 9.445312 -18.734375 10.984375 -18.066406 12.046875 -16.734375 C 13.117188 -15.410156 13.664062 -13.507812 13.6875 -11.03125 Z M 10.015625 -11.375 C 10.015625 -12.90625 9.804688 -14.019531 9.390625 -14.71875 C 8.972656 -15.414062 8.320312 -15.765625 7.4375 -15.765625 C 6.570312 -15.765625 5.929688 -15.429688 5.515625 -14.765625 C 5.109375 -14.097656 4.894531 -13.054688 4.875 -11.640625 L 4.875 -7.15625 C 4.875 -5.644531 5.078125 -4.523438 5.484375 -3.796875 C 5.898438 -3.066406 6.554688 -2.703125 7.453125 -2.703125 C 8.359375 -2.703125 9.007812 -3.050781 9.40625 -3.75 C 9.800781 -4.457031 10.003906 -5.535156 10.015625 -6.984375 Z M 10.015625 -11.375 "/></g></g></g><path stroke-linecap="butt" transform="matrix(0.746053, 0, 0, 0.746053, 58.38324, 120.89014)" fill="none" stroke-linejoin="miter" d="M -0.000573089 2.00076 L 148.164666 2.00076 " stroke="url(#a516649ffc)" stroke-width="4" stroke-miterlimit="4"/></svg>