<svg width="120" height="50" fill="none" xmlns="http://www.w3.org/2000/svg"><path fill="#fff" stroke="#CCD0D4" d="M.5.5h119v49H.5z"/><path d="M110.231 26.052h1.827v.404h-.609v1.822h-.406v-1.822h-.609l-.203-.404zm2.03 0h.406l.61 1.821.609-1.822h.609v2.227h-.406v-1.62l-.609 1.62h-.407l-.609-1.62v1.62h-.406l.203-2.226zm-58.073 9.107c0 1.012-.406 2.024-1.218 2.63-1.015.608-2.233 1.013-3.452 1.013-1.218 0-2.436-.203-3.655-.81v-2.428c.61.404 1.422.607 2.234.81.609.201 1.015.201 1.624.201.406 0 1.016 0 1.422-.404.406-.203.406-.607.406-1.012 0-.203 0-.405-.203-.607l-.61-.608c-.609-.404-1.015-.607-1.624-.81-.609-.201-1.218-.606-1.827-1.011-.406-.405-.61-.81-1.016-1.214-.203-.405-.406-1.012-.406-1.62 0-1.011.406-2.023 1.219-2.63.812-.607 2.03-1.012 3.248-1.012.61 0 1.219 0 1.828.202l1.827.607-.812 2.024c-.406 0-1.015-.202-1.421-.202-.406-.203-.812-.203-1.219-.203-.406 0-.812 0-1.218.405a1.536 1.536 0 00-.406.81c0 .202 0 .404.203.607l.61.607c.608.405 1.218.607 1.624.81a7.304 7.304 0 012.436 1.619c.203.81.61 1.416.406 2.226zm9.544 3.643h-7.31v-12.75h7.31v2.226h-4.67v2.833h4.264v2.226h-4.264v3.238h4.67v2.227zm7.513-10.727c-1.016 0-1.828.405-2.437 1.215-.609 1.012-.812 2.024-.812 3.238 0 2.833 1.015 4.25 3.249 4.25a9.224 9.224 0 003.249-.607v2.226c-1.016.405-2.234.607-3.452.607-1.625 0-3.25-.607-4.264-1.619-1.016-1.417-1.625-3.238-1.422-4.857a7.124 7.124 0 01.813-3.44 4.397 4.397 0 012.03-2.227c1.015-.607 2.03-.81 3.046-.81 1.218 0 2.64.405 3.655.81l-.813 2.024c-.406-.203-1.015-.405-1.42-.607-.407-.203-1.016-.203-1.422-.203zm15.838-2.023v8.095c0 .81-.203 1.619-.61 2.428-.405.81-1.015 1.215-1.827 1.62-.812.404-1.827.607-2.843.607-1.42 0-2.64-.405-3.858-1.215-1.015-.81-1.42-2.226-1.42-3.44v-8.095h2.639v7.69c0 .81.203 1.62.609 2.226.61.607 1.218.81 2.03.607.61 0 1.422-.202 1.828-.607.406-.607.61-1.416.61-2.226v-7.69h2.842zm5.28 7.892v4.858h-2.844v-12.75h3.655c1.422-.203 2.64.202 3.858 1.011.813.608 1.422 1.822 1.422 2.834a3.412 3.412 0 01-.61 2.024c-.405.607-1.015 1.012-1.827 1.416l3.655 5.465h-3.046l-3.046-4.858h-1.218zm0-2.226h.811c.61 0 1.219 0 1.828-.404.406-.405.609-.81.609-1.215 0-.607-.203-1.012-.61-1.214-.405-.607-1.014-.607-1.827-.607h-.812v3.44zm16.04 7.084h-7.31v-12.75h7.31v2.226h-4.67v2.833h4.264v2.226h-4.264v3.238h4.67v2.227z" fill="#323835"/><path d="M68.402 19.373l-2.234-1.215-.203.203a2.23 2.23 0 01-2.03 1.214c-1.422-.202-2.437-1.416-2.437-2.833.203-1.215 1.015-2.226 2.437-2.429a2.24 2.24 0 012.03 1.214l.203.203 2.234-1.417-.203-.202c-.813-1.215-2.437-2.024-4.264-2.024-2.843 0-5.077 2.226-5.077 5.06 0 2.833 2.234 5.06 5.077 5.06a5.313 5.313 0 004.264-2.227l.203-.607zM68.199 22.004h3.046l1.015-2.226h4.67l.812 2.226h3.046L75.306 8.646h-2.64l.812 1.822-5.28 11.536zm6.294-8.096l1.219 3.036h-2.437l1.218-3.036zm7.716 8.096h2.64v-5.87h1.828v-2.63h-1.828v-1.012a.95.95 0 011.015-1.012c.203 0 .61 0 .813.202l.406.203 1.015-2.429-.406-.202c-.61-.203-1.015-.203-1.625-.203-1.015 0-2.233.405-2.842 1.214-.813.405-1.016 1.215-1.016 2.227v1.012h-1.218v2.63h1.218v5.87zM45.863 8.646v13.358h3.046v-7.69l2.843 2.225 2.842-2.226v7.69h2.843V8.647L51.752 13.1l-5.889-4.453zm46.702 3.441c-2.843 0-5.076 2.226-5.076 5.06 0 2.833 2.233 5.06 5.076 5.06 1.624 0 3.046-.81 4.061-2.025l-2.234-1.214c-.609.607-1.218.81-2.03.81a2.646 2.646 0 01-2.437-1.62h7.31v-.809c.406-2.833-1.624-5.06-4.67-5.262zm-2.233 3.643c.203-.81 1.015-1.417 2.03-1.417s1.827.607 2.234 1.417h-4.264zm13.401-3.643c-2.843-.202-5.076 1.821-5.28 4.655-.203 2.833 1.828 5.06 4.671 5.262h.609c1.624 0 3.046-.81 4.061-2.024l-2.234-1.214c-.609.607-1.218.81-2.03.81-1.015 0-1.828-.608-2.234-1.62h7.31v-.607c.203-2.833-2.03-5.06-4.873-5.262zm-2.437 3.643c.203-.81 1.016-1.417 2.031-1.417 1.015 0 1.827.607 2.233 1.417h-4.264zM13.78 33.135V17.956l9.544 4.453v-7.286L7.08 7.635v29.75l16.244 7.488v-7.286l-9.543-4.452z" fill="#C01818"/><path d="M32.868 33.135V17.956l-9.544 4.453v-7.286l16.041-7.488v29.75l-16.04 7.488v-7.286l9.543-4.452z" fill="#75160D"/></svg>