<svg xmlns="http://www.w3.org/2000/svg" xmlns:xlink="http://www.w3.org/1999/xlink" width="672" zoomAndPan="magnify" viewBox="0 0 504 487.499991" height="650" preserveAspectRatio="xMidYMid meet" version="1.0"><path fill="#99d9d5" d="M 283.875 221.671875 C 282.566406 220.609375 282.933594 218.054688 280.972656 217.859375 C 280.15625 217.609375 279.152344 217.75 278.355469 218.019531 C 277.316406 218.410156 276.386719 219.035156 275.582031 219.8125 C 275.570312 219.820312 275.5625 219.832031 275.550781 219.839844 C 274.707031 220.460938 273.921875 221.167969 273.179688 221.886719 C 270.753906 224.230469 268.195312 226.433594 265.660156 228.660156 C 262.503906 231.128906 263.089844 233.347656 259.644531 229.570312 C 256.902344 226.855469 259.28125 225.21875 258.898438 222.109375 C 258.625 218.617188 255.730469 216.148438 252.234375 216.714844 C 250.671875 216.496094 249.859375 212.972656 250.277344 211.730469 C 251.183594 209.652344 254.058594 210.285156 255.601562 209 C 257.859375 207.25 256.671875 203.496094 254.007812 202.925781 C 249.945312 202.109375 244.84375 206.550781 241.410156 208.582031 C 235.585938 212.183594 230.519531 217.632812 230.503906 224.871094 C 230.421875 227.304688 230.617188 229.734375 230.582031 232.164062 C 230.644531 233.632812 230.519531 235.117188 229.742188 236.402344 C 228.121094 239.570312 226.328125 243.003906 223.117188 244.800781 C 219.570312 245.828125 215.886719 247.527344 214.230469 251.0625 C 212.394531 255.332031 211.390625 259.890625 210.078125 264.332031 C 208.566406 268.75 207.234375 273.355469 205.289062 277.640625 C 202.910156 281.925781 197.992188 288.203125 193.472656 290.152344 C 185.5 293.765625 179.34375 300.300781 173.539062 306.667969 C 172.328125 308.40625 171.699219 310.566406 169.71875 311.632812 C 167.699219 312.945312 165.355469 313.621094 163.269531 314.816406 C 160.277344 316.363281 157.796875 318.65625 155.351562 320.933594 C 152.890625 323.222656 151.726562 323.777344 148.335938 323.859375 C 143.855469 324.511719 140.035156 327.625 137.265625 331.066406 C 135.882812 332.800781 135.179688 334.984375 133.398438 336.398438 C 129.871094 339.523438 127.746094 343.757812 125.203125 347.640625 C 122.902344 350.921875 120.289062 353.96875 117.300781 356.640625 C 113.25 360.796875 107.816406 363.820312 105.429688 369.34375 C 104.488281 371.410156 104.007812 373.640625 103.292969 375.789062 C 102.875 376.910156 102.363281 378.121094 102.847656 379.304688 C 103.507812 380.683594 104.453125 382.074219 105.871094 382.742188 C 104.40625 384.292969 102.542969 385.402344 101.078125 386.953125 C 99.15625 389.265625 98.335938 393.226562 100.910156 395.382812 C 102.230469 396.375 102.777344 397.882812 103.59375 399.246094 C 105.949219 402.804688 110.476562 404.039062 114.464844 404.738281 C 117.984375 405.191406 119.667969 404.039062 120.890625 402.886719 C 122.1875 401.660156 122.960938 400.4375 124.855469 401.140625 C 127.613281 403.070312 128.359375 407.40625 132.132812 407.949219 C 133.410156 408.203125 134.738281 407.957031 136.054688 407.710938 C 138.128906 407.320312 140.179688 406.933594 141.960938 408.503906 C 142.613281 412.191406 144.21875 414.675781 148.28125 414.75 C 148.972656 414.855469 149.617188 414.636719 150.261719 414.417969 C 150.941406 414.1875 151.617188 413.957031 152.335938 414.109375 C 154.164062 415.472656 155.101562 416.652344 157.460938 416.652344 C 157.601562 416.652344 157.75 416.644531 157.90625 416.636719 C 160.953125 416.730469 163.742188 415.230469 166.679688 414.617188 C 170.941406 413.945312 175.816406 414.0625 179.089844 410.808594 C 182.28125 407.710938 180.660156 405.703125 182.605469 403.273438 C 186.226562 400.09375 187.976562 399.847656 190.46875 395.0625 C 192.011719 392.996094 194.113281 391.394531 196.351562 390.136719 C 197.578125 389.617188 198.972656 389.46875 200.011719 388.554688 C 203.199219 385.992188 203.234375 382.167969 199.394531 380.261719 C 200.054688 377.390625 202.609375 375.488281 203.402344 372.6875 C 203.796875 371.289062 203.675781 369.792969 204.152344 368.421875 C 204.789062 366.441406 206.273438 364.964844 207.429688 363.292969 C 208.597656 361.246094 209.996094 359.347656 211.128906 357.28125 C 212.566406 354.644531 212.140625 351.515625 212.789062 348.660156 C 213.160156 345.867188 213.804688 343.128906 214.402344 340.382812 C 214.507812 339.863281 214.574219 339.335938 214.65625 338.8125 C 214.714844 338.695312 214.746094 338.566406 214.746094 338.429688 C 214.746094 338.390625 214.746094 338.347656 214.738281 338.308594 C 214.847656 337.695312 214.996094 337.09375 215.269531 336.527344 C 218.539062 331.183594 224.816406 328.910156 229.925781 325.746094 C 233.863281 323.859375 237.199219 321.714844 239.480469 317.878906 C 240.789062 316.066406 243.027344 317.128906 244.527344 318.089844 C 246.082031 319.359375 247.375 321.128906 249.480469 321.5 C 253.148438 322.269531 257.460938 319.792969 257.378906 315.757812 C 257.515625 313.230469 256.414062 310.191406 253.632812 309.699219 C 252.425781 309.410156 251.460938 309.777344 251.546875 308.121094 C 251.5 304.890625 251.488281 301.644531 251.515625 298.421875 C 253.273438 294.867188 257.355469 293.257812 259.972656 290.429688 C 260.980469 289.300781 261.796875 288.015625 262.578125 286.71875 C 265.027344 283.183594 264.828125 278.496094 267.65625 275.164062 C 271.199219 273.027344 274.621094 273.34375 276.699219 269.136719 C 277.558594 267.53125 277.710938 265.703125 278.171875 263.976562 C 278.523438 263.023438 279.117188 262.183594 279.609375 261.304688 C 280.125 260.421875 280.589844 259.496094 281.261719 258.722656 C 282.382812 257.511719 283.832031 256.671875 284.898438 255.410156 C 287.390625 252.671875 288.546875 248.492188 287.023438 245.007812 C 286.566406 244.039062 285.980469 243.132812 285.628906 242.113281 C 285.070312 240.039062 284.445312 237.445312 285.988281 235.648438 C 286.796875 234.839844 287.820312 234.257812 288.398438 233.238281 C 289.507812 230.839844 290.09375 227.648438 288.675781 225.265625 C 287.585938 223.46875 285.308594 223.105469 283.875 221.671875 Z M 143.371094 329.132812 C 148.234375 325.210938 150.726562 327.945312 154.910156 324.996094 C 157.609375 323.074219 159.75 320.464844 162.519531 318.632812 C 165.566406 316.445312 169.363281 315.625 172.3125 313.300781 C 173.972656 312.148438 174.699219 310.226562 175.71875 308.570312 C 176.820312 307.082031 178.320312 305.953125 179.5 304.523438 C 182.925781 300.777344 186.753906 297.410156 191.050781 294.699219 C 193.042969 293.210938 195.59375 292.722656 197.53125 291.175781 C 203.746094 286.140625 208.425781 279.699219 210.535156 271.933594 C 212.515625 266.800781 213.78125 261.449219 215.394531 256.203125 C 216.453125 252.835938 217.328125 250.285156 220.753906 248.65625 C 222.957031 247.894531 225.289062 247.324219 226.960938 245.558594 C 229.820312 242.640625 232.128906 238.945312 233.300781 235.03125 C 233.734375 231.464844 233.207031 227.859375 233.40625 224.28125 C 233.476562 223 233.726562 221.8125 234.121094 220.707031 C 235.070312 221.480469 235.957031 222.34375 236.734375 223.289062 C 237.234375 224.183594 237.535156 225.175781 237.859375 226.140625 C 238.285156 227.105469 239.152344 227.871094 240.121094 228.257812 C 240.792969 228.480469 241.503906 228.570312 242.136719 228.910156 C 243.105469 229.488281 244.832031 230.339844 244.296875 231.710938 C 243.71875 233.503906 242.089844 234.574219 240.921875 235.953125 C 239.742188 237.339844 239.03125 239.34375 239.125 241.175781 C 239.679688 243.640625 242.285156 245.023438 244.460938 245.886719 C 247.039062 246.824219 251.378906 247.910156 251.53125 251.230469 C 251.746094 252.75 251.050781 254.089844 250.320312 255.367188 C 249.757812 256.394531 249.253906 257.453125 248.792969 258.53125 C 248.53125 259.171875 248.199219 259.800781 248.03125 260.472656 C 247.8125 260.410156 247.59375 260.378906 247.398438 260.382812 C 244.339844 260.304688 241.53125 266.09375 239.738281 268.453125 C 238.730469 270.222656 237.394531 271.769531 236.171875 273.390625 C 235.195312 274.5625 234.515625 275.957031 233.5 277.105469 C 231.425781 279.03125 228.558594 279.773438 226.09375 281.078125 C 224.546875 281.988281 223.632812 283.652344 222.121094 284.628906 C 219.042969 286.832031 214.878906 286.972656 212.109375 289.6875 C 210.203125 291.53125 208.582031 293.648438 206.714844 295.527344 C 203.5625 297.828125 200.640625 300.480469 197.3125 302.523438 C 191.839844 304.671875 186.425781 307.324219 182.222656 311.53125 C 180.902344 312.914062 179.964844 314.605469 178.894531 316.179688 C 177.160156 318.664062 175.570312 321.257812 174.285156 324 C 174.253906 324.003906 174.222656 324.003906 174.191406 324.011719 C 173.824219 324.054688 173.449219 324.125 173.097656 324.226562 C 172.632812 324.359375 172.1875 324.542969 171.75 324.742188 C 171.261719 324.960938 170.804688 325.234375 170.347656 325.503906 C 169.921875 325.757812 169.503906 326.027344 169.0625 326.257812 C 168.949219 326.3125 168.832031 326.359375 168.714844 326.402344 C 168.609375 326.4375 168.5 326.46875 168.386719 326.496094 C 168.324219 326.507812 168.265625 326.515625 168.203125 326.523438 C 168.074219 326.527344 167.941406 326.523438 167.808594 326.515625 C 167.6875 326.503906 167.5625 326.492188 167.4375 326.46875 C 167.378906 326.457031 167.320312 326.441406 167.261719 326.421875 C 167.121094 326.367188 166.984375 326.300781 166.84375 326.246094 C 166.570312 326.140625 166.292969 326.078125 166 326.074219 C 165.769531 326.070312 165.535156 326.085938 165.308594 326.113281 C 164.753906 326.179688 164.1875 326.332031 163.671875 326.550781 C 163.175781 326.761719 162.679688 327.011719 162.226562 327.304688 C 161.984375 327.457031 161.757812 327.628906 161.539062 327.808594 C 161.351562 327.964844 161.164062 328.125 160.960938 328.265625 C 160.898438 328.308594 160.835938 328.34375 160.765625 328.378906 C 160.679688 328.421875 160.59375 328.457031 160.503906 328.492188 C 160.246094 328.578125 159.980469 328.644531 159.714844 328.699219 C 159.542969 328.734375 159.261719 328.792969 158.984375 328.886719 C 158.730469 328.972656 158.476562 329.066406 158.222656 329.167969 C 157.644531 329.410156 157.109375 329.742188 156.6875 330.214844 C 156.304688 330.644531 155.976562 331.113281 155.710938 331.628906 C 155.449219 332.136719 155.222656 332.65625 154.972656 333.167969 C 154.59375 333.914062 154.171875 334.636719 153.714844 335.335938 C 153.488281 335.664062 153.238281 335.972656 152.980469 336.277344 L 152.910156 336.355469 C 152.453125 336.871094 151.960938 337.351562 151.449219 337.8125 C 151.117188 338.09375 150.765625 338.34375 150.40625 338.589844 C 150.082031 338.808594 149.742188 339 149.40625 339.199219 C 149.039062 339.414062 148.6875 339.648438 148.316406 339.855469 C 148.027344 339.996094 147.730469 340.117188 147.429688 340.230469 C 147.125 340.328125 146.816406 340.410156 146.507812 340.511719 C 146.144531 340.628906 145.789062 340.773438 145.429688 340.90625 C 144.957031 341.0625 144.480469 341.191406 144.007812 341.34375 C 143.566406 341.488281 143.128906 341.648438 142.675781 341.757812 C 142.574219 341.773438 142.46875 341.789062 142.367188 341.800781 C 142.28125 341.804688 142.191406 341.808594 142.105469 341.804688 C 142.078125 341.800781 142.046875 341.796875 142.019531 341.792969 C 141.984375 341.785156 141.949219 341.773438 141.914062 341.765625 C 141.890625 341.753906 141.867188 341.746094 141.847656 341.738281 C 141.816406 341.71875 141.785156 341.703125 141.757812 341.683594 C 141.746094 341.675781 141.738281 341.667969 141.726562 341.660156 C 141.710938 341.644531 141.695312 341.628906 141.679688 341.613281 C 141.671875 341.609375 141.671875 341.601562 141.664062 341.597656 C 141.652344 341.574219 141.640625 341.550781 141.625 341.53125 C 141.59375 341.457031 141.5625 341.382812 141.535156 341.304688 C 141.484375 341.148438 141.441406 340.996094 141.40625 340.835938 C 141.398438 340.785156 141.390625 340.734375 141.382812 340.683594 C 141.378906 340.636719 141.378906 340.59375 141.382812 340.546875 C 141.398438 340.398438 141.417969 340.257812 141.441406 340.113281 C 141.472656 339.984375 141.507812 339.855469 141.546875 339.730469 C 141.660156 339.417969 141.792969 339.113281 141.9375 338.8125 C 142.097656 338.484375 142.265625 338.164062 142.363281 337.808594 C 142.515625 337.261719 142.507812 336.695312 142.398438 336.140625 C 142.332031 335.808594 142.226562 335.46875 142.011719 335.199219 C 141.855469 334.996094 141.660156 334.820312 141.457031 334.671875 C 141.195312 334.480469 140.929688 334.324219 140.636719 334.191406 C 140.351562 334.0625 140.042969 333.988281 139.738281 333.9375 C 139.457031 333.886719 139.171875 333.851562 138.886719 333.816406 C 140.113281 332.007812 141.519531 330.34375 143.371094 329.132812 Z M 152.515625 411.210938 C 152.359375 411.191406 152.207031 411.183594 152.054688 411.183594 C 151.359375 411.183594 150.664062 411.351562 149.972656 411.515625 C 148.425781 411.886719 146.933594 412.257812 145.664062 410.742188 C 144.824219 409.382812 145.164062 407.421875 143.855469 406.335938 C 139.925781 403.230469 137.328125 404.894531 133.089844 405.179688 C 129.101562 404.875 129.070312 396.671875 122.335938 398.257812 C 120.792969 398.625 119.847656 399.953125 118.777344 401.003906 C 116.492188 402.808594 113.257812 401.640625 110.773438 400.871094 C 104.953125 399.015625 106.472656 396.363281 102.605469 392.992188 C 101.769531 392.148438 102.265625 390.988281 102.578125 390.015625 C 103.761719 387.324219 107.207031 386.386719 108.605469 383.800781 C 109.425781 382.199219 108.160156 380.507812 106.675781 379.894531 C 106.3125 379.40625 105.890625 378.953125 105.601562 378.414062 C 105.421875 377.902344 105.832031 377.378906 105.960938 376.867188 C 108.378906 368.007812 109.703125 367.082031 116.417969 361.390625 C 121.65625 356.785156 126.496094 351.667969 129.929688 345.542969 C 131.714844 342.082031 134.507812 339.414062 137.148438 336.625 C 137.386719 336.214844 137.632812 335.804688 137.878906 335.398438 C 138.109375 335.445312 138.339844 335.488281 138.574219 335.515625 C 138.902344 335.558594 139.226562 335.59375 139.550781 335.652344 C 139.648438 335.671875 139.75 335.695312 139.847656 335.726562 C 139.921875 335.757812 139.996094 335.789062 140.070312 335.824219 C 140.152344 335.867188 140.234375 335.914062 140.316406 335.96875 C 140.398438 336.027344 140.480469 336.085938 140.558594 336.152344 C 140.589844 336.179688 140.617188 336.210938 140.644531 336.238281 C 140.652344 336.253906 140.660156 336.269531 140.664062 336.289062 C 140.679688 336.335938 140.691406 336.386719 140.707031 336.441406 C 140.730469 336.585938 140.75 336.734375 140.761719 336.882812 C 140.765625 336.925781 140.765625 336.972656 140.765625 337.015625 C 140.753906 337.089844 140.746094 337.164062 140.734375 337.234375 C 140.714844 337.308594 140.695312 337.378906 140.671875 337.453125 C 140.539062 337.800781 140.351562 338.128906 140.199219 338.46875 C 140.039062 338.820312 139.898438 339.191406 139.800781 339.570312 C 139.695312 339.988281 139.621094 340.453125 139.675781 340.886719 C 139.722656 341.273438 139.824219 341.664062 139.96875 342.027344 C 140.023438 342.164062 140.085938 342.304688 140.164062 342.4375 C 140.160156 342.4375 140.160156 342.441406 140.15625 342.445312 C 137.71875 344.101562 137.003906 347.265625 137.628906 350.023438 C 138.101562 352.046875 138.925781 354.003906 139.789062 355.890625 C 141.15625 357.859375 141.792969 359.578125 141.273438 361.980469 C 141.191406 363.589844 141.148438 365.203125 141.222656 366.8125 C 141.3125 368.8125 143.039062 370.589844 145.074219 370.539062 C 147.011719 370.617188 147.269531 367.609375 149.328125 368.359375 C 150.660156 368.957031 150.703125 370.796875 151.628906 371.824219 C 152.816406 373.5625 155.730469 374.761719 157.5625 373.375 C 158.980469 372.355469 159.015625 370.476562 159.644531 368.992188 C 159.863281 368.367188 160.644531 368.574219 161.109375 368.777344 C 162.550781 369.722656 162.453125 371.820312 162.484375 373.363281 C 162.257812 376.675781 160.613281 379.632812 159.800781 382.792969 C 159.335938 385.691406 159.503906 388.664062 159.582031 391.585938 C 159.691406 394.453125 160.40625 397.234375 161.082031 400.003906 C 161.550781 402.019531 161.90625 404.066406 162.488281 406.046875 C 163.371094 408.082031 163.816406 410.214844 163.792969 412.414062 C 162.121094 412.933594 160.464844 413.542969 158.738281 413.761719 C 155.433594 414.285156 155.257812 411.671875 152.515625 411.210938 Z M 205.019531 361.738281 C 203.652344 363.570312 202.101562 365.320312 201.417969 367.554688 C 200.925781 368.847656 200.96875 370.253906 200.707031 371.59375 C 200.050781 374.117188 197.765625 375.808594 197.023438 378.320312 C 194.546875 383.582031 201.414062 382.398438 198.890625 385.660156 C 198.085938 386.761719 196.722656 386.933594 195.527344 387.355469 C 192.804688 388.679688 190.367188 390.632812 188.445312 392.960938 C 187.699219 393.898438 187.199219 395 186.550781 396 C 185.578125 397.355469 184.222656 398.394531 182.871094 399.351562 C 180.28125 400.8125 178.710938 403.394531 178.515625 406.347656 C 177.140625 411.007812 171.460938 411.054688 167.492188 411.621094 C 166.828125 411.667969 166.171875 411.78125 165.523438 411.933594 C 165.507812 411.1875 165.441406 410.441406 165.359375 409.695312 C 165.179688 408.328125 164.710938 407.035156 164.210938 405.761719 C 163.441406 403.195312 163.027344 400.535156 162.363281 397.9375 C 161.488281 394.816406 161.195312 391.574219 161.234375 388.339844 C 161.253906 386.175781 161.109375 383.9375 161.839844 381.859375 C 163.355469 377.886719 165.199219 373.398438 163.589844 369.179688 C 162.972656 367.40625 160.71875 366.234375 158.996094 367.179688 C 157.617188 368.097656 157.695312 369.996094 157.042969 371.371094 C 156.457031 372.675781 154.886719 372.234375 153.890625 371.695312 C 152.765625 370.894531 152.363281 369.515625 151.734375 368.351562 C 150.949219 366.625 148.589844 366.0625 146.988281 366.945312 C 146.289062 367.375 145.898438 368.140625 145.308594 368.691406 C 144.378906 369.132812 143.324219 368.152344 143.042969 367.28125 C 142.742188 365.601562 142.960938 363.847656 142.984375 362.144531 C 143.589844 359.300781 142.765625 357.1875 141.183594 354.847656 C 139.667969 351.394531 137.367188 346.15625 141.496094 343.625 C 141.691406 343.613281 141.859375 343.574219 141.996094 343.519531 C 142.074219 343.527344 142.152344 343.53125 142.234375 343.53125 C 142.683594 343.53125 143.136719 343.4375 143.558594 343.304688 C 144.121094 343.125 144.679688 342.933594 145.246094 342.765625 C 145.574219 342.667969 145.898438 342.5625 146.21875 342.445312 C 146.453125 342.363281 146.6875 342.269531 146.925781 342.183594 C 147.472656 342.007812 148.03125 341.867188 148.558594 341.636719 C 148.84375 341.511719 149.128906 341.375 149.398438 341.222656 C 149.65625 341.074219 149.902344 340.910156 150.15625 340.753906 C 150.40625 340.601562 150.664062 340.464844 150.910156 340.3125 C 151.160156 340.160156 151.402344 339.992188 151.644531 339.824219 C 151.878906 339.660156 152.113281 339.492188 152.339844 339.3125 C 152.585938 339.109375 152.824219 338.890625 153.058594 338.671875 C 153.511719 338.25 153.929688 337.800781 154.335938 337.339844 C 154.589844 337.050781 154.902344 336.664062 155.175781 336.25 C 155.433594 335.855469 155.679688 335.449219 155.917969 335.042969 C 156.15625 334.628906 156.378906 334.207031 156.589844 333.777344 C 156.789062 333.375 156.96875 332.964844 157.167969 332.558594 C 157.285156 332.335938 157.40625 332.117188 157.542969 331.90625 C 157.65625 331.746094 157.773438 331.589844 157.898438 331.441406 C 157.984375 331.347656 158.074219 331.253906 158.167969 331.167969 C 158.214844 331.128906 158.261719 331.09375 158.308594 331.058594 C 158.410156 330.992188 158.519531 330.929688 158.628906 330.871094 C 158.886719 330.75 159.148438 330.648438 159.417969 330.554688 C 159.628906 330.484375 159.839844 330.425781 160.054688 330.382812 C 160.609375 330.269531 161.171875 330.132812 161.675781 329.847656 C 162.167969 329.566406 162.566406 329.15625 163.03125 328.832031 C 163.292969 328.660156 163.570312 328.511719 163.84375 328.367188 C 164.078125 328.25 164.3125 328.140625 164.558594 328.050781 C 164.777344 327.980469 165 327.917969 165.226562 327.867188 C 165.382812 327.835938 165.539062 327.816406 165.699219 327.800781 C 165.808594 327.792969 165.917969 327.792969 166.027344 327.792969 C 166.050781 327.796875 166.074219 327.800781 166.09375 327.804688 C 166.113281 327.808594 166.128906 327.8125 166.144531 327.820312 C 166.164062 327.824219 166.179688 327.832031 166.195312 327.839844 C 166.417969 327.929688 166.632812 328.035156 166.867188 328.097656 C 167.167969 328.183594 167.480469 328.210938 167.792969 328.230469 C 168.066406 328.246094 168.347656 328.25 168.617188 328.199219 C 168.910156 328.144531 169.191406 328.066406 169.464844 327.957031 C 169.960938 327.765625 170.410156 327.472656 170.863281 327.199219 C 171.289062 326.941406 171.714844 326.675781 172.160156 326.445312 C 172.523438 326.265625 172.902344 326.101562 173.289062 325.964844 C 173.296875 325.960938 173.304688 325.960938 173.3125 325.957031 C 172.082031 328.289062 170.78125 330.632812 170.335938 333.265625 C 169.871094 335.746094 170.941406 338.0625 172.113281 340.179688 C 172.933594 341.453125 173.382812 342.949219 174.304688 344.160156 C 175.105469 345.203125 176.386719 345.457031 177.589844 345.734375 C 179.191406 346.367188 180.171875 347.796875 181.246094 349.097656 C 181.828125 350.027344 182.207031 351.066406 182.792969 351.992188 C 183.65625 353.972656 185.945312 354.757812 187.976562 354.671875 C 189.292969 354.660156 191.171875 352.636719 192.242188 353.882812 C 193.609375 358.164062 196.328125 356.9375 199.609375 355.9375 C 202.296875 355.503906 205.125 355.90625 207.605469 357.019531 C 207.699219 357.070312 207.796875 357.097656 207.894531 357.109375 C 206.949219 358.664062 205.902344 360.148438 205.019531 361.738281 Z M 261.460938 282.589844 C 260.433594 284.953125 259.066406 287.292969 257.222656 289.113281 C 254.28125 291.679688 250.371094 293.695312 248.796875 297.449219 C 248.414062 298.871094 248.675781 300.351562 248.667969 301.800781 C 248.984375 304.894531 247.289062 311.203125 251.289062 312.207031 C 252.351562 312.460938 253.894531 312.304688 254.207031 313.640625 C 255.449219 316.929688 253.113281 319.347656 249.800781 318.613281 C 248.03125 317.933594 247.128906 316.046875 245.40625 315.273438 C 242.964844 313.644531 239.375 313.375 237.410156 315.882812 C 235.074219 319.394531 233.34375 320.84375 229.535156 322.714844 C 225.882812 324.867188 221.960938 326.621094 218.535156 329.140625 C 214.160156 332.5 212.019531 334.59375 211.492188 340.316406 C 210.699219 343.511719 210.152344 346.753906 209.660156 350.003906 C 209.328125 351.90625 209.550781 353.960938 208.695312 355.730469 C 207.613281 354.683594 203.484375 354.054688 202.238281 354.058594 C 201.3125 354.066406 200.371094 354.046875 199.457031 354.214844 C 197.933594 354.347656 196.371094 355.695312 194.867188 355.003906 C 193.660156 354.101562 194.011719 351.855469 191.957031 351.800781 C 190.488281 351.613281 189.242188 352.40625 187.953125 352.9375 C 186.398438 353.066406 184.730469 352.429688 184.144531 350.890625 C 182.929688 348.363281 181.339844 345.847656 178.847656 344.40625 C 177.910156 343.820312 176.65625 344.023438 175.824219 343.253906 C 174.992188 342.378906 174.667969 341.148438 174.074219 340.117188 C 172.816406 337.972656 171.484375 335.582031 172.132812 333.019531 C 172.765625 330.449219 174.046875 328.3125 175.273438 325.941406 C 176.976562 322.042969 179.371094 318.535156 181.722656 315.011719 C 184.332031 310.957031 188.714844 308.46875 192.882812 306.265625 C 194.902344 305.296875 197.105469 304.683594 199.023438 303.515625 C 200.597656 302.507812 202.027344 301.296875 203.511719 300.164062 C 205.25 298.652344 207.339844 297.554688 208.851562 295.796875 C 211.214844 293.285156 213.179688 290.214844 216.542969 288.953125 C 218.847656 288.078125 221.289062 287.4375 223.28125 285.917969 C 225.0625 284.671875 226.144531 282.5625 228.335938 281.949219 C 230.511719 280.851562 232.949219 280.089844 234.71875 278.328125 C 235.78125 277.175781 236.472656 275.753906 237.457031 274.542969 C 238.695312 272.917969 240.03125 271.355469 241.070312 269.589844 C 242.628906 267.285156 244.082031 264.832031 245.980469 262.792969 C 247.050781 261.824219 247.476562 262.171875 247.976562 262.316406 C 248.078125 262.886719 248.25 263.449219 248.339844 264.019531 C 248.578125 265.570312 248.703125 267.136719 248.886719 268.699219 C 248.980469 269.886719 249.011719 271.183594 249.824219 272.140625 C 250.753906 273.253906 252.050781 274.097656 253.539062 274.078125 C 255.972656 274.125 257.878906 272.308594 259.933594 271.253906 C 262.117188 270.207031 264.53125 270.296875 265.910156 272.53125 C 265.957031 272.601562 266.003906 272.675781 266.050781 272.75 C 263.316406 275.269531 262.511719 279.148438 261.460938 282.589844 Z M 286.59375 228.921875 C 286.492188 229.898438 286.355469 230.925781 285.902344 231.804688 C 285.507812 232.378906 284.890625 232.726562 284.394531 233.195312 C 281.667969 235.507812 281.859375 239.441406 282.765625 242.585938 C 283.148438 244.007812 283.992188 245.222656 284.554688 246.566406 C 285.183594 248.570312 284.679688 250.78125 283.527344 252.503906 C 282.058594 254.777344 279.328125 255.878906 278.039062 258.296875 C 277.113281 259.984375 275.929688 261.566406 275.339844 263.414062 C 274.832031 265.734375 274.53125 268.449219 272.390625 269.902344 C 270.910156 270.785156 269.167969 271.113281 267.59375 271.796875 C 267.320312 271.425781 266.957031 271.101562 266.660156 270.726562 C 265.046875 268.675781 262.136719 268.480469 259.851562 269.421875 C 257.277344 270.285156 254.261719 274.019531 251.582031 271.480469 C 250.617188 270.757812 250.695312 269.496094 250.597656 268.417969 C 250.355469 266.234375 250.1875 264.035156 249.65625 261.898438 C 249.453125 260.050781 252.039062 256.078125 252.84375 254.230469 C 253.472656 252.511719 253.5 250.402344 252.617188 248.769531 C 251.949219 247.746094 250.957031 246.976562 249.972656 246.269531 C 247.269531 244.605469 243.710938 244.46875 241.480469 242.035156 C 240.90625 241.476562 240.691406 240.746094 240.925781 239.972656 C 241.167969 238.898438 241.542969 237.796875 242.316406 236.980469 C 244.332031 234.996094 247.988281 231.554688 245.023438 228.855469 C 243.863281 227.695312 242.34375 226.980469 240.75 226.652344 C 239.210938 226.097656 239.203125 224.230469 238.527344 222.976562 C 238.113281 221.980469 237.25 221.3125 236.53125 220.554688 C 236.042969 219.976562 235.433594 219.523438 234.832031 219.078125 C 237.609375 213.707031 243.875 210.351562 248.929688 207.242188 C 249.730469 206.679688 254.515625 204.253906 253.769531 206.785156 C 250.511719 207.535156 247.125 208.816406 247.257812 212.714844 C 247.496094 215.527344 248.761719 219.40625 252.09375 219.585938 C 254.84375 219.128906 256.074219 220.675781 256.050781 223.121094 C 255.996094 224.164062 255.546875 225.128906 255.402344 226.152344 C 255.027344 228.796875 256.933594 231.042969 258.75 232.722656 C 261.953125 235.992188 264.070312 234.476562 266.773438 231.542969 C 268.640625 229.773438 270.65625 228.171875 272.542969 226.425781 C 274.945312 224.421875 276.9375 221.503906 280.140625 220.800781 C 280.585938 223.039062 282.53125 224.5 284.421875 225.546875 C 285 225.863281 285.644531 226.113281 286.101562 226.601562 C 286.652344 227.25 286.648438 228.121094 286.59375 228.921875 Z M 286.59375 228.921875 " fill-opacity="1" fill-rule="nonzero"/><path fill="#99d9d5" d="M 134.296875 414.945312 C 131.734375 415.558594 130.023438 418.171875 130.605469 420.765625 C 130.898438 422.449219 132.289062 424.445312 130.71875 425.898438 C 129.304688 427.328125 127.773438 428.6875 126.972656 430.585938 C 125.683594 433.339844 125.070312 436.226562 128.429688 437.707031 C 131.675781 438.296875 134.480469 435.769531 136.78125 433.824219 C 137.972656 433.289062 139.304688 433.105469 140.398438 432.3125 C 142.578125 430.890625 145.460938 429.394531 146.09375 426.671875 C 146.421875 424.285156 144.871094 422.335938 143.742188 420.402344 C 142.410156 416.699219 138.25 413.90625 134.296875 414.945312 Z M 143.214844 426.398438 C 141.800781 428.242188 139.703125 429.480469 137.652344 430.5 C 134.390625 430.957031 132.730469 434.539062 129.425781 434.949219 C 129.375 434.949219 129.328125 434.949219 129.277344 434.949219 C 129.265625 434.9375 129.25 434.929688 129.242188 434.917969 C 128.585938 433.175781 129.71875 431.308594 130.757812 429.933594 C 132.523438 428.226562 134.6875 426.390625 134.324219 423.65625 C 134.304688 422.117188 133.15625 420.75 133.441406 419.191406 C 134.789062 416.042969 139.480469 418.097656 140.613281 420.492188 C 141.261719 422.542969 143.375 424.148438 143.214844 426.398438 Z M 143.214844 426.398438 " fill-opacity="1" fill-rule="nonzero"/><path fill="#99d9d5" d="M 403.441406 115.84375 C 402.175781 114.160156 399.9375 113.574219 398.289062 112.308594 C 395.378906 110.273438 392.238281 109.390625 389.015625 111.289062 C 388.03125 111.863281 387.246094 112.699219 386.328125 113.359375 C 384.171875 114.273438 381.667969 114.597656 379.898438 116.296875 C 377.269531 118.65625 375.496094 122.167969 371.925781 123.273438 C 369.683594 124.085938 367.21875 124.015625 365.097656 122.886719 C 363.636719 122.300781 362.054688 122.0625 360.511719 121.765625 C 354.339844 120.746094 349.253906 121.644531 344.734375 116.359375 C 341.160156 113.132812 337.570312 109.417969 336.238281 104.671875 C 335.195312 101.015625 335.125 97.160156 334.554688 93.414062 C 334.390625 90.222656 335.28125 86.992188 334.21875 83.875 C 333.667969 81.714844 332.265625 79.585938 330.054688 78.886719 C 328.96875 78.507812 327.703125 78.761719 326.683594 78.238281 C 324.703125 75.914062 322.816406 70.953125 319 72.417969 C 316.871094 73.632812 315.945312 76.75 317.363281 78.832031 C 318.648438 80.90625 319.828125 83.03125 321.039062 85.148438 C 321.667969 86.6875 321.570312 88.410156 321.824219 90.035156 C 321.933594 91.402344 322.785156 92.636719 322.710938 94.015625 C 322.835938 95.859375 320.707031 98.273438 318.9375 96.757812 C 317.128906 94.808594 316.9375 91.941406 315.703125 89.675781 C 315.050781 88.339844 314.070312 87.125 312.640625 86.589844 C 308.332031 84.734375 302.886719 84.246094 303.5 78.160156 C 303.460938 74.867188 305.390625 73.019531 306.070312 70.097656 C 306.714844 66.226562 305.238281 62.449219 302.613281 59.621094 C 301.589844 58.46875 300.65625 57.226562 300.191406 55.738281 C 297.867188 50.425781 302.019531 48.632812 300.429688 43.3125 C 299.722656 40.289062 297.394531 38.019531 296.484375 35.089844 C 295.636719 32.265625 293.476562 29.859375 290.804688 28.625 C 288.953125 27.742188 286.738281 27.863281 285.007812 26.703125 C 282.601562 24.496094 280.519531 21.796875 277.398438 20.507812 C 273.160156 18.902344 268.535156 19.085938 264.273438 17.570312 C 261.449219 16.550781 260.285156 13.007812 260.316406 10.246094 C 260.921875 6.441406 259.726562 2.304688 255.515625 1.390625 C 250.277344 0 244.246094 2.625 247.421875 8.664062 C 248.320312 10.800781 249.945312 12.460938 251.523438 14.105469 C 253.09375 16.066406 254.546875 18.113281 256.023438 20.144531 C 257.65625 22.644531 259.949219 25.183594 258.28125 28.273438 C 256.851562 32.898438 259.894531 37.257812 263.066406 40.351562 C 265.070312 42.59375 267.054688 44.835938 269.449219 46.675781 C 270.75 47.746094 271.835938 49.027344 272.941406 50.289062 C 274.546875 51.957031 276.035156 53.75 277.054688 55.84375 C 279.558594 60.246094 281.085938 64.863281 283.226562 69.339844 C 283.789062 71.050781 285.660156 72.402344 287.394531 71.441406 C 289.171875 70.804688 290.082031 68.949219 291.832031 68.28125 C 292.902344 68.480469 293.144531 69.753906 292.386719 70.441406 C 291.359375 70.96875 289.871094 69.980469 288.464844 71.230469 C 286.726562 72.714844 286.875 75.355469 288.261719 77.027344 C 289.59375 78.832031 290.328125 80.953125 291.375 82.914062 C 291.925781 83.847656 292.667969 84.640625 293.285156 85.53125 C 294.140625 86.929688 294.78125 88.449219 295.429688 89.949219 C 295.855469 91.261719 296.453125 92.5 296.957031 93.777344 C 297.1875 94.597656 297.132812 95.464844 297.363281 96.289062 C 297.570312 97.472656 298.03125 98.585938 298.414062 99.71875 C 298.945312 101.753906 299.449219 104.132812 300.503906 106.042969 C 302.050781 108.28125 302.484375 109.269531 302.664062 111.988281 C 302.777344 113.382812 303.339844 114.9375 302.816406 116.28125 C 299.507812 119.269531 300.574219 120.769531 300.78125 124.566406 C 300.664062 125.847656 300.089844 127.03125 299.851562 128.289062 C 299.542969 129.558594 299.574219 130.875 299.683594 132.171875 C 300.132812 135.777344 296.3125 135.917969 296.105469 140.375 C 295.894531 142.1875 296.40625 143.9375 296.757812 145.6875 C 296.796875 148.820312 296.082031 152.183594 293.597656 154.304688 C 292.410156 155.398438 290.734375 155.386719 289.261719 155.792969 C 287.636719 156.300781 286.019531 156.828125 284.425781 157.414062 C 281.042969 158.703125 276.816406 159.375 274.914062 162.832031 C 273.683594 165.460938 273.8125 168.800781 275.121094 171.375 C 276.367188 173.34375 277.730469 175.480469 279.839844 176.605469 C 283.066406 177.898438 286.484375 178.785156 289.574219 180.414062 C 291.414062 181.800781 292.515625 183.945312 294.398438 185.292969 C 299.722656 189.652344 308.371094 187.816406 309.910156 196.058594 C 310.878906 199.609375 311.699219 203.367188 310.640625 206.988281 C 310.082031 209.441406 309.695312 211.980469 308.613281 214.269531 C 307.339844 216.539062 305.972656 218.863281 303.984375 220.582031 C 303.042969 221.367188 302.148438 222.199219 301.246094 223.027344 C 299.90625 224.167969 298.347656 225.046875 297.148438 226.351562 C 295.800781 227.988281 294.59375 229.796875 293.699219 231.71875 C 291.769531 237.394531 299.015625 238.257812 302.496094 235.710938 C 303.035156 237.128906 303.75 238.703125 305.25 239.300781 C 305.902344 239.644531 306.828125 239.480469 307.367188 239.976562 C 308.117188 242.773438 308.242188 244.769531 311.691406 245.335938 C 315.328125 245.464844 318.101562 242.632812 321.085938 240.941406 C 323.652344 238.933594 326.527344 237.402344 329.046875 235.335938 C 330.851562 233.828125 332.476562 232.140625 333.484375 229.988281 C 335.855469 226.242188 337.167969 221.964844 339.410156 218.167969 C 341.300781 215.285156 344.222656 213.328125 346.5 210.773438 C 347.433594 210.101562 348.320312 209.324219 348.90625 208.320312 C 349.652344 207.15625 349.789062 205.761719 350.296875 204.507812 C 350.597656 203.824219 351.164062 203.359375 351.644531 202.8125 C 352.5 201.683594 353.222656 200.464844 353.988281 199.269531 C 356.332031 196.0625 357.519531 192.335938 359.285156 188.792969 C 360.613281 186.53125 363.992188 185.199219 363.304688 182.0625 C 363.148438 180.144531 361.414062 179.167969 360.210938 177.90625 C 359.148438 176.449219 357.917969 174.34375 358.273438 172.484375 C 359.167969 170.691406 360.398438 168.964844 362 167.734375 C 364.765625 165.886719 367.855469 164.488281 371.191406 164.136719 C 373.375 164.011719 376.703125 163.015625 378.109375 165.199219 C 379.214844 166.527344 379.019531 168.375 379.878906 169.789062 C 381.613281 171.949219 385.207031 170.546875 386.050781 168.195312 C 388.066406 163.695312 384.378906 160.773438 387.210938 155.1875 C 387.675781 154.492188 387.921875 153.484375 388.648438 153.046875 C 390.3125 152.378906 392.097656 151.914062 393.484375 150.71875 C 396.769531 147.933594 398.203125 143.316406 398.554688 139.136719 C 398.738281 136.484375 398.164062 133.71875 399.039062 131.152344 C 400.167969 127.265625 405.675781 119.359375 403.441406 115.84375 Z M 340.125 115.945312 C 343.746094 119.441406 346.832031 123.023438 352.148438 123.636719 C 355.566406 124.183594 359.058594 124.207031 362.417969 125.097656 C 366.171875 126.199219 367.800781 127.4375 371.996094 126.257812 C 374.503906 125.625 376.671875 124.109375 378.40625 122.226562 C 379.886719 120.601562 381.113281 118.601562 383.125 117.578125 C 384.355469 116.90625 385.789062 116.746094 387.066406 116.203125 C 387.308594 117.417969 387.691406 118.632812 387.160156 119.796875 C 386.039062 121.390625 384.636719 122.738281 383.613281 124.421875 C 382.84375 125.40625 382.191406 126.855469 380.898438 127.195312 C 380.207031 127.066406 379.515625 126.707031 378.796875 126.925781 C 377.539062 127.265625 376.8125 128.488281 376.046875 129.457031 C 374.78125 131.117188 374.222656 133.203125 372.863281 134.796875 C 371.777344 136.167969 369.996094 136.542969 368.644531 137.558594 C 367.234375 138.679688 365.78125 139.886719 364.871094 141.464844 C 364.628906 141.929688 364.492188 142.441406 364.277344 142.910156 C 363.84375 142.988281 363.476562 143.410156 363.554688 143.882812 C 363.558594 143.886719 363.558594 143.890625 363.558594 143.894531 C 363.003906 144.414062 362.3125 144.777344 361.699219 145.226562 C 360.734375 145.902344 359.808594 146.652344 358.734375 147.15625 C 357.273438 147.878906 355.617188 148.089844 354.207031 148.945312 C 352.40625 149.902344 350.785156 151.195312 349.210938 152.484375 C 348.183594 153.257812 347.554688 154.363281 346.789062 155.367188 C 345.984375 156.199219 344.523438 157.117188 343.410156 156.363281 C 341.933594 154.777344 340.800781 154.003906 339.972656 153.710938 C 340.53125 152.304688 341.316406 151.003906 342.179688 149.757812 C 344.378906 146.6875 346.40625 143.339844 347.28125 139.605469 C 348.148438 136.445312 345.363281 133.699219 342.5 132.9375 C 341.597656 132.722656 340.664062 133.046875 339.757812 132.835938 C 337.757812 132.449219 337.054688 130.335938 336.417969 128.652344 C 335.296875 126.035156 332.835938 123.996094 332.761719 121 C 332.800781 118.277344 332.730469 115.539062 332.058594 112.882812 C 331.730469 111.039062 330.558594 109.0625 331.78125 107.300781 C 332.214844 106.6875 332.949219 106.289062 333.699219 106.238281 C 334.953125 109.910156 337.363281 113.238281 340.125 115.945312 Z M 320.273438 74.980469 C 320.269531 74.980469 320.269531 74.980469 320.269531 74.980469 C 320.234375 74.96875 320.199219 74.957031 320.167969 74.945312 C 320.203125 74.957031 320.238281 74.964844 320.273438 74.980469 Z M 320.214844 75.03125 C 320.210938 75.035156 320.210938 75.035156 320.210938 75.035156 C 320.179688 75.054688 320.152344 75.074219 320.121094 75.09375 C 320.152344 75.074219 320.183594 75.054688 320.214844 75.03125 Z M 286.496094 68.6875 C 286.347656 68.589844 286.183594 68.523438 286.007812 68.484375 C 284.421875 65.589844 283.601562 62.351562 282.035156 59.441406 C 280.457031 56.097656 278.9375 52.628906 276.4375 49.851562 C 274.921875 48.257812 273.578125 46.492188 271.925781 45.03125 C 270.054688 43.394531 268.082031 41.863281 266.550781 39.882812 C 264.667969 37.6875 262.222656 35.792969 261.257812 32.976562 C 259.390625 26.542969 265.101562 27.890625 258.582031 18.800781 C 256.925781 16.492188 255.304688 14.140625 253.46875 11.972656 C 251.648438 10.082031 249.632812 7.972656 249.414062 5.222656 C 250.335938 3.769531 252.691406 3.757812 254.261719 4.050781 C 257.835938 4.488281 257.742188 7.824219 257.417969 10.621094 C 257.460938 12.976562 258.234375 15.328125 259.503906 17.308594 C 260.859375 19.632812 263.488281 20.398438 265.921875 21.035156 C 270.128906 22.285156 275.101562 21.625 278.625 24.644531 C 280.144531 25.644531 281.222656 27.113281 282.496094 28.375 C 285.238281 31.105469 289.828125 30.039062 292.246094 33.261719 C 293.378906 34.429688 293.714844 36.046875 294.316406 37.503906 C 294.988281 39.085938 296.054688 40.453125 296.839844 41.976562 C 300.148438 48.558594 294.09375 49.394531 297.816406 57.582031 C 298.207031 58.433594 298.671875 59.183594 299.164062 59.882812 C 298.050781 60.824219 297.234375 62.132812 296.171875 63.148438 C 295.371094 63.992188 294.695312 64.949219 293.84375 65.742188 C 293.773438 65.816406 293.703125 65.875 293.628906 65.925781 C 290.789062 64.269531 288.804688 67.023438 286.496094 68.6875 Z M 296.75 85.875 C 296.101562 84.378906 295.089844 83.101562 294.089844 81.832031 C 293.261719 80.546875 292.8125 79.0625 292.070312 77.734375 C 291.78125 76.804688 288.882812 73.824219 290.601562 73.398438 C 291.496094 73.507812 292.441406 73.644531 293.296875 73.269531 C 295.5625 72.257812 296.457031 69.03125 294.984375 67.070312 C 295.695312 66.441406 296.273438 65.554688 296.894531 64.917969 C 298.058594 63.765625 299.011719 62.367188 300.222656 61.273438 C 302.082031 63.632812 303.863281 65.699219 303.214844 69.71875 C 302.933594 71.003906 302.097656 72.0625 301.625 73.269531 C 300.945312 74.902344 300.675781 76.675781 300.605469 78.433594 C 300.414062 85.558594 305.199219 86.910156 310.824219 88.964844 C 312.9375 89.464844 313.597656 91.785156 314.113281 93.628906 C 314.175781 93.789062 314.242188 93.945312 314.304688 94.101562 C 311.082031 94.792969 307.984375 95.9375 304.835938 96.875 C 303.546875 97.34375 302.171875 97.621094 300.894531 98.105469 C 300.398438 96.757812 300.015625 95.367188 299.933594 93.925781 C 299.761719 92.652344 299.097656 91.53125 298.636719 90.351562 C 298.128906 88.808594 297.4375 87.347656 296.75 85.875 Z M 302.1875 135.144531 C 303.027344 133.175781 302.175781 131.019531 302.644531 128.992188 C 303.144531 127.007812 303.949219 125.058594 303.59375 122.976562 C 302.148438 117.117188 307.15625 120.433594 305.632812 112.386719 C 305.433594 111.109375 305.359375 109.816406 305.070312 108.558594 C 304.765625 107.003906 303.652344 105.832031 302.925781 104.476562 C 302.15625 103.023438 301.839844 101.421875 301.425781 99.851562 C 301.480469 99.796875 301.53125 99.738281 301.566406 99.671875 C 306.035156 98.453125 310.359375 96.726562 314.898438 95.738281 C 314.925781 95.734375 314.949219 95.734375 314.972656 95.730469 C 315.242188 96.351562 315.535156 96.960938 315.875 97.539062 C 318.269531 101.511719 323.253906 100.574219 325.074219 96.640625 C 326.453125 93.601562 324.6875 91.214844 324.523438 88.234375 C 324.375 86.949219 324.292969 85.636719 323.847656 84.414062 C 323.089844 82.777344 322.082031 81.261719 321.25 79.660156 C 320.449219 78.226562 318.59375 76.507812 320.273438 74.996094 C 322.242188 76.109375 323.042969 78.53125 324.527344 80.15625 C 325.652344 81.414062 327.40625 81.351562 328.941406 81.578125 C 332.203125 82.691406 332.011719 87.585938 331.707031 90.417969 C 331.53125 92.492188 331.722656 94.566406 332.050781 96.617188 C 332.429688 99.265625 332.5625 101.953125 333.199219 104.546875 C 330.746094 104.914062 329.109375 107.523438 329.542969 109.9375 C 330.144531 112.394531 330.855469 114.832031 331 117.375 C 330.988281 123.417969 331.027344 123.292969 334.296875 128.3125 C 335.355469 130.15625 335.703125 132.519531 337.613281 133.757812 C 339.28125 134.957031 340.578125 134.449219 342.3125 134.683594 C 343.703125 135.164062 345.003906 136.125 345.589844 137.507812 C 345.9375 138.753906 345.378906 140 345.003906 141.171875 C 343.949219 144.386719 341.886719 147.066406 340.042969 149.863281 C 339.066406 151.355469 338.285156 152.984375 337.839844 154.714844 C 337.539062 155.75 337.621094 156.929688 336.992188 157.851562 C 336.75 158.292969 335.96875 158.957031 335.28125 159.640625 C 335.242188 159.597656 335.199219 159.558594 335.160156 159.519531 C 334.761719 159.15625 334.285156 158.867188 333.777344 158.699219 C 333.488281 158.605469 333.175781 158.558594 332.875 158.550781 C 332.613281 158.546875 332.328125 158.574219 332.078125 158.65625 C 331.808594 158.746094 331.546875 158.871094 331.308594 159.027344 C 330.992188 159.242188 330.679688 159.464844 330.402344 159.726562 C 329.882812 160.207031 329.480469 160.789062 329.101562 161.386719 C 328.753906 161.933594 328.453125 162.507812 328.101562 163.054688 C 327.722656 163.613281 327.332031 164.171875 326.890625 164.683594 C 326.808594 164.769531 326.722656 164.855469 326.636719 164.941406 C 326.566406 165 326.496094 165.058594 326.421875 165.113281 C 326.355469 165.15625 326.289062 165.199219 326.21875 165.238281 C 326.152344 165.265625 326.085938 165.296875 326.015625 165.324219 C 325.949219 165.34375 325.886719 165.363281 325.820312 165.382812 C 325.773438 165.390625 325.722656 165.398438 325.671875 165.402344 C 325.632812 165.402344 325.585938 165.402344 325.542969 165.402344 C 325.46875 165.390625 325.398438 165.382812 325.320312 165.371094 C 325.207031 165.34375 325.089844 165.3125 324.976562 165.28125 C 324.867188 165.242188 324.765625 165.199219 324.660156 165.152344 C 324.605469 165.121094 324.554688 165.089844 324.503906 165.0625 C 324.472656 165.039062 324.441406 165.011719 324.414062 164.992188 C 324.386719 164.96875 324.367188 164.945312 324.339844 164.917969 C 324.320312 164.890625 324.296875 164.863281 324.277344 164.835938 C 324.253906 164.792969 324.230469 164.75 324.203125 164.707031 C 324.164062 164.621094 324.125 164.535156 324.09375 164.449219 C 324.0625 164.347656 324.035156 164.246094 324.007812 164.140625 C 323.992188 164.035156 323.976562 163.929688 323.964844 163.820312 C 323.957031 163.574219 323.96875 163.332031 323.984375 163.085938 C 324.027344 162.5 324.074219 161.917969 324.179688 161.335938 C 324.265625 160.945312 324.375 160.5625 324.5 160.183594 C 324.675781 159.6875 324.84375 159.191406 324.96875 158.679688 C 325.085938 158.195312 325.1875 157.695312 325.195312 157.199219 C 325.203125 156.699219 325.183594 156.183594 325.066406 155.699219 C 324.949219 155.214844 324.757812 154.769531 324.484375 154.355469 C 324.367188 154.1875 324.238281 154.03125 324.101562 153.875 C 323.949219 153.699219 323.789062 153.527344 323.636719 153.355469 C 323.578125 153.292969 323.527344 153.222656 323.476562 153.15625 C 323.445312 153.105469 323.414062 153.054688 323.386719 153.003906 C 323.308594 152.835938 323.242188 152.664062 323.179688 152.492188 C 323.113281 152.300781 323.058594 152.109375 323.011719 151.917969 C 322.992188 151.800781 322.972656 151.683594 322.960938 151.566406 C 322.945312 151.171875 322.960938 150.777344 322.984375 150.390625 C 323.011719 150.09375 323.054688 149.804688 323.109375 149.515625 C 323.210938 149.039062 323.332031 148.566406 323.46875 148.097656 C 323.613281 147.597656 323.785156 147.105469 323.921875 146.605469 C 324.210938 145.554688 324.332031 144.46875 324.542969 143.402344 C 324.636719 142.945312 324.726562 142.496094 324.792969 142.035156 C 324.867188 141.554688 324.9375 141.054688 324.933594 140.570312 C 324.933594 139.851562 324.871094 139.101562 324.609375 138.429688 C 324.496094 138.132812 324.359375 137.839844 324.1875 137.578125 C 324.085938 137.425781 323.988281 137.269531 323.867188 137.132812 C 323.734375 136.980469 323.597656 136.84375 323.433594 136.714844 C 323.265625 136.582031 323.066406 136.496094 322.863281 136.441406 C 322.445312 136.324219 321.996094 136.449219 321.617188 136.640625 C 321.503906 136.699219 321.402344 136.765625 321.292969 136.832031 C 320.992188 137.011719 320.71875 137.214844 320.445312 137.433594 C 319.957031 137.824219 319.523438 138.269531 319.058594 138.6875 C 318.601562 139.078125 318.109375 139.417969 317.652344 139.808594 C 317.414062 140.015625 317.1875 140.226562 316.96875 140.460938 C 316.792969 140.648438 316.613281 140.832031 316.421875 141.003906 C 316.289062 141.113281 316.15625 141.214844 316.015625 141.3125 C 315.914062 141.378906 315.8125 141.4375 315.707031 141.496094 C 315.589844 141.550781 315.472656 141.601562 315.351562 141.644531 C 315.222656 141.6875 315.089844 141.722656 314.960938 141.75 C 314.867188 141.769531 314.769531 141.777344 314.675781 141.789062 C 314.097656 141.816406 313.511719 141.792969 312.9375 141.886719 C 312.671875 141.933594 312.398438 141.976562 312.140625 142.0625 C 311.867188 142.15625 311.601562 142.269531 311.351562 142.410156 C 310.832031 142.703125 310.382812 143.085938 309.957031 143.5 C 309.546875 143.894531 309.136719 144.28125 308.714844 144.660156 C 308.453125 144.886719 308.179688 145.09375 307.90625 145.304688 C 307.617188 145.527344 307.347656 145.773438 307.074219 146.019531 C 306.914062 146.15625 306.75 146.289062 306.578125 146.410156 C 306.390625 146.53125 306.195312 146.640625 305.996094 146.746094 C 305.75 146.863281 305.5 146.964844 305.25 147.070312 C 304.984375 147.183594 304.714844 147.292969 304.445312 147.390625 C 304.441406 147.390625 304.433594 147.394531 304.425781 147.398438 C 304.214844 146.628906 303.78125 146.179688 302.644531 146.03125 C 302.160156 145.929688 300.789062 145.710938 299.542969 145.710938 C 299.480469 144.449219 299.28125 143.199219 298.96875 142 C 298.476562 138.425781 301.019531 137.878906 302.1875 135.144531 Z M 290.199219 177.496094 C 288.316406 176.652344 286.390625 175.894531 284.445312 175.195312 C 282.84375 174.574219 280.941406 174.378906 279.804688 172.960938 C 278.878906 171.808594 277.863281 170.65625 277.316406 169.265625 C 276.851562 167.433594 276.636719 165.128906 277.890625 163.5625 C 279.847656 161.5625 282.773438 161.179688 285.269531 160.167969 C 287.140625 159.523438 288.992188 158.804688 290.925781 158.367188 C 292.414062 158.140625 293.902344 157.726562 295.113281 156.789062 C 298.03125 154.507812 299.371094 151.042969 299.554688 147.472656 C 300.632812 147.441406 301.714844 147.535156 302.757812 147.832031 C 303.011719 149.117188 303.175781 150.457031 302.738281 151.71875 C 302.449219 153.125 302.121094 154.539062 301.441406 155.820312 C 299.964844 158.59375 298.394531 162.269531 299.746094 165.363281 C 301.433594 168.464844 303.53125 168.070312 304.835938 172.242188 C 305.542969 174.300781 305.390625 176.980469 304.890625 179.082031 C 304.433594 180.207031 303.816406 181.269531 303.207031 182.320312 C 302.445312 183.277344 301.855469 184.347656 301.285156 185.425781 C 301.277344 185.441406 301.269531 185.460938 301.257812 185.476562 C 299.894531 185.078125 298.558594 184.617188 297.367188 183.789062 C 294.429688 182.339844 293.207031 178.839844 290.199219 177.496094 Z M 332.074219 226.613281 C 331.003906 228.441406 330.199219 230.53125 328.546875 231.925781 C 326.261719 234.160156 323.46875 235.699219 320.871094 237.515625 C 319.445312 238.71875 317.789062 239.578125 316.253906 240.621094 C 314.976562 241.417969 313.703125 242.425781 312.136719 242.476562 C 309.886719 242.363281 310.890625 239.339844 309.5625 238.109375 C 308.835938 237.070312 307.542969 236.933594 306.40625 236.664062 C 305.144531 235.808594 305.28125 233.753906 303.925781 232.902344 C 302.417969 231.703125 301.078125 233.503906 299.683594 233.9375 C 298.648438 234.230469 295.851562 234.738281 296.332031 232.90625 C 297.238281 231.066406 298.34375 229.230469 299.804688 227.777344 C 302.675781 225.539062 305.652344 223.324219 308.011719 220.53125 C 309.265625 218.941406 310.242188 217.402344 311.019531 215.808594 C 311.460938 215.777344 311.90625 215.738281 312.363281 215.757812 C 315.570312 215.957031 318.773438 215.882812 321.988281 215.867188 C 323.882812 215.816406 323.410156 218.691406 326.367188 219.164062 C 330.792969 219.347656 330.894531 215.464844 336.96875 216.664062 C 336.949219 216.695312 336.933594 216.722656 336.914062 216.75 C 334.957031 219.859375 333.9375 223.453125 332.074219 226.613281 Z M 345.914062 207.542969 C 344.492188 208.671875 343.238281 209.984375 341.960938 211.28125 C 340.597656 212.484375 339.238281 213.710938 338.085938 215.117188 C 337.816406 215.015625 337.476562 214.945312 337.054688 214.925781 C 333.660156 214.335938 331.234375 215.089844 328.476562 217.046875 C 325.765625 218.40625 325.441406 216.363281 324.015625 214.730469 C 321.886719 213.566406 319 214.339844 316.636719 214.207031 C 315.636719 214.324219 313.425781 213.925781 311.808594 213.984375 C 312.503906 212.164062 312.988281 210.234375 313.355469 208.058594 C 314.367188 204.507812 314.117188 201.273438 313.292969 197.726562 C 312.25 191.910156 310.179688 188.441406 304.402344 186.417969 C 303.925781 186.25 303.441406 186.097656 302.953125 185.957031 C 303.273438 185.382812 303.589844 184.808594 303.925781 184.246094 C 304.984375 182.867188 305.824219 181.316406 306.496094 179.714844 C 306.902344 178.59375 306.925781 177.390625 306.992188 176.214844 C 307.199219 173.9375 306.6875 171.6875 305.613281 169.675781 C 304.496094 166.867188 300.503906 165.941406 300.988281 162.5 C 301.0625 159.285156 303.324219 156.78125 304.042969 153.75 C 304.410156 152.222656 304.871094 150.6875 304.710938 149.117188 C 305.296875 148.941406 305.863281 148.695312 306.421875 148.449219 C 306.84375 148.265625 307.253906 148.050781 307.628906 147.78125 C 307.96875 147.539062 308.277344 147.257812 308.589844 146.980469 C 308.808594 146.792969 309.039062 146.617188 309.269531 146.445312 C 309.558594 146.21875 309.835938 145.980469 310.109375 145.734375 C 310.359375 145.503906 310.613281 145.277344 310.855469 145.039062 C 311.078125 144.828125 311.292969 144.613281 311.519531 144.40625 C 311.660156 144.285156 311.808594 144.171875 311.960938 144.0625 C 312.085938 143.984375 312.210938 143.910156 312.34375 143.839844 C 312.429688 143.800781 312.519531 143.761719 312.605469 143.726562 C 312.71875 143.691406 312.832031 143.664062 312.945312 143.636719 C 313.179688 143.59375 313.414062 143.5625 313.652344 143.542969 C 314.109375 143.519531 314.574219 143.542969 315.03125 143.484375 C 315.566406 143.417969 316.101562 143.25 316.578125 142.992188 C 317.011719 142.757812 317.40625 142.460938 317.765625 142.125 C 318.078125 141.832031 318.355469 141.503906 318.671875 141.210938 C 319.117188 140.835938 319.59375 140.5 320.039062 140.125 C 320.441406 139.785156 320.808594 139.410156 321.199219 139.054688 C 321.4375 138.847656 321.6875 138.644531 321.945312 138.460938 C 322.109375 138.351562 322.28125 138.246094 322.457031 138.152344 C 322.460938 138.148438 322.46875 138.148438 322.472656 138.144531 C 322.484375 138.15625 322.5 138.171875 322.515625 138.183594 C 322.566406 138.25 322.621094 138.320312 322.671875 138.386719 C 322.75 138.507812 322.820312 138.628906 322.886719 138.757812 C 322.933594 138.859375 322.980469 138.964844 323.019531 139.070312 C 323.058594 139.1875 323.09375 139.308594 323.121094 139.429688 C 323.164062 139.664062 323.191406 139.898438 323.210938 140.132812 C 323.21875 140.363281 323.222656 140.597656 323.210938 140.832031 C 323.15625 141.445312 323.066406 142.054688 322.949219 142.65625 C 322.75 143.578125 322.621094 144.515625 322.4375 145.441406 C 322.363281 145.785156 322.277344 146.128906 322.171875 146.464844 C 322.070312 146.796875 321.964844 147.125 321.867188 147.457031 C 321.675781 148.097656 321.5 148.742188 321.382812 149.398438 C 321.273438 150.046875 321.230469 150.710938 321.242188 151.371094 C 321.25 151.753906 321.292969 152.125 321.386719 152.5 C 321.457031 152.785156 321.558594 153.066406 321.667969 153.339844 C 321.789062 153.664062 321.941406 153.980469 322.152344 154.253906 C 322.347656 154.503906 322.574219 154.730469 322.785156 154.96875 C 322.886719 155.085938 322.984375 155.207031 323.078125 155.332031 C 323.121094 155.398438 323.164062 155.46875 323.203125 155.542969 C 323.238281 155.625 323.273438 155.707031 323.308594 155.792969 C 323.351562 155.921875 323.386719 156.050781 323.414062 156.179688 C 323.4375 156.324219 323.453125 156.46875 323.46875 156.617188 C 323.480469 156.839844 323.484375 157.0625 323.476562 157.285156 C 323.457031 157.496094 323.421875 157.703125 323.382812 157.910156 C 323.292969 158.328125 323.183594 158.742188 323.046875 159.148438 C 323.039062 159.167969 323.035156 159.183594 323.027344 159.203125 C 322.90625 159.546875 322.78125 159.886719 322.679688 160.238281 C 322.589844 160.550781 322.523438 160.867188 322.460938 161.183594 C 322.402344 161.503906 322.363281 161.828125 322.335938 162.152344 C 322.304688 162.527344 322.269531 162.90625 322.253906 163.28125 C 322.238281 163.613281 322.230469 163.949219 322.289062 164.277344 C 322.351562 164.632812 322.445312 164.972656 322.585938 165.304688 C 322.808594 165.8125 323.167969 166.257812 323.644531 166.550781 C 323.980469 166.757812 324.355469 166.90625 324.738281 167 C 325.140625 167.101562 325.589844 167.179688 326.003906 167.101562 C 326.390625 167.027344 326.761719 166.914062 327.113281 166.71875 C 327.765625 166.351562 328.253906 165.78125 328.699219 165.195312 C 329.113281 164.644531 329.515625 164.078125 329.867188 163.484375 C 330.035156 163.203125 330.191406 162.917969 330.359375 162.636719 C 330.511719 162.378906 330.675781 162.125 330.84375 161.875 C 330.980469 161.675781 331.125 161.484375 331.285156 161.300781 C 331.40625 161.164062 331.527344 161.039062 331.660156 160.917969 C 331.828125 160.773438 332.003906 160.644531 332.183594 160.519531 C 332.261719 160.46875 332.339844 160.421875 332.417969 160.378906 C 332.472656 160.351562 332.527344 160.328125 332.578125 160.308594 C 332.59375 160.300781 332.609375 160.296875 332.625 160.296875 C 332.671875 160.289062 332.722656 160.28125 332.769531 160.277344 C 332.816406 160.273438 332.863281 160.277344 332.910156 160.277344 C 332.984375 160.285156 333.054688 160.296875 333.128906 160.308594 C 333.183594 160.324219 333.242188 160.335938 333.300781 160.355469 C 333.355469 160.375 333.410156 160.398438 333.460938 160.425781 C 333.566406 160.480469 333.667969 160.539062 333.765625 160.601562 C 333.828125 160.648438 333.894531 160.695312 333.953125 160.746094 C 333.992188 160.785156 334.03125 160.824219 334.070312 160.863281 C 334.078125 160.871094 334.085938 160.882812 334.09375 160.894531 C 334.097656 160.917969 334.105469 160.941406 334.113281 160.96875 C 334.128906 161.058594 334.136719 161.148438 334.144531 161.242188 C 334.160156 161.519531 334.140625 161.796875 334.125 162.070312 C 334.074219 162.738281 333.964844 163.394531 333.832031 164.050781 C 333.769531 164.351562 333.707031 164.652344 333.660156 164.957031 C 333.609375 165.296875 333.574219 165.632812 333.550781 165.96875 C 333.53125 166.3125 333.53125 166.648438 333.585938 166.988281 C 333.636719 167.328125 333.726562 167.65625 333.84375 167.980469 C 334.054688 168.5625 334.40625 169.070312 334.753906 169.578125 C 335.03125 169.992188 335.289062 170.421875 335.523438 170.863281 C 335.664062 171.160156 335.78125 171.46875 335.902344 171.773438 C 336.011719 172.035156 336.121094 172.300781 336.214844 172.566406 C 336.296875 172.816406 336.359375 173.0625 336.417969 173.316406 C 336.421875 173.335938 336.425781 173.355469 336.425781 173.375 C 336.453125 173.515625 336.480469 173.65625 336.503906 173.800781 C 336.542969 174.054688 336.570312 174.304688 336.589844 174.5625 C 336.613281 175.039062 336.621094 175.519531 336.621094 176 C 336.621094 176.460938 336.617188 176.925781 336.59375 177.386719 C 336.5625 177.8125 336.511719 178.234375 336.460938 178.660156 C 336.40625 179.085938 336.359375 179.507812 336.277344 179.925781 C 336.070312 180.902344 335.804688 181.871094 335.535156 182.832031 C 335.382812 183.375 335.222656 183.917969 335.085938 184.46875 C 334.953125 185.007812 334.84375 185.554688 334.75 186.101562 C 334.691406 186.425781 334.632812 186.75 334.59375 187.078125 C 334.546875 187.433594 334.507812 187.804688 334.53125 188.160156 C 334.550781 188.515625 334.601562 188.863281 334.710938 189.203125 C 334.824219 189.535156 334.964844 189.855469 335.148438 190.15625 C 335.335938 190.464844 335.546875 190.75 335.792969 191.011719 C 335.996094 191.230469 336.226562 191.417969 336.46875 191.589844 C 336.886719 191.882812 337.296875 192.183594 337.6875 192.515625 C 337.886719 192.695312 338.070312 192.890625 338.246094 193.089844 C 338.457031 193.335938 338.65625 193.585938 338.84375 193.847656 C 339.054688 194.175781 339.242188 194.519531 339.417969 194.867188 C 339.570312 195.164062 339.726562 195.457031 339.882812 195.75 C 340.035156 196.070312 340.164062 196.398438 340.285156 196.730469 C 340.328125 196.867188 340.363281 197.003906 340.398438 197.140625 C 340.492188 197.660156 340.546875 198.179688 340.632812 198.699219 C 340.683594 198.992188 340.734375 199.285156 340.820312 199.570312 C 340.90625 199.855469 341.027344 200.128906 341.167969 200.390625 C 341.492188 201.003906 341.917969 201.589844 342.4375 202.058594 C 342.921875 202.496094 343.476562 202.847656 343.992188 203.246094 C 344.488281 203.628906 344.992188 203.988281 345.535156 204.308594 C 346.046875 204.613281 346.554688 204.925781 347.074219 205.226562 C 346.828125 206.074219 346.554688 206.894531 345.914062 207.542969 Z M 382.179688 167.960938 C 380.929688 161.308594 377.28125 160.308594 371.183594 161.234375 C 366.136719 161.886719 360.832031 163.992188 357.640625 168.109375 C 355.503906 170.730469 354.488281 173.265625 356.125 176.46875 C 357.710938 181.605469 362.976562 181.464844 359.097656 184.691406 C 355.78125 187.316406 355.230469 191.859375 353.058594 195.292969 C 352.109375 197.082031 350.914062 198.734375 349.816406 200.4375 C 349.207031 201.339844 348.328125 202.035156 347.828125 203.011719 C 347.59375 202.722656 347.164062 202.617188 346.820312 202.761719 C 346.726562 202.800781 346.640625 202.859375 346.566406 202.929688 C 346.324219 202.78125 346.082031 202.636719 345.847656 202.484375 C 345.492188 202.238281 345.152344 201.964844 344.804688 201.703125 C 344.433594 201.421875 344.035156 201.167969 343.675781 200.867188 C 343.550781 200.753906 343.433594 200.632812 343.324219 200.511719 C 343.191406 200.355469 343.070312 200.199219 342.953125 200.039062 C 342.847656 199.871094 342.746094 199.703125 342.65625 199.53125 C 342.601562 199.414062 342.546875 199.296875 342.5 199.179688 C 342.457031 199.039062 342.417969 198.894531 342.386719 198.75 C 342.296875 198.265625 342.238281 197.777344 342.164062 197.289062 C 342.125 197.027344 342.085938 196.761719 342.011719 196.507812 C 341.941406 196.265625 341.859375 196.027344 341.769531 195.792969 C 341.542969 195.199219 341.230469 194.648438 340.945312 194.082031 C 340.625 193.460938 340.285156 192.855469 339.835938 192.316406 C 339.609375 192.039062 339.375 191.757812 339.117188 191.507812 C 338.890625 191.28125 338.644531 191.074219 338.394531 190.875 C 338.195312 190.71875 337.996094 190.566406 337.792969 190.421875 C 337.589844 190.273438 337.378906 190.136719 337.1875 189.980469 C 337.117188 189.914062 337.050781 189.84375 336.984375 189.773438 C 336.894531 189.671875 336.8125 189.566406 336.734375 189.457031 C 336.652344 189.324219 336.574219 189.191406 336.5 189.054688 C 336.457031 188.957031 336.414062 188.863281 336.378906 188.765625 C 336.34375 188.65625 336.3125 188.550781 336.285156 188.4375 C 336.269531 188.351562 336.261719 188.265625 336.25 188.183594 C 336.246094 188.023438 336.25 187.867188 336.257812 187.707031 C 336.3125 187.027344 336.441406 186.351562 336.578125 185.683594 C 336.664062 185.265625 336.757812 184.851562 336.871094 184.445312 C 336.980469 184.054688 337.09375 183.667969 337.199219 183.277344 C 337.402344 182.542969 337.597656 181.808594 337.78125 181.070312 C 337.859375 180.742188 337.933594 180.414062 337.996094 180.082031 C 338.0625 179.75 338.101562 179.410156 338.140625 179.074219 C 338.222656 178.398438 338.304688 177.726562 338.332031 177.046875 C 338.355469 176.375 338.347656 175.699219 338.328125 175.027344 C 338.320312 174.667969 338.296875 174.308594 338.257812 173.949219 C 338.21875 173.617188 338.160156 173.289062 338.09375 172.960938 C 338.007812 172.539062 337.886719 172.132812 337.738281 171.726562 C 337.59375 171.335938 337.429688 170.949219 337.273438 170.566406 C 336.945312 169.765625 336.453125 169.035156 335.96875 168.316406 C 335.828125 168.109375 335.699219 167.894531 335.582031 167.671875 C 335.523438 167.546875 335.46875 167.417969 335.417969 167.285156 C 335.378906 167.15625 335.34375 167.027344 335.316406 166.902344 C 335.292969 166.769531 335.273438 166.640625 335.261719 166.507812 C 335.257812 166.355469 335.261719 166.203125 335.269531 166.054688 L 335.269531 166.039062 C 335.308594 165.515625 335.394531 165.003906 335.5 164.488281 C 335.597656 164.019531 335.703125 163.46875 335.773438 162.914062 C 335.8125 162.609375 335.835938 162.304688 335.851562 162.003906 C 335.859375 161.875 335.871094 161.75 335.875 161.621094 C 336.03125 161.460938 336.171875 161.289062 336.285156 161.128906 C 336.652344 160.722656 337.050781 160.34375 337.4375 159.957031 C 338.972656 158.710938 339.125 157.042969 339.496094 155.335938 C 340.613281 155.890625 341.371094 156.925781 342.316406 157.703125 C 344.144531 159.152344 346.734375 158.035156 348.117188 156.476562 C 349.199219 154.84375 350.472656 153.476562 352.121094 152.394531 C 353.507812 151.332031 354.96875 150.347656 356.621094 149.746094 C 358.832031 149.207031 360.824219 148.121094 362.59375 146.707031 C 363.628906 146.097656 364.316406 145.574219 364.796875 145.089844 C 364.863281 145.140625 364.921875 145.195312 364.980469 145.253906 C 365.527344 145.78125 366.109375 146.277344 366.621094 146.835938 C 368.34375 149.082031 370.125 151.351562 372.539062 152.894531 C 374.539062 154.117188 376.515625 155.410156 378.636719 156.417969 C 380.175781 157.140625 381.777344 157.746094 383.308594 158.472656 C 383.195312 159.363281 383.164062 160.257812 383.21875 161.148438 C 383.378906 163.121094 385.011719 167.300781 382.179688 167.960938 Z M 395.777344 132.570312 C 395.570312 134.847656 395.800781 137.128906 395.667969 139.410156 C 395.214844 142.824219 394.109375 146.753906 391.1875 148.855469 C 389.714844 149.867188 387.75 149.945312 386.382812 151.117188 C 385.082031 152.742188 384.148438 154.664062 383.640625 156.691406 C 383.015625 156.371094 382.324219 156.15625 381.6875 155.867188 C 379.636719 155.066406 377.703125 154.03125 375.824219 152.878906 C 373.75 151.722656 371.78125 150.375 370.207031 148.582031 C 368.878906 146.902344 367.613281 145.167969 365.9375 143.804688 C 365.886719 143.769531 365.835938 143.734375 365.789062 143.695312 C 366.332031 142.597656 366.53125 141.503906 368.675781 139.75 C 369.960938 138.433594 371.808594 137.996094 373.210938 136.859375 C 375.65625 134.882812 376.222656 131.550781 378.355469 129.3125 C 380.214844 127.023438 380.964844 131.898438 385.273438 125.042969 C 388.703125 120.128906 389.824219 121.324219 388.695312 115.113281 C 391.332031 113.039062 392.945312 112.15625 396.449219 114.558594 C 397.367188 115.089844 398.234375 115.707031 399.152344 116.242188 C 399.84375 116.773438 401.167969 116.917969 401.136719 117.988281 C 400.300781 123.121094 396.566406 127.410156 395.777344 132.570312 Z M 395.777344 132.570312 " fill-opacity="1" fill-rule="nonzero"/><path fill="#99d9d5" d="M 318.074219 66.335938 C 318.695312 67.910156 321.042969 69.785156 322.601562 70.339844 C 323.125 70.695312 323.882812 70.449219 324.378906 70.136719 C 325.199219 69.507812 325.308594 68.296875 325.183594 67.335938 C 324.984375 66.140625 324.03125 65.246094 323.847656 64.046875 C 323.546875 62.210938 323.53125 60.089844 322.175781 58.660156 C 320.664062 57.398438 318.550781 58.773438 318.046875 60.414062 C 317.625 61.503906 317.777344 62.691406 317.953125 63.816406 C 317.953125 64.660156 317.691406 65.53125 318.074219 66.335938 Z M 319.574219 61.328125 C 319.726562 60.71875 320.101562 60.019531 320.769531 59.898438 C 321.511719 60.046875 321.597656 61.324219 321.804688 61.949219 C 322.050781 63.222656 322.023438 64.574219 322.589844 65.769531 C 323.074219 66.6875 323.828125 67.65625 323.363281 68.738281 C 323.34375 68.746094 323.320312 68.75 323.296875 68.757812 C 322.105469 68.328125 319.71875 66.617188 319.582031 65.277344 C 319.867188 63.949219 319.359375 62.644531 319.574219 61.328125 Z M 319.574219 61.328125 " fill-opacity="1" fill-rule="nonzero"/><path fill="#99d9d5" d="M 310.027344 85.109375 C 310.589844 85.429688 311.234375 85.433594 311.859375 85.507812 C 312.539062 85.761719 313.191406 86.085938 313.941406 86.058594 C 314.917969 86.261719 316.164062 86.097656 316.625 85.085938 C 317.050781 84.023438 317.105469 82.683594 316.464844 81.699219 C 315.976562 80.957031 314.738281 80.230469 313.949219 80.894531 C 313.257812 81.078125 312.589844 81.363281 311.871094 81.410156 C 311.101562 81.457031 310.308594 81.367188 309.570312 81.640625 C 308.910156 81.871094 308.492188 82.625 308.542969 83.308594 C 308.671875 84.101562 309.421875 84.660156 310.027344 85.109375 Z M 312.75 83.027344 C 313.480469 82.933594 314.175781 82.472656 314.910156 82.515625 C 315.355469 82.984375 315.242188 83.773438 315.070312 84.335938 C 314.988281 84.371094 314.910156 84.414062 314.820312 84.421875 C 314.332031 84.34375 313.828125 84.355469 313.34375 84.242188 C 312.984375 84.09375 312.636719 83.902344 312.246094 83.824219 C 311.59375 83.695312 310.863281 83.820312 310.429688 83.195312 C 311.203125 83.109375 311.984375 83.1875 312.75 83.027344 Z M 312.75 83.027344 " fill-opacity="1" fill-rule="nonzero"/></svg>