<svg width="191" height="96" fill="none" xmlns="http://www.w3.org/2000/svg"><g clip-path="url(#clip0)"><path d="M104.477 45.803V39.34a3.74 3.74 0 013.742-3.742 3.741 3.741 0 013.742 3.742v6.45h3.611v-6.45c0-4.048-3.291-7.339-7.353-7.339a7.345 7.345 0 00-7.339 7.339v6.45h3.597v.014z" fill="#C01818"/><path d="M107.171 39.193c.582-.495 1.529-.495 2.111 0 .582.495 1.645.728 2.388.51.728-.219 1.602.16 1.922.859.335.699 1.208 1.34 1.98 1.427.757.102 1.398.8 1.413 1.572.014.772.567 1.718 1.223 2.111.655.394.946 1.296.655 2.01-.291.699-.175 1.79.247 2.431.437.627.335 1.573-.218 2.097s-.903 1.573-.757 2.315c.145.757-.335 1.573-1.049 1.82-.728.248-1.456 1.063-1.63 1.806-.175.742-.947 1.296-1.704 1.237-.757-.058-1.762.38-2.228.99-.466.612-1.383.801-2.053.437-.67-.364-1.762-.364-2.446 0-.67.364-1.602.175-2.068-.436-.465-.612-1.47-1.049-2.227-.99-.757.058-1.529-.496-1.704-1.238-.175-.743-.903-1.558-1.63-1.806-.729-.247-1.195-1.077-1.05-1.82.147-.757-.188-1.79-.756-2.315-.553-.524-.655-1.47-.219-2.097.437-.626.554-1.718.248-2.431-.291-.7 0-1.602.655-2.01.655-.393 1.209-1.354 1.223-2.11.015-.758.655-1.471 1.413-1.573.757-.102 1.645-.743 1.98-1.427.32-.7 1.194-1.078 1.922-.86.713.219 1.776-.014 2.359-.51z" fill="#C01818"/><path d="M108.219 42.63a7.283 7.283 0 00-7.28 7.28 7.283 7.283 0 007.28 7.28 7.283 7.283 0 007.281-7.28 7.283 7.283 0 00-7.281-7.28z" fill="#FEFEFE"/><path d="M128.823 56.01c0 .306-.073.583-.233.816-.16.233-.379.422-.67.553a2.517 2.517 0 01-1.034.204c-.335 0-.597-.014-.83-.073a3.13 3.13 0 01-.699-.247v-1.18c.248.131.525.233.787.306.276.073.524.102.757.102.204 0 .349-.03.437-.102a.332.332 0 00.131-.262c0-.073-.015-.131-.059-.175-.043-.058-.101-.102-.174-.16-.088-.058-.306-.16-.655-.32a3.451 3.451 0 01-.729-.422 1.409 1.409 0 01-.364-.466 1.67 1.67 0 01-.116-.627c0-.45.16-.815.495-1.062.335-.248.786-.379 1.369-.379.509 0 1.034.117 1.558.35l-.408 1.033c-.466-.218-.859-.32-1.194-.32-.175 0-.291.029-.379.087a.285.285 0 00-.116.233c0 .102.044.19.146.262.102.073.378.219.815.423.422.189.713.393.888.611.189.204.277.48.277.816zM132.813 56.01c0 .306-.073.583-.233.816-.16.233-.379.422-.67.553-.291.131-.64.204-1.034.204-.32 0-.597-.014-.83-.073a3.105 3.105 0 01-.698-.247v-1.18c.247.131.524.233.786.306.276.073.524.102.757.102.204 0 .349-.029.437-.102.087-.073.145-.16.145-.262 0-.073-.014-.131-.058-.175-.044-.058-.102-.102-.175-.16-.087-.058-.305-.16-.655-.32a3.444 3.444 0 01-.728-.422 1.187 1.187 0 01-.349-.466 1.651 1.651 0 01-.117-.627c0-.45.16-.815.495-1.062.335-.248.787-.379 1.369-.379.51 0 1.034.117 1.558.35l-.408 1.033c-.466-.218-.859-.32-1.194-.32-.174 0-.306.03-.378.087a.283.283 0 00-.117.233c0 .102.044.19.146.262.102.073.364.219.815.423.422.189.728.393.888.611.161.204.248.48.248.816zM133.569 57.51v-4.936h1.325v3.859h1.893v1.077h-3.218zM139.859 52.822c-.612 0-1.107.204-1.456.597-.35.393-.539.932-.539 1.63 0 .7.175 1.253.495 1.646.335.393.815.583 1.441.583a3.96 3.96 0 001.136-.16v.305c-.32.117-.728.175-1.223.175-.699 0-1.238-.219-1.631-.67-.393-.451-.597-1.077-.597-1.878 0-.495.102-.947.291-1.325.19-.379.466-.685.816-.889.349-.203.772-.305 1.237-.305.481 0 .918.087 1.296.276l-.131.306a2.274 2.274 0 00-1.135-.291zM144.736 57.51h-2.693v-4.936h2.693v.32h-2.344v1.864h2.213v.32h-2.213v2.112h2.344v.32zM146.193 57.496h-.335V52.56h1.179c.612 0 1.063.116 1.354.335.292.233.437.567.437 1.019 0 .335-.087.611-.262.83-.175.233-.437.393-.801.495l1.34 2.242h-.408l-1.267-2.14h-1.237v2.155zm0-2.432h.946c.422 0 .743-.087.961-.276.233-.19.35-.466.35-.816 0-.378-.117-.655-.335-.815-.219-.175-.597-.262-1.107-.262h-.815v2.17zM151.247 57.51h-.35v-4.6h-1.602v-.32h3.553v.32h-1.601v4.6zM153.576 57.51v-4.936h.349v4.936h-.349zM155.323 57.51v-4.936h2.708v.32h-2.359v2.097h2.228v.32h-2.228v2.2h-.349zM158.788 57.51v-4.936h.35v4.936h-.35zM162.632 52.822c-.612 0-1.107.204-1.457.597-.349.393-.538.932-.538 1.63 0 .7.174 1.253.509 1.646s.816.583 1.442.583a3.96 3.96 0 001.136-.16v.305c-.321.117-.728.175-1.223.175-.699 0-1.238-.219-1.631-.67-.393-.451-.597-1.077-.597-1.878 0-.495.102-.947.291-1.325.189-.379.466-.685.815-.889.35-.203.772-.305 1.238-.305.48 0 .917.087 1.296.276l-.146.306a2.274 2.274 0 00-1.135-.291zM167.189 55.763h-2.009l-.685 1.733h-.378l1.98-4.95h.218l1.937 4.95h-.393l-.67-1.733zm-1.878-.305h1.762l-.67-1.777c-.058-.145-.117-.335-.204-.582a4.435 4.435 0 01-.204.582l-.684 1.777zM170.247 57.51h-.349v-4.6h-1.602v-.32h3.553v.32h-1.602v4.6zM175.271 57.51h-2.694v-4.936h2.694v.32h-2.359v1.864h2.228v.32h-2.228v2.112h2.359v.32z" fill="#323835"/><path d="M108.715 45.133c-.466 0-.903.044-1.296.102-2.344.35-3.611 1.631-3.902 3.8l-.204 1.646c-.131 1.136.073 1.98.611 2.592.641.713 1.733 1.296 3.349 1.296h2.84c1.645 0 1.849-1.718 1.849-1.718h-3.771c-.51 0-1.005-.044-1.354-.175-.466-.175-.758-.48-.86-1.034-.043-.218-.029-.699.015-1.02l.189-1.44a7.97 7.97 0 01.219-.918c.145-.35.364-.699.728-.961.218-.146.713-.451 1.995-.451h2.082c1.456 0 1.718-1.718 1.718-1.718h-4.208zM173.624 41.887h-3.815v.262c.015.568.204 1.281 1.165 1.281h2.548c1.485 0 2.286.495 2.053 2.155l-.174 1.325c-.219 1.718-1.457 1.98-2.549 1.98h-1.441l.408-3.305c.058-.48-.175-1.252-1.078-1.252h-1.252l-.335 2.723-.32 2.402c-.088.64.378 1.005 1.383 1.005h2.941c2.985 0 3.801-1.078 4.208-1.762.219-.393.379-.859.466-1.412.015-.102.219-1.82.219-1.82.131-1.034-.073-1.82-.583-2.403-.684-.772-1.936-1.18-3.844-1.18zM138.971 41.697h-.423c-2.999.03-4.572 1.282-4.907 3.67l-.203 1.543c-.131 1.063.058 1.864.582 2.446.641.714 1.762 1.238 3.451 1.252h.422c2.941-.029 4.499-1.237 4.878-3.465l.029-.16.204-1.543c.131-1.107-.058-1.937-.597-2.534-.641-.714-1.762-1.194-3.436-1.209zm1.558 3.742l-.19 1.413c-.087.626-.247 1.106-.524 1.47-.378.481-.946.772-1.733.772h-.451c-.786 0-1.354-.276-1.602-.728-.16-.335-.203-.815-.116-1.456l.189-1.412c.102-.757.35-1.31.743-1.704.393-.378.932-.553 1.601-.553h.437c.452 0 1.063.073 1.398.524.262.379.35.917.248 1.675zM189.059 42.906c-.641-.714-1.762-1.194-3.437-1.209h-.422c-2.999.03-4.572 1.282-4.907 3.67l-.204 1.543c-.131 1.063.059 1.864.583 2.446.641.714 1.762 1.238 3.451 1.252h.422c2.941-.029 4.499-1.237 4.878-3.465l.029-.16.204-1.543c.116-1.107-.073-1.937-.597-2.534zm-1.879 2.534l-.189 1.412c-.087.626-.247 1.106-.524 1.47-.379.481-.946.772-1.733.772h-.466c-.786 0-1.354-.276-1.601-.728-.161-.335-.204-.815-.117-1.456l.189-1.412c.102-.757.35-1.31.743-1.704.379-.378.932-.553 1.602-.553h.437c.451 0 1.062.073 1.397.524.277.379.364.917.262 1.675zM163.155 41.697h-.422c-2.999.03-4.572 1.282-4.907 3.67l-.204 1.543c-.131 1.063.059 1.864.583 2.446.641.714 1.762 1.238 3.451 1.252h.422c2.941-.029 4.499-1.237 4.878-3.465l.029-.16.204-1.543c.131-1.107-.058-1.937-.597-2.534-.641-.714-1.747-1.194-3.437-1.209zm1.573 3.742l-.189 1.413c-.088.626-.248 1.106-.524 1.47-.379.481-.947.772-1.733.772h-.452c-.786 0-1.354-.276-1.601-.728-.16-.335-.204-.815-.117-1.456l.19-1.412c.102-.757.335-1.31.742-1.704.393-.378.932-.553 1.602-.553h.437c.451 0 1.063.073 1.398.524.262.379.349.917.247 1.675zM153.662 42.367l-3.305 3.742-2.315-3.713c-.219-.35-.67-.51-1.34-.51h-1.048l-1.048 8.562h1.281c.422 0 .728-.175.903-.335.276-.233.451-.568.495-.917l.466-3.757 1.703 3.247c.073.117.277.394.554.394h.029c.291 0 .538-.277.611-.364l2.592-3.277-.626 4.995h1.238c.422 0 .728-.175.902-.335.262-.233.452-.568.495-.918l.903-7.309h-1.092c-.641.015-1.121.175-1.398.495zM128.968 41.887c-.423 0-.816.029-1.18.087-2.14.32-3.276 1.485-3.552 3.45l-.19 1.5c-.116 1.034.059 1.806.554 2.36.582.64 1.572 1.179 3.043 1.179h2.592c1.499 0 1.674-1.573 1.674-1.573h-3.422c-.466 0-.917-.044-1.237-.16-.437-.16-.685-.437-.787-.946a3.907 3.907 0 01.015-.918l.175-1.31c.058-.335.16-.714.203-.83.132-.306.335-.64.67-.874.19-.145.655-.422 1.82-.422h1.908c1.325 0 1.572-1.558 1.572-1.558h-3.858v.015z" fill="#C01818"/><path fill-rule="evenodd" clip-rule="evenodd" d="M66.418 52.036a3.94 3.94 0 00-.031-.428c-.141-.65-.657-1.189-1.392-1.189-1.079 0-1.642.983-1.642 2.203 0 1.315.641 2.139 1.626 2.139.688 0 1.236-.475 1.376-1.157.047-.174.063-.348.063-.554v-1.014zm2.376-6.782v8.937c0 .871.032 1.79.063 2.313h-2.11l-.11-1.141h-.032c-.484.871-1.407 1.315-2.392 1.315-1.813 0-3.268-1.568-3.268-3.977-.015-2.614 1.595-4.12 3.425-4.12.938 0 1.673.333 2.017.872h.03v-4.199h2.377zm-13.43 8.144c.077.998 1.047 1.474 2.157 1.474.813 0 1.47-.111 2.11-.317l.313 1.632c-.782.317-1.735.475-2.767.475-2.596 0-4.081-1.52-4.081-3.945 0-1.965 1.204-4.136 3.862-4.136 2.47 0 3.409 1.95 3.409 3.866 0 .413-.047.777-.079.951h-4.925zm2.798-1.648c0-.586-.25-1.568-1.345-1.568-1 0-1.407.919-1.47 1.568h2.815zm-7.099-5.213v2.219h1.704v1.774h-1.704v2.805c0 .935.22 1.363.938 1.363.297 0 .532-.032.704-.064l.016 1.822c-.313.127-.876.206-1.548.206-.767 0-1.408-.27-1.783-.665-.438-.46-.656-1.204-.656-2.298V50.53h-1.017v-1.774h1.017v-1.68l2.33-.539zm-9.24 7.86c.437.269 1.344.586 2.047.586.72 0 1.017-.254 1.017-.65s-.235-.586-1.126-.887c-1.579-.539-2.189-1.41-2.173-2.33 0-1.441 1.22-2.535 3.111-2.535.891 0 1.689.206 2.158.444l-.422 1.664c-.344-.19-1.001-.444-1.658-.444-.578 0-.907.238-.907.634 0 .364.297.555 1.236.887 1.454.507 2.064 1.252 2.08 2.393 0 1.442-1.127 2.503-3.316 2.503-1 0-1.891-.222-2.47-.538l.422-1.728zm-1.315-.38c0 1.013.032 1.837.063 2.487h-2.064l-.11-1.093h-.046c-.297.475-1.017 1.267-2.392 1.267-1.548 0-2.69-.982-2.69-3.375v-4.547h2.393v4.167c0 1.125.36 1.806 1.188 1.806.657 0 1.032-.46 1.188-.84.063-.142.078-.332.078-.522v-4.611h2.392v5.26zm-12.946-2.71c0-1.141-.031-1.886-.062-2.551h2.048l.078 1.426h.063c.39-1.125 1.328-1.6 2.063-1.6.22 0 .329 0 .5.031v2.266a3.355 3.355 0 00-.64-.063c-.876 0-1.47.475-1.627 1.22a2.89 2.89 0 00-.046.538v3.93h-2.377v-5.197zM22.387 47.852h-2.83v-2.027h8.099v2.027h-2.877v8.652h-2.392v-8.652z" fill="#323835"/><path fill-rule="evenodd" clip-rule="evenodd" d="M92.514 51.75c0-.586-.25-1.568-1.344-1.568-1 0-1.407.919-1.47 1.568h2.814zm-2.798 1.648c.078.998 1.047 1.474 2.158 1.474.812 0 1.47-.111 2.11-.317l.313 1.632c-.782.317-1.736.475-2.768.475-2.595 0-4.08-1.52-4.08-3.945 0-1.965 1.203-4.136 3.861-4.136 2.47 0 3.41 1.95 3.41 3.866 0 .413-.048.777-.079.951h-4.925zm-4.332-6.86v2.218h1.705v1.775h-1.705v2.804c0 .935.22 1.363.939 1.363.297 0 .531-.032.703-.064l.016 1.822c-.313.127-.876.206-1.548.206-.766 0-1.407-.27-1.783-.665-.437-.46-.656-1.204-.656-2.298v-3.168h-1.017v-1.775h1.017v-1.68l2.33-.538zm-6.723 9.966h2.377v-7.748H78.66v7.748zm2.455-9.903c0 .665-.5 1.204-1.282 1.204-.75 0-1.251-.539-1.236-1.204-.015-.697.485-1.22 1.252-1.22.766 0 1.25.523 1.266 1.22zm-10.351 7.415c.64.333 1.626.666 2.642.666 1.095 0 1.673-.46 1.673-1.157 0-.665-.5-1.046-1.767-1.505-1.75-.618-2.892-1.6-2.892-3.153 0-1.822 1.5-3.217 3.987-3.217 1.189 0 2.064.254 2.69.539l-.532 1.949a4.956 4.956 0 00-2.205-.507c-1.032 0-1.532.475-1.532 1.03 0 .681.594.982 1.954 1.505 1.86.697 2.736 1.68 2.736 3.185 0 1.79-1.36 3.311-4.253 3.311-1.203 0-2.392-.317-2.986-.65l.485-1.996zM11.858 59.082H0v-11.84A4.246 4.246 0 014.249 43h11.858v11.84a4.246 4.246 0 01-4.249 4.242z" fill="#80C600"/><path fill-rule="evenodd" clip-rule="evenodd" d="M12.813 46.3a.336.336 0 00-.479 0l-5.976 6.057a.336.336 0 01-.478 0l-2.176-2.205a.336.336 0 00-.478 0L1.79 51.606a.347.347 0 000 .484l4.089 4.143a.336.336 0 00.478 0l7.89-7.994a.347.347 0 000-.485l-1.435-1.453z" fill="#FEFEFE"/><path d="M188.193 15.143h1.459v.322h-.486v1.448h-.324v-1.448h-.487l-.162-.322zm1.621 0h.324l.486 1.448.486-1.448h.487v1.77h-.324v-1.287l-.487 1.287h-.324l-.486-1.287v1.287h-.324l.162-1.77zm-46.352 7.24c0 .804-.324 1.608-.972 2.091-.811.483-1.783.804-2.755.804-.973 0-1.945-.16-2.918-.643v-1.93c.487.321 1.135.482 1.783.643.486.16.81.16 1.297.16.324 0 .81 0 1.134-.321.324-.16.324-.483.324-.804 0-.161 0-.322-.162-.483l-.486-.483c-.486-.321-.81-.482-1.297-.643-.486-.16-.972-.483-1.458-.804-.324-.322-.486-.644-.81-.966-.163-.321-.325-.804-.325-1.287 0-.804.325-1.608.973-2.09.648-.484 1.62-.805 2.593-.805.486 0 .972 0 1.459.16l1.458.483-.648 1.609c-.324 0-.81-.16-1.135-.16-.324-.162-.648-.162-.972-.162-.324 0-.648 0-.972.322a1.22 1.22 0 00-.325.643c0 .161 0 .322.162.483l.487.483c.486.321.972.482 1.296.643a5.824 5.824 0 011.945 1.287c.162.644.486 1.126.324 1.77zm7.617 2.895h-5.834V15.144h5.834v1.77h-3.727v2.251h3.403v1.77h-3.403v2.574h3.727v1.77zm5.997-8.526c-.81 0-1.459.322-1.945.965-.486.805-.648 1.61-.648 2.574 0 2.253.81 3.379 2.593 3.379a7.387 7.387 0 002.593-.483v1.77c-.81.321-1.783.482-2.755.482-1.297 0-2.593-.482-3.404-1.287-.81-1.126-1.296-2.574-1.134-3.86a5.65 5.65 0 01.648-2.735 3.504 3.504 0 011.621-1.77c.81-.483 1.621-.644 2.431-.644.972 0 2.107.322 2.917.644l-.648 1.609c-.324-.161-.81-.322-1.135-.483-.324-.16-.81-.16-1.134-.16zm12.641-1.608v6.434c0 .644-.162 1.287-.486 1.93-.324.644-.81.966-1.458 1.288-.649.321-1.459.482-2.269.482-1.135 0-2.107-.321-3.08-.965-.81-.643-1.134-1.77-1.134-2.735v-6.434h2.107v6.113c0 .643.162 1.287.486 1.77.486.482.972.643 1.621.482.486 0 1.134-.161 1.458-.483.324-.482.486-1.126.486-1.77v-6.113h2.269zm4.214 6.273v3.861h-2.269V15.144h2.917c1.135-.161 2.107.16 3.08.804.648.482 1.134 1.448 1.134 2.252a2.705 2.705 0 01-.486 1.609c-.324.482-.81.804-1.459 1.126l2.918 4.343h-2.431l-2.431-3.86h-.973zm0-1.77h.648c.487 0 .973 0 1.459-.32.324-.323.486-.644.486-.966 0-.483-.162-.804-.486-.965-.324-.483-.81-.483-1.459-.483h-.648v2.735zm12.804 5.631H180.9V15.144h5.835v1.77h-3.728v2.251h3.403v1.77h-3.403v2.574h3.728v1.77z" fill="#323835"/><path d="M154.807 9.835l-1.783-.965-.162.16a1.789 1.789 0 01-1.62.965 2.26 2.26 0 01-1.945-2.251c.162-.966.81-1.77 1.945-1.93a1.79 1.79 0 011.62.964l.162.161 1.783-1.126-.162-.16c-.648-.966-1.945-1.61-3.403-1.61-2.269 0-4.052 1.77-4.052 4.022 0 2.252 1.783 4.022 4.052 4.022a4.253 4.253 0 001.915-.48 4.216 4.216 0 001.488-1.29l.162-.482zM154.645 11.926h2.431l.81-1.77h3.728l.648 1.77h2.431L160.318 1.31h-2.107l.648 1.448-4.214 9.17zm5.024-6.435l.973 2.413h-1.945l.972-2.413zm6.159 6.435h2.107V7.261h1.458V5.17h-1.458v-.805a.757.757 0 01.81-.804c.162 0 .486 0 .648.16l.325.162.81-1.93-.324-.162c-.486-.16-.811-.16-1.297-.16-.81 0-1.783.321-2.269.965-.648.321-.81.965-.81 1.77v.804h-.973v2.09h.973v4.666zM136.818 1.309v10.617h2.431V5.813l2.269 1.77 2.269-1.77v6.113h2.268V1.31l-4.537 3.539-4.7-3.54zm37.275 2.735c-2.269 0-4.051 1.77-4.051 4.021 0 2.252 1.782 4.022 4.051 4.022 1.297 0 2.431-.643 3.242-1.609l-1.783-.965c-.486.483-.972.644-1.621.644-.416 0-.822-.123-1.168-.352a2.095 2.095 0 01-.776-.935h5.834v-.644c.324-2.252-1.297-4.022-3.728-4.182zm-1.782 2.895c.162-.643.81-1.126 1.62-1.126.811 0 1.459.483 1.783 1.126h-3.403zm10.696-2.895c-2.269-.161-4.052 1.447-4.214 3.7-.162 2.252 1.459 4.021 3.728 4.182h.486c1.297 0 2.431-.643 3.242-1.609l-1.783-.965c-.486.483-.973.644-1.621.644-.81 0-1.458-.483-1.783-1.287h5.835v-.483c.162-2.252-1.621-4.022-3.89-4.182zm-1.945 2.895c.162-.643.811-1.126 1.621-1.126.81 0 1.459.483 1.783 1.126h-3.404zM111.211 20.774V8.709l7.617 3.539V6.457L105.862.504v23.648l12.966 5.952v-5.79l-7.617-3.54z" fill="#C01818"/><path d="M126.445 20.774V8.709l-7.617 3.539V6.457L131.631.504v23.648l-12.803 5.952v-5.79l7.617-3.54z" fill="#75160D"/><g clip-path="url(#clip1)"><path d="M21.525 67.045h8.169v1.53h-3.212v8.606h-1.766v-8.605h-3.198v-1.531h.007zm7.82 2.797h1.51v1.416h.028c.05-.2.143-.393.278-.58.135-.185.3-.364.491-.514.193-.158.407-.28.642-.38.235-.092.477-.143.719-.143.185 0 .32.008.392.015.07.007.142.021.22.028v1.56a5.094 5.094 0 00-.349-.05 2.947 2.947 0 00-.349-.022c-.27 0-.527.058-.769.165a1.774 1.774 0 00-.627.48c-.178.214-.32.471-.427.786a3.349 3.349 0 00-.157 1.08v3.49h-1.61v-7.331h.008zm11.68 7.339h-1.581v-1.023h-.029a2.2 2.2 0 01-.883.887c-.391.222-.79.336-1.196.336-.962 0-1.66-.236-2.087-.715-.427-.48-.64-1.202-.64-2.167v-4.657h1.609v4.5c0 .643.12 1.1.37 1.365.242.265.591.401 1.033.401.341 0 .62-.05.847-.157a1.43 1.43 0 00.548-.422c.143-.172.243-.387.307-.63s.092-.508.092-.794V69.85h1.61v7.332zm2.742-2.353c.05.472.228.8.534.994.313.186.684.286 1.118.286.15 0 .32-.014.513-.036a2.15 2.15 0 00.541-.136 1.04 1.04 0 00.42-.293c.107-.129.157-.293.15-.5a.692.692 0 00-.228-.508 1.602 1.602 0 00-.541-.322c-.221-.08-.47-.15-.755-.208-.285-.057-.57-.121-.862-.186a8.17 8.17 0 01-.869-.243 2.65 2.65 0 01-.748-.386 1.696 1.696 0 01-.527-.616c-.135-.25-.199-.557-.199-.93 0-.4.1-.729.292-1 .192-.273.441-.487.733-.652.3-.164.627-.279.99-.35.364-.065.713-.1 1.04-.1.378 0 .74.043 1.083.121.342.079.655.208.933.394.278.178.505.415.69.7.186.287.3.637.35 1.045h-1.681c-.079-.386-.25-.651-.527-.78a2.15 2.15 0 00-.955-.2c-.114 0-.249.007-.406.029a2.21 2.21 0 00-.441.107.956.956 0 00-.35.229.555.555 0 00-.142.393c0 .2.072.358.207.48.135.121.313.221.534.307.221.079.47.15.755.207.285.058.577.122.876.186.292.065.577.15.862.244.285.093.534.221.755.386.22.165.399.365.534.608s.206.55.206.909c0 .436-.1.8-.299 1.108-.2.3-.456.551-.769.737-.313.186-.67.329-1.054.415-.385.086-.769.129-1.147.129-.462 0-.89-.05-1.281-.158a3.114 3.114 0 01-1.019-.472 2.34 2.34 0 01-.676-.794c-.164-.315-.25-.694-.264-1.13h1.624v-.014zm5.313-4.986h1.218v-2.203h1.61v2.203h1.452v1.209h-1.453v3.92c0 .171.007.314.022.443.014.122.05.23.1.315.05.086.127.15.234.193.107.043.242.064.428.064.113 0 .227 0 .341-.007.114-.007.228-.021.342-.05v1.252c-.178.022-.356.036-.52.057-.17.022-.341.029-.52.029-.427 0-.769-.043-1.025-.122a1.33 1.33 0 01-.605-.357 1.244 1.244 0 01-.3-.587 4.439 4.439 0 01-.092-.808v-4.328h-1.218v-1.223h-.014zm5.42 0h1.524v.994h.028c.228-.43.541-.73.947-.915a3.11 3.11 0 011.318-.28c.577 0 1.075.1 1.503.308.427.2.783.48 1.068.837.285.358.491.773.634 1.245.142.472.213.98.213 1.516 0 .494-.064.973-.192 1.43-.128.466-.32.873-.577 1.231a2.835 2.835 0 01-.983.851c-.398.215-.861.322-1.403.322a3.91 3.91 0 01-.705-.064 3.093 3.093 0 01-.676-.207 2.44 2.44 0 01-.599-.365 2.263 2.263 0 01-.462-.515h-.029v3.662h-1.61v-10.05zm5.626 3.677c0-.33-.043-.651-.128-.966a2.611 2.611 0 00-.385-.83 1.963 1.963 0 00-.634-.58 1.77 1.77 0 00-.876-.221c-.676 0-1.19.236-1.531.708-.342.472-.513 1.102-.513 1.889 0 .372.043.715.136 1.03.092.314.22.586.405.815.178.229.392.408.641.537.25.136.542.2.87.2.37 0 .676-.079.932-.229.257-.15.463-.35.627-.587.164-.243.285-.515.356-.822.064-.308.1-.622.1-.944zm2.841-6.474h1.61v1.53h-1.61v-1.53zm0 2.797h1.61v7.339h-1.61v-7.34zm3.049-2.797h1.61V77.18h-1.61V67.045zM72.56 77.38c-.584 0-1.104-.1-1.56-.293a3.443 3.443 0 01-1.161-.801 3.493 3.493 0 01-.72-1.223 4.74 4.74 0 01-.249-1.56c0-.558.086-1.073.25-1.545.163-.472.406-.88.719-1.223a3.28 3.28 0 011.16-.801 3.966 3.966 0 011.56-.294c.585 0 1.105.1 1.56.294.456.193.84.465 1.161.801.313.343.556.751.72 1.223.163.472.249.987.249 1.545a4.74 4.74 0 01-.25 1.56c-.163.472-.406.88-.719 1.223a3.28 3.28 0 01-1.16.801 3.964 3.964 0 01-1.56.293zm0-1.28c.356 0 .67-.079.933-.229.263-.15.477-.35.648-.594a2.67 2.67 0 00.377-.83 3.81 3.81 0 00.121-.944c0-.315-.043-.622-.12-.937a2.452 2.452 0 00-.378-.83 1.968 1.968 0 00-.648-.586 1.86 1.86 0 00-.933-.229c-.357 0-.67.079-.933.229a2.05 2.05 0 00-.648.586c-.171.244-.293.516-.378.83a3.841 3.841 0 00-.121.937c0 .322.043.637.121.944.078.308.207.587.377.83.171.243.385.444.649.594.263.157.576.229.933.229zm4.159-6.26h1.218V67.64h1.61v2.203H81v1.209h-1.453v3.92c0 .171.007.314.022.443a.82.82 0 00.1.315c.05.086.127.15.234.193.107.043.242.064.428.064.114 0 .227 0 .341-.007.114-.007.228-.021.342-.05v1.252c-.178.022-.356.036-.52.057a4.158 4.158 0 01-.52.029c-.427 0-.769-.043-1.025-.122a1.33 1.33 0 01-.605-.357 1.242 1.242 0 01-.3-.587 4.421 4.421 0 01-.092-.808v-4.328h-1.218v-1.223h-.014z" fill="#323835"/><path d="M19.645 67.045h-7.378l-2.28-7.053-2.285 7.053-7.379-.007L6.298 71.4l-2.286 7.046 5.976-4.356 5.968 4.356-2.28-7.046 5.969-4.356z" fill="#00B67A"/><path d="M14.19 72.996l-.513-1.595-3.69 2.69 4.203-1.095z" fill="#005128"/></g><g clip-path="url(#clip2)"><path d="M17.765 81.527H3.179V96h14.586V81.527zM33.566 81.527H18.98V96h14.586V81.527zM49.368 81.527H34.782V96h14.586V81.527zM65.169 81.527H50.583V96h14.586V81.527zM80.97 81.527H66.386V96H80.97V81.527z" fill="#00B67A"/><path d="M10.472 91.281l2.218-.558.927 2.835-3.145-2.277zm5.105-3.663h-3.905l-1.2-3.649-1.2 3.649H5.366l3.16 2.261-1.2 3.648 3.16-2.26 1.945-1.388 3.145-2.261zM26.273 91.281l2.218-.558.927 2.835-3.145-2.277zm5.105-3.663h-3.905l-1.2-3.649-1.2 3.649h-3.905l3.16 2.261-1.2 3.648 3.16-2.26 1.945-1.388 3.145-2.261zM42.074 91.281l2.219-.558.926 2.835-3.145-2.277zm5.105-3.663h-3.904l-1.2-3.649-1.201 3.649h-3.905l3.16 2.261-1.2 3.648 3.16-2.26 1.945-1.388 3.145-2.261zM57.876 91.281l2.218-.558.927 2.835-3.145-2.277zm5.105-3.663h-3.905l-1.2-3.649-1.2 3.649H52.77l3.16 2.261-1.2 3.648 3.16-2.26 1.945-1.388 3.145-2.261zM73.677 91.281l2.219-.558.926 2.835-3.145-2.277zm5.105-3.663h-3.904l-1.2-3.649-1.201 3.649h-3.905l3.16 2.261-1.2 3.648 3.16-2.26 1.945-1.388 3.145-2.261z" fill="#FEFEFE"/></g></g><defs><clipPath id="clip0"><path fill="#fff" d="M0 0h191v96H0z"/></clipPath><clipPath id="clip1"><path fill="#fff" d="M.323 59.992H81v19.9H.323z"/></clipPath><clipPath id="clip2"><path fill="#fff" d="M3.179 81.527h77.792V96H3.179z"/></clipPath></defs></svg>